<mxfile host="65bd71144e">
    <diagram id="wY49OpDlw-yWYGNDRJLv" name="Page-1">
        <mxGraphModel dx="1284" dy="1529" grid="0" gridSize="10" guides="1" tooltips="1" connect="1" arrows="1" fold="1" page="1" pageScale="1" pageWidth="827" pageHeight="1169" background="none" math="0" shadow="0">
            <root>
                <mxCell id="0"/>
                <mxCell id="1" parent="0"/>
                <mxCell id="6" value="" style="shape=image;verticalLabelPosition=bottom;labelBackgroundColor=#ffffff;verticalAlign=top;aspect=fixed;imageAspect=0;image=data:image/jpeg,/9j/4AAQSkZJRgABAQEASABIAAD/2wCEAA0JCgsKCA0LCgsODg0PEyAVExISEyccHhcgLikxMC4pLSwzOko+MzZGNywtQFdBRkxOUlNSMj5aYVpQYEpRUk8BDg4OExETJhUVJk81LTVPT09PT09PT09PT09PT09PT09PT09PT09PT09PT09PT09PT09PT09PT09PT09PT09PT//CABEIAxoEsAMBEQACEQEDEQH/xAAzAAEBAAIDAQAAAAAAAAAAAAAAAQIGAwUHBAEBAAMBAQEAAAAAAAAAAAAAAAECBAMFBv/aAAwDAQACEAMQAAAA1v18AFAIAAAAAAAAUAAAAAAEAAAAAAAAABQCAAAAAAAAAAAAAAAAAAAAAAAAAAAAAAAAAAAAAAAAAAAAAAFAABAAAAAAAUAAAAAAEAAAAAAAAKAACAAAAAAAAAAAAAAAAAAAAAAAAAAAAAAAAAAAAAAAAAAAAAAFAKAUAAAAAoBQAAAAAAQAAEAAAAAIAQAgAAAAAAAAAAAAAAAAAAAAAAAAAAAAAAAAAAAAAAAAAAAAKAWAFAAABkAQAoBQCAAFABAAAAQAAEAAABACSAgAAAAAAAAAAAAAAAAAAAAAAAAAAAAAAAAAAAAAAAAAABQCwAoABQCgAAoAAAABQAQAAAEAABACAAEAJICAAAAAAAAAAAAAAAAAAAAAAAAAAAAAAAAAAAAAAAAAAAFAhQUAAFKAAUAoBACgAAoIAAAAQAAgBCAAAgIJCAAAAAAAAAAAAAAAAAAAAAAAAAAAAAAAAAAAAAAAAAAAGUAKAUAAoAAKAACpAQAAAAASAiAABAAAQAAgBACSAgAAAAAAAAAAAAAAAAAAAAAAAAAAAAAAAAAAAAAAAAAMoAUAoABQCgFAABUgIAAAAAJARAAAgBACAAEAIASQEAAAAAAAAAAAAAAAAAAAAAAAAAAAAAAAAAAAAAAAAABlAUApQAAUBNAKAAWABFTLFZIIJAAEkAABAgQgAAAIQAgBAJCAAAAAAAAAAAAAAAAAAAAAAAAAAAAAAAAAAAAAAAAAzgBQCgFBQBEgCgFBkcZkcsz2+a/UaOfHYrMiEgAAABACCYAAgBACAEAIASQEAAAAAAAAAAAAAAAAAAAAAAAAAAAAAAAAAAAAAAAAM4AUAoBQUARIFAKCkMixO849Oy+f31/dw0TZn4+lVZTAAEIAAQAkwAAICAEAIAQAkgIAAAAAAAAAAAAAAAAAAAAAAAAAAAAAAAAAAAAAAAAZwFKAUAoImwFAKAUAJyhveTv3Xkbuj8vZ3nr4+q9DFoW7PxzBMmKAQAAEAIAQCREIAACEABBIQAEAAAAAAAAAAAAAAAAAAAAAAAAAAAAAAAAAAAAAAByQAoBQCgRIpQAUAhkZy3nFo7nxt3Q+Nvtb82nN3Hr5up9HDoe7PhaLExJAgABACAEABJgQAgBACAEkBACAAAAAAAAAAAAAAAAAAAAAAAAAAAAAAAAAAAAAAA5IAUAoBQImlKACghkZJ3nD37jyN/ReNvxr0y605b1yrXt/Zxdb6OLQdmfj6Vq0RSAAAgIAQAhJgQoIQEAIASQEAIAAAAAAAAAAAAAAAAAAAAAAAAAAAAAAAAAAAAAADlgBQAUFiQlU2BAAyIKs071l7dx5nodD8/uxp0Qy78+eWMzlfl3HqZes9XBoWzPxzKUVJAAERErFQEIAQTAAhCAEAIASQEAAAAAAAAAAAAAAAAAAAAAAAAAAAAAAAAAAAAAABywAoBQVNhDlrPJCyJoBkBduWLt3nk6+j8b0MK9JNcaXztHJ25Z2iQyvXt/SydV6uPSdPLBEMgDEFOM4L1yhjICEABJEAQhACAEAJICAAAAAAAAAAAAAAAAAAAAAAAAAAAAAAAAAAAAAAA5YAUAoKnKGJvGTvtGTrjQAKQpla2cV462sBknqvN2dV523uPRxdh6uXjslVmcr0zmnCtgmgAhmdF24aLty4zMiQBAQEkQBCEAIAQAkgIAAAAAAAAAAAAAAAAAAAAAAAAAAAAAAAAAAAAAADkhSgoETSlBvePv93hV6fyuFiIjIxtbKK7B7WvOba742PjrFraTXu/V05z6vVeVu7f1MPS+20nvvsIWab9nw80R59o34TZWFpQK7Jz4d48jQdueEAAIQgEoECAhACAAgBJAQAAAAAAAAAAAAAAAAAAAAAAAAAAAAAAAAAAAAA5IUoKBE0oMjesej7fA59L5GYmkLeO+9fdz9Y1zw8nHWlrapk0731tWd/X6rytvb+ph6H250fR6OURJFcj0LJ5mcvPNXpcVuilakrsvLPsLxtB2Z0oAQEIASUCBAQhSEABACSAgAAAAAAAAAAAAAAAAAAAAAAAAAAAAAAAAAAAAByQpQUCJpQZG9Y9H2+Bz6XyMybSWcO/8AY183edc8HFhBWZMJmKd762vkt63VeVt7f1MPRe3OjaPRsVSGMuWLeg5vLzh53q9DiXygV2jln7542g7M6QEICEAJKAIgIQpCAAgBJAQAAAAAAAAAAAAAAAAAAAAAAAAAAAAAAAAAAAAA5YUoiaUhSgpvWPv9vz9Ok8nNlMyYqe+9jV9Xe+teDk460RK0Kzbu+9XTZ9bqvK29v6mHovbnRdPo2KZJiyackR6Jl87iPP8AV6XGWtl238MXbx5Ohbc4hAJQgIAQShCohCkICEABJAQAAAAAAAAAAAAAAAAAAAAAAAAAAAAAAAAAAAAA5YUoiaUhSgpvWPv9vz9Ok8nNnaex29esw8rWneexv+vVOt+Fk4a88q2qeXQ7r09Kvq9V5W3t/Uw9F7k6Lo9HKKwyMkei5PL4JvoOj0OObbLTN0Fu3Lbps+fB2s+XoW3OBCFlCAxAIJQhUQhSEBCAAkgIAAAAAAAAAAAAAAAAAAAAAAAAAAAAAAAAAAAAAcsKURNKAUpTecej6/n+XU+Xw7/2NHY79PWeZw6Dy8ynPv8A2tv19+mteHj4605r9L2dxt0J9TqvK29v6mHovbnRdPo5VrZnOOXoufB8820DR6GKdyz4dv54unvo0vvu7ymbta+Xoe3OBCCUICAgISQIhCkICEABJAQAAAAAAAAAAAAAAAAAAAAAAAAAAAAAAAAAAAAA5oUpImlBShFrbecuj7/nq8vRy956Hxc+xe5p+PLTpPKzSXf+tq+jRfpPGycVS8dvv0Hq9V5W3t/Uw9F7c6Ho9HOI5lPQ+Hn4Vr5/p9Ibfww7FTjovb0Nw5Yqr089ewt52i7c+KKQhSEkMSkICELMQgIQpCFIQAgkBAAAAAAAAAAAAAAAAAAAAAAAAAAAAAAAAAAAAc0KUkTSgpSIyrbecnfZ8Xb4M/HXfCyZdKc1u3f+3q+fhHT+XktXb+ps+ntHQ+Tm4+XPt/U1o9TqvK29t6mHpPbaLo9DmrT0TP52CNL7+kRtfHF3lOWgavQ+WJylvGXz+4jl0Xbhom3OQIQpCSGJSEBCFmIQEIUhCkIAQSAgAAAAAAAAAAAAAAAAAAAAAAAAAAAAAAAAAAAOeAqUBQZCFmM629Fx6ft8quteNl5LnJejO/TvvX0cPGnS+ZxlOfcetp+rt06HxsnZ+l3V9XqvK29t6mHo/ctpfbV6Pn87hTpnfeidq44u6jnofbZ87tjbnXTJG75/O+pk863Z+K9bE4FQISQgBCEAlEQEAIQAgAJIQAAAAAAAAAAAAAAAAAAAAAAAAAAAAAAAAAAAA54mlJClBDOGdY3rLp2Th36XxsvVYeHImATHL0v3vq6Pn5V6bzs6le39LX9Oi3Dzpx8vT6jyd3cerh6j2ef1zOENN77pM7Vwxd1HLQuu35r9qgJIbByy7nxw9N046Lt48F6VMgISUBAQEIJQhUQgIQAEAJKAAAAAAAAAAAAAAAAAAAAAAAAAAAAAAAAAAAAA54mlJCmRiZGdZ3vHo+jnuwmPo8bz+q8/OrKQWhyjk1dO+9TT83Ln0/mcFHc+pq7PffqPO29X5W7tvUxdh6mToe2jS+++J2rli7znx0LRs+V3IsgkhsHPL9UYbavZUpoGvPxdaWt4iElAQEBCCUIVEICEABACSgAAAAAAAAAAAAAAAAAAAAAAAAAAAAAAAAAAAAOes0oKEkcsTvmPR9FN2i99m38cv3eJ5XVefwLAImXrYnOI772dnDxp0vm50U732d3K19J5mvu/Rx9f6M6Fo9BVtPLH3ccdD77vmdCUxAWSJ7/lk+m+Dzf0K+kedbtaV0Dbn4+lJW0QmImAhACEBBMQgIQAEAJIQAAAAAAAAAAAAAAAAAAAAAAAAAAAAAAAAAAAA56zSlMTKXJzje8er6q7dG77MJ67jnwff4/m9X5vK2oQASJdyXv3nqaOCkdN4mftfX7/AHen3z5X4+3Lob7tR66tq55O55ctH77fm6dEVEAKRPfcc/NODzH0ufLzt6Xjv2fPloG3Px9IkTIgYiUIUhAiEEoQpCEABiBICAAAAAAAAAAAAAAAAAAAAAAAAAAAAAAAAAAAA56zSkMjOJ33F35ue/SNOzjXQ3Lhi2XhlkwkgABJlSL0sRYrFtX08OvtX7EbXm7q3TWLYXgIkUAEllWNQ1R5vt51OdJ9Jx37Tnz0PXn4O1VZiMRKEKQgRCCUIUhCAAxAkBAAAAAAAAAAAAAAAAAAAAAAAAAAAAAAAAAAAAc9ZoLLOrf8mjm5bdG0ehhMqrKoyiBYkAkAhasrPKpvGbH89sembs/DDktfccff7K9PLN3P5ukJtKiAAKiWi0nBbhtWpto5KT6Tjv2dOegbM3DaBBKEBCAhBMCAhAQEBBICAAAAAAAAAAAAAAAAAAAAAAAAAAAAAAAAAAAA56zQZTFrPoOLRjz26Bp9PhvdSByzGaLCSsgABAZxHoWXzsb4NM2cuBXOb7ni7fXz6ec+jXhTKQuSFAFUlkccOK4WrO0b3iv2Vaef7M/DethiJQgIQEIWYhAQhSEICCQEAAAAAAAAAAAAAAAAAAAAAAAAAAAAAAAAAAABz1mlKizPLztvuXvx03+e6N+E3hvXDFsnLHxTOSCAAEIZJ+itJNZM6125/Dfl9UX2nJ35OV8elIYRMmagABALtb089E1rLOG+Yp+6tNC2ceDpzsSMRKEBCAhCzEICEKQhAQSAgAAAAAAAAAAAAAAAAAAAAAAAAAAAAAAAAAAAPorNKBIc1J37J3w57/PdHocVum/ZvN6zrj0nVWSAoBIjmpPqeO3U9J883V3vA3Pjbk5V4+s/J4mzpsG7t/Vx/boz9D4no8NLysWQATBPYbsvyfRYPPtsVG+YLdkpoW7P81q2EBiJQgIQEIWYhAQhSEICCQEAAAAAAAAAAAAAAAAAAAAAAAAAAAAAAAAAAAB9FZpSFKkjlq3/ACaOLnu897+lvXLH1PbBomutEhIUHNWfVMD4LPNt8YTPqPnTsuCuveNm7z1OmN/Q1/5r0l7dv6mP7N+LoPnvV469EIgCoi3Y+hi+b6XB57srv+GOwNC2ceGeKZhAYiUICEBCFmIQEIUhCAgkBAAAAAAAAAAAAAAAAAAAAAAAAAAAAAAAAAAAAfRWaUhSkic5jkrO/Y+/FTbxrdJoy6JrrRIWFOaHqfn26+0ebbq4m/4773lt13nZ+j8XH2fpae+9fV1Xnaul8jda37f1cX17M3Q+L6HBw71CAqC3Y+hi+X6Pz8Zj7ldC1Z+K1SyawgMRKEBCAhCzEICEKQhAQSAgAAAAAAAAAAAAAAAAAAAAAAAAAAAAAAAAAAAPorNKQoMoDI5Yne8ejvM/XQdldD21yiRCxHOt6p509fafNvQrIr6BjnYuU9bae48jj0Hi5O09DR9un087uPi6PyfQtbdx7OH6+vHXvF9HDn0sRJS0ZRPZ+li7f2cXUduOibOHBMQhZiEBiJQgIQpCCYhAQhSEICCQEAAAAAAAAAAAAAAAAAAAAAAAAAAAAAAAAAAAB9FZpSFKIUsTZjkq9Ex6flX8o9CMLJCnNE+qeY67u843JV6BkbFweZbm5Zmw+Py6DxMnab9HPo9bqfE17D9H53Bn69L5PoOU9t7GP7NePofA9PijqrBPJ1r3vt+Xwejm8+15+DtRWYBMQgMRKEBCFIQTEICEKQhAQSAgAAAAAAAAAAAAAAAAAAAAAAAAAAAAAAAAAAAPorNKQpRChNiEt5y6e+y9eg0V8x2xxWc0PVPOt13WPNtcLPQcM7Hxt5lvrh0blibH4/LoPEydp6Gj6enrdN5XoZRz2D3vN4eXTo/G31Pbeti+3Vw1/wAPfhy78nandex5327OOv6eOj78yk4zEIJgQGIlCAhCkIJiEBCFIQgIJAQAAAAAAAAAAAAAAAAAAAAAAAAAAAAAAAAAAAH0VmlIUohSgpvGPR1VuvYVjlq823R6finr0+d7a20b5ivsXGPNt8fNYlumOdh8Xn0Xj4+z3aPp7et0vj+hlauVq997fn8fK3SeTtq/b+ph+rXw6fyd3aehlz60+TH1+T3vP0TbnAhAiEKYiUICEBCFmIQEIUhCAgkBAAAAAAAAAAAAAAAAAAAAAAAAAAAAAAAAAAAAfRWaUhSiFKCm8Y9HTdOmk6o9Mw22HPOtaGkba4Ub1ldtynzXbHH0jES3THOw+Lz6Lx8fZ7tH09vW6Xx/Qs15Osc0ce597DxcenVeZsx5T2vrZPv25/n426bxvQ+vVn+f6HzdE25wIQIhCmIlCAhAQhZiEBCFIQgIJAQAAAAAAAAAAAAAAAAAAAAAAAAAAAAAAAAAAAH0VmlIUohSgpvOTR0l76Psjsec7Nwa50YzO8ZZ7jnPm26OC0YoolumOdh8Xn0Xj4+z3aPp7et03j7+XtzzrDtOVY7j1/PwrfqPN248p7Dfn+XL146X+7Zk+b6DztE25xAQIhAQShAQgIQsxCAhACEBBICAAAAAAAAAAAAAAAAAAAAAAAAAAAAAAAAAAAA56zSgpQUpIU3nHo6a/XUtVeaoZG7Zr91wjzXdHzXgAJbpjnYfF59F4+Ps9uj6tHrdT5Wzk6UJCzKXc+x5/Hxv1Pl7MZsrCZ+/Zl+b3/N0TbniBCFIQGIlCFIQEIJiEKQgBAYgSAgAAAAAAAAAAAAAAAAAAAAAAAAAAAAAAAAAAAOes0oKUFKSFN5x6Otv11HVVUMzfsV+eHne2vFaAAlumOdh8Xn0Xj4+z26Pr1er1Xl7bNKkSrKzt/Ww5dadP4npYRCSZ+/Zl+b3/N0TbniBCFIQGIlCFIQEIJiEKQgBAYgSAgAAAAAAAAAAAAAAAAAAAAAAAAAAAAAAAAAAAOes0oKUFKIU3jHo+C3XS9UZwEOSZ9AwTy1jzzfHFaJCwlm6452Dx+XRePj7Pbo+3V63U+btRVEWJtnb+rgytHTeR6GNbSYyiC33b8vze/5uibc0rCUICAGIlCAEBCCYhCkIAQgIJAQAAAAAAAAAAAAAAAAAAAAAAAAAAAAAAAAAAAHPE0pIUoKUsKbxk7/HPXUdUQRAHJE77jtZtoOqnHaajGW5ZHf+Nz6Hw8fZ+no+/v6fU+VsyvEicute09LJy9KdP5G7jmbWARKW+/fw+L3PO0TfltZTEICElTEEICEKiEEoQpCAhACCQEAAAAAAAAAAAAAAAAAAAAAAAAAAAAAAAAAAABzxNKSFKClEKbrk77Dw7cNpyQgIZTNh9NK8drcdIoMqviw8Oi8nP2e3p3np68VpNcotleJavHN5SCQAL0dDpz6RqzybVEICElTEEICEKiEEoQpCAhACCQEAAAAAAAAAAAAAAAAAAAAAAAAAAAAAAAAAAABzxNAhSgpQQ+iJ5KyBQUQymUtzydu1863R+Rkx5Vl7YnFx54cmfW8iM7u+9jZ83qtK08Ma0nS0iSAJJE8cxxWpitUQEIJCEBAQgQISQgICAgBBICAAAAAAAAAAAAAAAAAAAAAAAAAAAAAAAAAAAA5oUoiaUhSlALCgpSJpQjkrO8ZO/aeXPR+dn4s/NM8dIw5xhSvJ2vsHra/n9hom3jxTGQIAYyAIhCkICEkBCEKQgmIQEIUhAAQEEgIAAAAAAAAAAAAAAAAAAAAAAAAAAAAAAAAAAADmhSiJpSFKUAsKClImlEE05F93xae18t0XkZOOI46Rxc65dL7D6+n5vYvouvPxWrYtEAQCQBEIUhAQkgIQhSEExCAhCkIACAgkBAAAAAAAAAAAAAAAAAAAAAAAAAAAAAAAAAAAAc0KCxNAKClAKWFKAkURCZzN3yaO28iOg83NxZa8d42H1Nnze1fRtWXisiSAAkIEAQgICSgBCAgBCTAgIQAhACASAgAAAAAAAAAAAAAAAAAAAAAAAAAAAAAAAAAAABywpRE0pClBkQoLClABQCoyrbecujtPNdB4mfufR7/N7LRNvHjkQBAJARAAgBCEkIUxBCFlCBEIUhAAYgEkBAAAAAAAAAAAAAAAAAAAAAAAAAAAAAAAAAAAAADlhSiJpSFKDIhQWAoAKCkicprlF93w99gyW6bbTRNfHitWxMAIBICIAEBSEJIQpiCELKECIQpCAAxAJICAAAAAAAAAAAAAAAAAAAAAAAAAAAAAAAAAAAAAHLClAKlCgpQClgBQCgFSRTJbv+N+j6c+K0EkAACAEAIAJQgIAQgIJEQEICEKQgAJICAAAAAAAAAAAAAAAAAAAAAAAAAAAAAAAAAAAAAHLClIUCJpQZEKUQAoBQCgGScShAAAAgBACACUAIQpiCEEwIUhAQhSEABJAQAAAAAAAAAAAAAAAAAAAAAAAAAAAAAAAAAAAAA5YUpCgRNKDIhSkgBQCgFBRM0EiAAABACAEAEoCkIUxBCCYEKQgIQpCAAkgIAAAAAAAAAAAAAAAAAAAAAAAAAAAAAAAAAAAAAcsABSiAqaCgFKCgFgAAKAAAAACAgBABKFBCAhJRAEIUhAAYgCQEAIAAAAAWIATMAAAAAACUQVqwSSkEAAkAAAAAALEAQAAAFAJMgAAcsABSiAqaCgFAKAWAAAoAAAABAUxAIALAEIQgJIgCEKQgAMQBICAEAAAAAAlYIQCQAAAABCYCZFhKxZRNiQJIAAAACgEEkEgAAAAEAAAOWAApSQpUilAABQCwAAFAAAAALE0xIAQAVDGy2iEBBIiFIQpCAAxAEgIAQAAAAAz52ATGItEkAAAABknLnP10t9tL88BhFflu+PpHBemAmEgAKQFhJCROZYKyBQAAAQAXjCYAAHJACgApUilhQACgFAKAIAJBEyaphS/wBXO3f8One8un2xPOWJRKQCIkyhomvhrurgBJiAhCkIACAEAJICAAAAAFArPqXm6+ypfKYVefbeOtas8kAATVZMyH2cb7Rn6bHn79mnmhkUAhgfJLqenPWuvLXNPPi61RWpxWqlixEOZfYMvTZuPbsubnrNmyCSAAAAAS1Ltx0f0MsiUgByQAoAKVMKWFAAKAUAoAgEgECOSl9yy6Nq43zrNCKlIAACHnmvhrWrgBJiFIQpCAAgBACSAgAAAABQKz6z5mzt6WkkPONvDVtWdIABEprnztuWXTunDpzc5WUpQACGIhIn4OldF1Z9Z0craEMk49IsO2zdvQsPXtq9ELKyAAAAAAA0/ty8+9HJlE4yAHJACgAoSKWAAAoBQCgCASAh9HLp6Hj793xutFCRDIAAEJEee7OOsauASiABCkJBICAQgkJICAAAAAAorPrXmbO1pezCrzfdw1bVnSAQsiObn09Jw6O/43ylEwpYWQAQhBMBE4o0rVx0bTwdq5RGMz2mXv6li0fVEoizKYRICCQkAABRJDTu/Lz/ANHJYmSAGcAKAUFKAUCJoKAACgAAiBlSfQsWnYOPXIspBCWY1i2mggCZCq+f6+OsbM4EAIAQAAlokJUkkkgAAICphCgBFJWfW/M29tS6YQ833cNW157EAjFaI5KT6Xh17Fx6ZgHGQ+S1Og6V+O0VP31nu+c/dSxKVKDA8z2Ztc1cJMZRf1Xy9feVuBiSFPnvXqekcURQAAAADXuvPUtma2shADOAFAKAUAoETQUAAFAAEKiTbYMnX0XL3ROUoDXe1NU704LUKiEABEfJeODpUCAhAACAAkhJiwhJAWAEASAAKiCs+t+Zt7alkkPONnDVtedMCCyVtuODRv2ftkUoPjRoevlrOjjx2pbEpVnz6bLxvvmbt9nO1mKkYw67pTyT0M2HXl3GbR6tg05gHGrlW+v9ufne3h8HWmStBAAAUATNtWVVMAM4AUAoABQCpQFAABQAALRny6enYdHb8+mKLBDXNFPPNeV1rIkkCKgSRMhZgQkMpYRPPzt2FbZVtQQAxiOu60+frXCJ7bj056KAJACGF4+S0fH0rLVlYTPYcOv20nJPoeTt99LJIaVo5dB25Ej47V63Ty5+HT1vDq+6k0qUOG0eX7s3R6OIyiZIWElEdtx6eo+fq+qLZAhieYbM+v68264te84+/JaAMT5jyT0MfxdueVisyQEAAKAVAgSAMoAUAoKAUApQABE0AAoCZMffn6er4dWYMYccvKt2T4O9KACCYEAIAQH0cum65e2y8b/RFsigAEh5zr4attzSHqPm7e+53oKAAQxhxo6jvTQNHHqtPFL0Lzte35+qVABAUGn9uXnnpZtlxdfTcmmgiFZ0PXx0rbmTAJAAsFm0+d39G4aMgQI1HvTzzfi3/Hr3HF2yuAxPjmPI/Sw/P0gUgAAAAASAABlACgFBQCgAoABYkAAUCWNW5Y9G8Zu9mBKuo608u35p0qgABJgQAAEq7Ln19HxaPv43ztEMpAABDznXw1XbmkPUvN29/wA7VIgBQCGEzlD4lPLvRzdb25eh+fr27P1SoAAIDUe/Lzvdm9AwaNy496gSHBMePenk+fpzgCQAKYxH0U6evedq+2thDE6frXyj0cO7ZNW94u1sAicEeZ7c+uaeWU1IgAAAAASAABlAACgFKAAUAAFiQLIIAJSs+i+fq2XleyErOmaeOkbs9QkJACTAABJEiPr49vUMXf76XsxjM2rGXHMQoBEef6eOsa86XqPm7e/53pCQQspImoVnC0ZQktb6cvM/Rzb/AIdW1cb05TkiYWHDZgig1Pvy0HZn9R8/XsPO4GJr3WnmPoYpYSAAAFYwvb1DzdOy8eohifHaPHfUxdxm7eqYtHIUgRKz8vSNM7cdc604+kIkACo45jjswvXCYyisWJTUkAZQAAFAKAAUoBQAAAAEoeo+bs7mk1Ih51p4azt4WISAAAgBinJWc7ek49WxcelMTA1Lvy1TVw+a0YEEAmeO9ZeMaR6l5u3v+diYax256hp5WRErPYc77xn6ffS0kRwTHj/pZcLUzrNrb1PBq7OlkrV5/r5avozrEOOXHavrnm7u1pIA0/vy899DISAAAErRLTuuDRvufsEJM/Mr436OPDo9L8/TsvHoJMZJAxRAKyAAEuG7rlNY78tV18uHpzibCJAGUAABQCgAAAoABQAAE2Hq/m7Ozpagh5pqz9Bu4ShICAAEBTGY7fL39Uw6c5YkTqPfhoO7PlZIYgAKIkmTHqXm7e/52JGlaOOh7ctsiEzjW2xZevp2PTSmKPKvQy9N25InKtvWvO19pSbaVHnG7PquzPa2CUrHsXmbuwrIERpXfnoe/JZmAAAAtS07bg0eiZ+wkEvnR476OTh0c+fN09PyaO542s2oBiWASAAgRDFI6uaecbs/XaeSqTIAsAAKAUAAFABQUAAABONY9b83b2VbUGCPN9mfXdnBSUhQCAEAiZNd+wa9wzdraBgeRehl+DvxkJKkhAEpZIxh6l5u3v8AnYkaZo46Duzpi1SVl9PK/sPm7OWElUeV783R6ONhK29b83Z21LSVq8328NW2ZyAmXN7B5m7sokCGl6OOhb8tTAAABJSV6bbg1+i5uwgPnR496eP570qealt3yd9r4dvoqpJABAAiCZiKlDKUOrvXyjfl4OvOpAFAABYAUAAoAAKAAAAWr1Tzdvb1tQYnm+vPruzhKkgAIAAImI9Y87Z2/K6Q4zW+3PhkiJIABDU9PHqO3JL1Lzdvf870hpejjoW7OmthJkfTyt7H5uzlCYjyvfm6XvyxLWfWvN2drS9mFXm+/Pq2rOSBax6v5u7uqWAxNR7c/PfQxpkAAAJiVtlam7+fs3rP1EB8qPGvUx43qEpS328r99y6djSeWs0AAkxnDtKX7StuSspjIoMYjRNnDStnAACgAAsAKAAUAAAAAAAp6T5u3Y+c1Iho+jhpW7hYhIQAgKAUwpPr/m7uwhQYpkKigAAxh5xuz6xqzw9S83b3/O9IaXo46FuzprYSZH08rex+bs5QmI8r35ul78sS1n1rzdna0vZhV5vvz6tqzkiQWr6X5m7aOVwIjXrvL/Sw2yAAAFQi2Ex6f5uzZeVxIJjrujx70cdtUZGMxTGaomxNAAIIjGLdvy6em4tX3UmoqRIdJ1p5R6WWzUAAUAAFAEAKAAAAUAoIJbxg1bpm7ZTAxOmvTy70MuN60GIAAAApPr3m7uwiKkYgQIsyABKz5vuz6vrzoj1Lzdvf870hpejjoW7OmthJkfTyt7H5uzlCYjyvfm6XRyxLWfWvM2drW9iEPN92fV9eeJFljEbxi1b1k7WQhwI8c9PHwXqLMRIACITHLz6+u+dr7CsjGITOu9eXmPpZiAMjEsQTJAACwgmBtWLT6Ll0ZoAkPlmPF/Tx3pUAACgAAoEAKAAAAUAAQWjtcvf1fFpyBjDGY8p3Z+r0ciBAAAAQQ9Z83b29LAYQ6HrTjvCsgBMxBGn6uPSduMPUvN29/wA70hpejjoW7OmthJkfTyt7H5uzlCYjyvfm6XRyxLE+teXs7Wt7EIec7s+qa85ICI77j39R8/RmkQI871cNT25sbMqTJkACyh3+Pv6lj0UERInz7Xn1DbwAABAAAAAFvHe4tPqOLvmkAfLMeK+ljy6VAAAoAAKBACgAAAFAIBBaufLp6zh1dnzuJMY1npetPNN+XgvUAAAAE4zTffO27pw6JDBHkW/L1ujnakwIJEqymMorjM+pebt7/nekNL0cdC3Z01sJMj6eVvY/N2coTEeV783S6OWJYn1ry9na1vYiQ8+3Z9P156kE1W16eu+Zq7OthDFHzS8y25+l1c8q85NgAKfTw6eqYdPZUvlMAfPDyH08nx9OSZAAIAAAAARbf8GrcM/XOYAkultXyf0clvUAAAAAUAAFgAAAAAKADGG2Ze/oGXQieSIsodN056b259P255TJJFgCUIj5uleLrz7HL29Zw6uZMlIab35aDuzr0QpACiqSHqXm7e/53pDS9HHQt2dNbCTI+nlb2PzdnKExHle/N0mjlC1n1Ty9neRaCJ1/vy8x25J0mTWpQhtePR6Hl72IzSB80xpujlq3fn8fXnjIQ5ed9h4dN6zduwrNKgmJ1Hvx8935rasrNl9vHqQAAAACLD7q32jP12jj0zBSkhpenloW3KkkAAAABQAAWAAAAAAoIAZUt6dg0d7w65XUGMEomxFAABJjQdPLTt+Wc7eh4dG15+1mLLCZ1jtz1Lvx+WYwEkhE8E8+PpQn1Lzdvf8AO9IaXo46FuzprYSZH08rex+bs5QmI8r35uk0coSHo+DVtPDrSGKel68td60+Wa9J2p8fagyrHpXnbNh49OS0VIlYTPDL4r1+aWJyI+2lvsrMlkBCRHWdK+U+ln4enKkT9nC3r/n7OSsgkAAASYqETSSpSEPmmPJd+X4u/EsAAAAAKAACwAAAAAFBCFLMfVx6+oYdPac7WQxBEZJAAGJYjQNPLT/Qyjl429Rw6+349MrVJQkqSVggMTz7Vw1LfwVj1Lzdnf8AO1TDS9HHQt2dNbCTI+nlb2PzdnKExHle/N0mjlAbHm7elYtOcIUqZBMec7OGq684sOelvR8WnYePTIGIIipyMYmIpDIglYdV1p5rsz9d35SYVm2t9vDp6/5+nkSCAAABIlBMVIAhgec6c+s+hmc7SwAAAAAAAAUAAAAAFAAEEx9HDrv2PvslL51ZJSFgkgkISBHn+nlp+/KB9XHp6Hi0bByvyGKaWQAEq8818dS3ZEX9R8zXsHO6UNL0cdD25rZAD6OXT2HzdX0RMRJt5Ztx9Jq5wopbeMmjcs/XkhYUCY832cNW18IWSrLm27Po3Hh1+/naiRJCYRMRUoSEs4JjVevPSdefg7VgBlNfrz6PYPP0cqQAAAAgAMSzGMT8do0HVw1rVxWgAAAAAAAAAUAAAAAFAAJCzCYlb9lx6d/w6djzt9ZmYpAIAsTijUtHLXtfAWYkSp02Th12Hjf7uc8iQABjDTNPLX9eXGLb1h09pS1kNb7c9U1cLZADlp19Hw9solROjRtWfq+/MBNXLp3/AC6bJn6/VCwolp2nl0GnjkSAshnyvsXDp3vLp2NJ7CJ+qlsyEmOCz4jrOtOk689d7c/k6UshAUxR9XPp6Hi78kSBSBIAFgBAfNavT9Y1fvy4uvLFIAAAAAAAAAFAAAAABQABEFpJNUSkqgIAAUwiclbcgKnEQRAichAAJRJOV6RKk4q2ZpiZQtkAKY84t5kVTaGUgCKQiZCwgspSmJkASRCJtJ5KzmtywGM14ZccxLVSpAEgWYlZpjBIQAAAAQFTJjKYsTbVwi+REAAAAAAAAAAAAAAACgAAAAEAAAAAAAAAQAAACQCACQAAAAAAAAAAAAAAAAAAAAAAAAAAAAAAAAQCQAAAAAAAAAAAAAAAAAAKAAAAAQAAAAAAAAIAAAAJAIAJAAAAAAAAAAAAAAAAAAAAAAAAAAAAAAAABAJAAAAAAAAAAAAAAAAAAAoAAAABAAAAAAAAAEAAAAkAgEgAAAAAAAAAAAAAAAAAAAAAAAAAAAAAAAAEAkAAAAAAAAAAAAAAAAAAAAAAAAAAAAAAAAAAAAAAAAAAAAAAAAAAAAAAAAAAAAAAAAAAAAAAAAAAAAAAAAAAAAAAAAAAAAAAAAAAAAAAAAAAAAAAAAAAAAAAAAAAAAAAAAAAAAAAAAAAAAAAAAAAAAAAAAAAAAAAAAAAAAAAAAAAAAAAAAAAAAAAAAAAAAAAAAAAAAAAAAAAAAAAAAAAAAAAAAAAAAAAAAAAAAAAAAAAAAAAAAAAAAAAAAAAAAAAAAAAAAAAAAAAAAAAAAAAAAAAAAAAAAAAAAAAAAAAAAAAAAAAAAAAAAAAAAAAAAAAAAAAAAAAAAAAAAAAAAAAAAAAAAAAAAAAAAAAAAAAAAAAAAAAAAAAAAAAAAAAAAAAAAAAAAAAAAAAAAAAAAAAAAAAAAAAAAAAAAAAAAAAAAAAAAAAAAAAAAAAAAAAAAAAAAAAAAAAAAAAAAAAAAAAAAAAAAAAAAAAAAAAAAAAAAAAAAAAAAAAAAAAAAAAAAAAAAAAAAAAAAAAAAAAAAAAAAAAAAAAAAAAAAAAAAAAAAAAAAAAAAAAAAAAAAAAAAAAAAAAAAAAAAAAAAAAAAAAAAAAAAAAAAAAAAAAAAAAAAAAAAAAAAAAAAAAAAAAAAAAAAAAAAAAAAAAAAAAAAAAAAAAAAAAAAAAAAAAAAAAAAAAAAAAAAAAAAAAAAAAAAAAAAAAAAAAAAAAAAAAAAAAAAAAAAAAAAAAAAAAAAAAAAAAAAAAAAAAAAAAAAAAAAAAAAAAAAAAAAAAAAAAAAAAAAAAAAAAAAAAAAAAAAAAAAAAAAAAAAAAAAAAAAAAAAAAAAAAAAAAAAAAAAAAAAAAAAAAAAAAAAAAAAAAAAAAAAAAAAAAAAAAAAAAAAAAAAAAAAAAAAAAAAAAAAAAAAAAAAAAAAAAAAAAAAAAAAAAAAAAAAAAAAAAAAAAAAAAAAAAAAAAAAAAAAAAAAAAAAAAAAAAAAAAAAAAAAAAAAAAAAAAAAAAAAAAAAAAAAAAAAAAAAAAAAAAAAAAAAAAAAAAAAAAAAAAAAAAAD//xAA4EAABAwIDBQYFBAMAAgMAAAACAAEDBBEFEiEQEyAxQRQVIjIzNAYwQlBgIyRRYUBwcUOAUqCw/9oACAEBAAEIAf8A09srKysrKysrKysrKysrKysrKysrKysrKysrKysrf/QFsuSAHd9GwuoIN4pI8ha/6SADMvDh1A0bZzcujYjQjKG8GWIoy1/0c+wRcys2HUGRmkkmmYGs2c95dRSsTWKvoGkbOMoPGdnWn+i7XVkAOb2HDaBgHeSTTsA2Y3c3uh0TXZ7qKViaz4hQtIOYTAozyu421Ta/6K5IAI3s2G0DRjvJJpmZrMZOZXdDrsvblDKxNZ6+hGQcwnEUcjsZc9P9DW2gLyllHD8PYBY5Jpco+Enciu/PY3PZZM+V1DMxNZ8QomlDMJi8RZSs/Fbb9Wx/zQYiPluDW4kXZ5F2c12c12c1uDXZzTU017LD6BgZjKU8o2Yt4S3ZLISIXbmzaJmd1lJllJ0LEL6RHpYq+hGYcwlSyg9n7Oa3BrcydNzKtzKtzItwa3Bo4Tja720XT8zbmsDASjPM4RMrQq0KtCrQq0KtCssSaMFmYU7xuv01eNWB1WszDoHlVIzOieMee9hW9hW+iTSgWjZI+bvuW55qdZqdZqdZqdZqdOVOh3JcsYABprt9Kbl+aYD6ZrECcbZd4a3hrOazmmORMUhPZqaMma5zzsDWY5TJ1nNZzWc1QORN4q7ohVJzWNmYB4N/NZb6ayaWZR1M4HdYdXDIGWTEKY5gzRGVRGbie+mW+mW+m676Zb6ZYKch1DseM+2TcvzXAfSNYj02W2szlo1LTZfEVTO0bWGQnkTfwuWzosP8rqv6IVSc1jvkXTY+myN3CTMOHV4ztkLEaAJgzCcZRm4n/bebTbgXuiWM+2TfmuA+kaxHpwC11TU7MzE9TPu2sxE5Pd75V/a57Oiw/wArqv6IVSc1jvkXRc0z7La6CbxGxBh2INOLAeI0AzA5CQbgnF+t22YE37kljPtk35my6rAvTNYj023Xl1VLUtZheeFpRuxC4FZ+a56J/CmTMqDyuq/ohVJzWO+VNyXRNqtFyfQYilNhDD6BoAYjxPEGhFwAnz6rRuXNNzssGG07rGfbrp+ZsuqwL0zWIdNgs7vZdlfJdPdjs/J9KWov4SqIGka7GDxPrz1Zv7sh5Ki5Oq/ohVJzWO+VNyV06s1lEBynYMOoBpwzFiWINEOSMiIyzH1sNPhZFSuRSRlEdnAeqwd/3DrGfbrp+a4F6RrEeiBnJ7NTQWG5Zh5Kpp7tmF7jzZ7PdqWovoU0LSjdSA8ZWVrpm/noqHyuq/ohVJzWO+VN5VzZN/cMRyy5Ww+iGCO5YliDRDu4jIiJyJrk9mwzDbs0sueMXyKsoRkZyEweM8r4R7l7Yz7ddE35kWzAvTNVwuTjalp8j5nqKhh8LNMTHdQTjINlU019Wy5XstRe7U099HnhaRrs4ZX15roqHyuq/ohVJzWOclfRdEEZSkwjh9A1PGzyYlXNGO7As8pu7tGV7LDMN13klRVDTjlR1RnPmahrWkZhKtohmFyDDI3iqiF8Z9uun5n1TusC9I04M+r1FQ0bWYic3umb+QfI/hglYxs9RT31Z/DzH+Wp5+hTRNI12MHFNyVDydV/RCqXmsd8iG2XWOM5jZo8OoRpwzlX1zRtuwInIrvbNoOHUX1yVFQEEbqapKYnzDy1EiEs4UFcMwZTGEGLOsZ9umf80EHMtMMgKCLWqm3YonIy1YWZPdcm0A3B7qGZjGzz0+bUX8D2WratTz9HljztpIDx86Hyqv6IVSc1jfJRQvLIwth9EMAXfEK9o2yRO+YrvrfSgw/lIdTUDThpUzFUHmd3T+J7v/aF3Es7YfWb9sh18DzwWCWN4ysX5hrsEXIrNh9A0TbyQXZ/LiHRDwgeR1DLmbWogZ2u3LR+T3aCfo88TSBdUwuOiruiFUnNYuBTPkHDqEaaHx11c0Q5Ac3IsxW10w6hy/qHU1QUsanmOY3IuHCPcEjIbWeuohqAzDKDxFlKzvqzWf8ALeqd1GJG9mw6haMd5LW1jRDZsIkKQTcq/pxjI4qGVjGz1FPfViZx0fy6qmnu1ia3Nq/ohVJzVgzeLEa5o23YGTm9y8zMDYfQWZilqaoKaPSeUqg3IuWhatz4MH9w6x+QoqfOGEYmM4MEldRBODk0wnCWV3azXTat+WN/ccbyHZsPoGjbPJW1gxBZjMpjzFgr+A2Va/L5Am4PpDLnHWeDNqxaPZ7u3KlkuGtRHnG63T57KGPIyxGfdR6ZnkJyPzFZsPoNd4dTUhAFlPMU53dc9Su/XgwfWoJfEXs7KIyikYhwrFBmbdyVtEM4OQyRlHI4l12P+UWX/RF5SyrDqBohY5a6tGIbMZnLJdy/rBvTJVbO/JhNllNZTWU1lNZTWU1kN0G8B1FI5N4p4WLVnEhVGL2e8szRkLPYfMgmEzytiwOTaNFJybD6CzZpKiXcx2CYppj13Rst2a3Zrdmt2a3Zpo5LrdHd1hIOEzu/xH7JNpa8RvEeaPCcVCoHdHXUQzhmGWMoyyl0TflF0EZSFZsPoGjFjkrqwY2cGMilN8+bpswV2yFd3B07gyuC8C8C8C8C8CuCvGriswu9lZrrwisYPyEA4ibQZVhRO8juT5C55AdtMzNoiKN+d4V+iv0V+iv0V+iv0V+iv0U26Hl8QExU9hf+FozIScHaQMKxVqkGCWtoxmDO00JRHqS6fk3JWuTMsPohBmkWI1w045FLLvHzHfRXZXZDIQ+XfGnlkdb6Rb6Rb6Rb6Rb6Rb6RNOfXfSdN9Io6k4yzKhq2qA1r6YzZzjMjvYr30TOYlZsOppGDPLiFYNLA9p6yomPMmnnT1Ey386386386386386386aedb+Zb+d0UkpaF1T81zfQDKMs0eEYl2gd1JW0QyjmaUN0bi9vybmmfKbOsPrRIWB8ToO0DvGlF43yn4ra3dXdCEp6huZnW6mW5nW6mW6mW6mW6mW6mTwyut3M2i3M6Glnktago9xGzvX1BRtkjMTz5i0E7phIyzNh9QbWilraIakLKWilhkcV2eVdnkXZ5F2eRdnkXZ5F2eRdnkW4kXZpF2Y0UJA1yyimyrKP0gDE9hwvDt1+sVbWhEDixyb2R3LXN+TNzXNRSPG+ZsPrWlCx4jhwzjvBlEwkcSTc1gQCUR3IKcPNakX7RftF+0X7RftF+0X7Rk/ZG1TDTyeQYgHVt/E2iZoZdWxiOzg0Y4cTxZ3wyP9bKZRxM93zinjA+e6hZbuBbuBbuBbuBbuBbuBbuBbuBZIFuoXWNRhHTXFnTWQi7kwjhuHDG28krqtoAsMsjynmfn+U8kBlGTE2H1zTDlLEcPGYM4EBRm4m3NYB6Zr4jMo8uVp5GZb+Rb+Vb+Vb6Vue/kfk00q38nWJ555WjWG0fZ47yYrijRO8UW+me5P8ADhmQFeSEZCYiuLeFDAAyZ2rOSzlZU092ylIGYbjJmF9czrMSzOszrM6zOszrM6pCcjs+O+zsmew6gDuWVsNw5gZpJK2sGILDLMcx5it+V81FIUZ3GgrRmHIWIYeNSGcZBIDyH8P+ka+Jvo4eauzKygiOeTIGGYcFLHmLFsUaFniiInkLMeUr5RwOlKCC5TSZGUk757qnlzqqByHR/Bo7PbVqao6FLC0jXYwcSV+JlReo6x3WkQM5+BsMw7dixy1tY0IZRlkKUrvy/K9OtnundukRlEWYaCtaoHxYjh41A5xwMCjGQT+JvoXTg5LS11DAdSTMGHYcFLGxPi+KjEDxQkRGWYrZy0wfDMrNJOFh8LV3RH5WVB5k7t1qqfM12y5dH5cqafo8sTG11IGV1fhZUXqLGwI4bDhuHCAMZ1tYMAZFLKcp69U/P8vjkKI8w0Fa0g5SEWF/D8T67tkXhTtbVc1yRaqGE6g2CPDcOClibNi2KNCDxRZnkJydmc3yDhGEswtLNXVkdJDYcGnOfMUldyZFyVB51VE4qGViGz1EOZrjlyvrye7U8+liliGQbtIOQrbLbeipOacBLzVlYMMTsMkpTlmL8x5qGQoju2G1DzxPfF6LtUF2OMoiyy/0n/pms2sMRzmwR4bh4UcTEWL4m0IvHETlIfitrkjwfC7fqzV1bFSRZWlmknldywHyveu5Mi5Kg86rUJuLqGViGz1EF9Ws7aOz25U9R9JSwjI12MHAlfYOqBsz2UEWRVtT2eJTSFI7k/8Az8wvZW6rqsC9M0czAVixPDRqY3MCjKKRxNvOooTqJmAcMw8KWPM+K4o0N44icikzlYjLwYRhIjaaavrBpIlNIU8rySXy6LAPCL567kyLkqHzqt5LmyAnB2UMzG1nqIGdrtlcX1/tqefo8kbG11IGV02qAVBCw+J2Jr2WMW3Gqf8Ar8xZdVgfpGviI3heKQcKxNqgWGXFcNapDPGNLOVRumw3DwpY8xYtieUXhgcTItWiO+RYVhQjaWWtq46SKz1E51EjlJswDykq7oiVB51Wck2wDyOoJmNlUQZ9WyZX1tZ7tBNZrPLEMrXRRuz2aGC1neWZh0VOV5XWMehsf8yZdVgfpmviZrbsnCQmk3gYRibVIZD7PHvN62KYiweCIjzld7FnyjhmH2ZjmrawKWF8s8x1BOZv5G2/D/kJV3REqDzqs5JtmVA+R1DKxNZ54b6tbLzv/EEzcnyjzUs2RrMT53d1Seo6xj0Nj/mTbMC9M18T/wDjQtrpFeI2IDxYypsjE7yPmJmzvZsLw636ktbWBSCqic6iXMTOm8z7fh/yEq7oiVB51WckyHaJOLqGZiazzw5m0fw+FC1nuwzuzJyzFrydUrfqLGPQ2P8AmTbMC9M18StfIgGzbQYieywvDmb9SSurBpYdJpinJyPh+H/ISruiJUHnVYm4RfI6hlzMpoWfVO1n4KXzrGPbLp+ZsuqwL0zXxC3kT8k/JNyUZuBLDK8ZW3axGi7SN45QeKTdPw/D/kJV3REqDzqrTcLNmdQxWZSyMLWRPd+Cl86xj2y6fmuBema+IPoRK2qv/CEihfOGG4iMoMMmI0AzjvAkjKMnYn29F8P+QlXdESoPOqptOFmuVlFDl1eWZhbwkTk93TbaXzLGPb/mjLqsD9M1j4kWTLupLLdn13ZLdkt0TIBkjLOOG1jyjlPEaAagHICp5Iyyu8MiaIrrdFZYELiLs9dyZFyVD6iqWeyyusrqxMmFyUENmu8p5WsxZiWV1Z1Z1ldZSVMzs6xf0V1/NcEMRjPNJuJPNkpVkpVkpVkpVkpeu6pkLU4+RpATwwlq+4gHnuadbinUYxR+WsdnZkfJUJWNO4PztGv01+m6yCy3gMiKJ1miWaFZoVmhWaJXhTSRM6xUxeHTr+ahKYeXtEyaol69olXaJVv5V2iVNUTLtEvTtMzEztQ1wyMwlNG5NdiKQXs+c05kiJyRckxOPl3hp5TQnIT2aCImbMVbWDGFmeqlIndPPKt/Kt/Kt/Kt/Ku0SpqiVb+VHKZjZ/z5kEhRFdqGuYxYSmhYxuzhl53vsJM9l1TNnKzU1Pka711Y0IWCQymLMTf6IL+ubaxm8ZXagrmkbKU0LGN2IXB7bC2Nc9GpqdgbMVdWjEOUZZCI7vz/ANEttA3jPMNBXbxspzQsY3Y2cHs5croGc3s1NTsLXeurBiHK0kjyld/9HAZRHdqGuYxYSnhYxzIwN3ytS07AOZ62tGIXEJTKU7n/AKOfnp0QEUZXHD65pRyHkHmq6tGEcoym5nmT+L/R7abG0UZbs8zNicuSylkKSTMSfX/SWit/682/E7/gmmy+z/un4dYlY1414141414141Y1Y1rez/ZWE35ZZFkkWWRPdvN8yz9GjkLkNDKaHBqp13FVLuOqT4JVo8LqA5lTzDzyG3P52UlkNZZFlkWU1lNZTWU1lNZTWU1lNZTWU1lkWWROJN5vs3PnyWnSOmmmewU+DE/rhhcAtoNFCK7PGuzxLs8S7PEuzxLs8S7PEnp412eNYzGI1On2RvOyw+GN6QV2eJdnjTQRrHAFpNOPRtsNPLO9gpcE6zx4ZTgghjDllbhsycBR0sR85sIgNtKnBpBa8ZRHGVjfZorWV1a6vpZckEZSeSlwg5vXjweAENDCK7NEuzxLs8S7PEuzxLs8S7PEuzxLs8S7PEuzxLs8S7PEuzxLs8Sx+IRiDL9mv/MUZzFlGhwkRHNIMQA3h2W+Vjfufsv1ssN9mPBj3q/IszNrEBzFYKHCLO0kgQxg2my7fI5Jk/8AdRSRVAZSrcKODxRPo+vPkm1ey+pFZlR0J1JKlooqcWVmZW/wfiH0Q+zf2oYyqjyjQ0QQBq3Ddvk437n7K3nZYb7QeDHvU+RBAU8jC1DQBADO7cvlvstssiDMNnxPDWd80WXKbiufJtNU2rrD6IqqW6ggGGNhG3+H8Q+iH2R9SX1K1zythlE0MbGn4eXO7LMyuyzMszLMyzMrsrisb1qb/ZR87LDfaDwY96nBZc1d7phczYBwuiGGNiLg6rkpauGNtTxyMeXf4rv8VFjUR846uGTk2vK/CTXayxejeGXOLeFf0mZ3dhbDafs8DW2sm2STRxt4jxSAeXe8S73hXe8K73hXe8K73hXe8K73hXe8K73hXe8K73hWL1sdRGLM+q+r7Fya6vZrrB6XfyOZNoy/vY6uzMq3EwhuIlilQb6d41fTt9Uu31K7fUrvCpXeFSu8Kld4VKbEajMppZJTuXHb5luOytx22C3jZYb7QeDHvU4Oi5Cn0FYLRsTb8+mibbLMEAuRVuKymTjBIRyPd2/u7LRZWdRm8T3GkxaSM2aSnqAnC468Dtqq+FpqY2RjlN435rCYd9VsTs2Vmbg+pOsSrxpgyjPUzTeZmFeJWVlZWVlZWVlZWVllutGdcy+xeZkzZ3YWw+BoqcbK23FqxoI8rE7mWY7r/nEys3DfZdDDIflHC6smu3c9au561dz1q7nrV3NWruetXc1cqmnlpDYZdkGG1VRHnj7nrl3PWruetXc1au5q1dzVq7mrV3PWruisT4XVNzkpJY/Nq3NdNlPQ1FULlF3NWocHrc7KjiKKnYD24th9RUneLuatXc1au5q1VFBUUw3mfkyCN5ZhAaWHdQCLWVtssoxRuZYhWnUmTJhZWV+CydmfnRVhUxMqeZpoWNm4Ha6xmneGoeTZgQWe6dteGc8kJEq6R5pnc2/r51msun2LksPj3laDIWyjZtnVSFlB3VbKU9SV/wDAghkmLK1FhAh4jGKIWszafI+IfdRrquqwb2TfK0Txg/Oqw6KdtK2gOmLR3zMvosvh/wBuXy8f9MV0WDw7yozJtG4cdq3Yt0PyebrBa12leI24cdizRM6LksB9G/FVtenJlN4ZyZ7/AHJlgMLOxG/BiUm6ozdOebX597KkozqTVLSxwAzJmfZf5HxF7qNdV1WDeyb5d32VEIzxuL1tK9NM4rm+ZYB6BfLx/wBMV0dYBH+jnTcEhsETk9TK81QRP8ny6IC3U8ZtSSb2nE9r7MUDNTOubOsCk+jidsyxajIJ3Nr6p2TPp9wd+iwUMsHDjs2UWiQ+EbfNbZSwPUS2ajpxhja3PY+zOLJ542XaIl2iFdohXaIV2iJfEBiVRG4rqsG9k3BdX2X4Nb7LWWMU29gzMz6OKwKQBhJnaeJb6NCTE12V9hSgPPfxLfRLfRLHZBKIcrcrLBhyUTNw4zI8VHp0+VzRLBZc1MwbX2VjXpjX1OsJn3NY1wLMN+GyngGYLFV4K/OM6GpB7Lsk67LULstQuy1C7LULstQuyVCemqGW6mbm7E3m+zdWWGNanbhx8r1AfNdErchbCqRoYGJ9j6K9huVdiwhcIyrqg9XeomfnvTW9kW8kW9kTyyO+hO5vc3s/LqsG9k3BjNTJTxM8XetUu9apd6VSbFKxU2MyCVpaaqCpC47ZhzxEz1Ue6ncUEhxaDv5kNRKxtfD3cqUXfbjcpxn4e0Su112iVdolRSmTeIfOKoGy0rcPxAX7Wy/j5XRPyXw6dyMeGo1pzUngkdai7WwqtGeLI/HZWVlZWVlZWVmRRAXOTDqeR7nW4M7a08kRReE2ZPzT/Yn6Kg9sPDjWtUK/n5rrDoHnqQdC2VrMuafmsZrCibdto73e7uteFnyprOzprMy6rBvZNwfEHojt06sz9HZ7rCat46lgTa2fa/lWMNlr1bVFzXMhWG+0Hgx7zpvLwf8AkjVJ7ceHHvTt8vqm52Xw57mXhm9E1UeuSH+HgmKmlYgoq4J4x/wXZl/yroY6gVV0Z08jodfsb62VD7UOB1jWlQLpuvzX8qwKHdxu/A+jLEXI6sszuyurq7K6urq65rVdVg3sm4PiH0RTcNN7hlG36I7Ha6fksZ99tbzssN9oPBjvqcHRD5gVE96duHHfKvq+Vye663Xw437mV+Gf0TVRrK+zpZU8pU55ho8YErNLHMErXC/yr7P+pttZSjPE95oihmcF1+xfwsOe9OPDj2lQK6fNFYcGWmHgJrqXCRlkcn7kC67kBdyAu5AXcgLuQF3ICfBAWK0jUkwCzsuqwb2TcHxD6IpuGm9wyi9IdvRYz7/a3nZYb7QeDHvU4eRMsKLNRs/DjzWp8yby/Kfmui+Hgs5FtfZU+2kRPmJ328lzUVVPD5Y8bNuY45/PfjLvtl32y77Zd9su+2XfY9WxoXfWLEqaRBIJ8nT6cOOwNG29a1ht9idYOV4OHH4ru0iDlf5rfyqL2cfA6v8AIfkviDWpju9unVYN7JuD4h9EU3DTe4ZRekO3osZ9/tbzssN9oPBj3qcJfysDO9GzcOLxbyism52+V9SfqsFiy0glw1pWppGTdeC61+Tp15phcHuNJiE0MjMVLUDURs7JuDFYt9Sur3v9i5svh+W4EJNtdYpDvKI1lcWs/wA2j9pHwP8AK+IPXDZ1WDeybg+IfRFNw03uGUXpDt6LGff7W87LDfZjwY9524eiwKTTdpuCYGOMmeeN45jF3+SzqIM8mVUMe7pADb12YxJu4NOC/wA7AZiaYhe2vDON6c031/YmWEzbqrEUz3a+10Q5hs+JQlDUkv8Any38qw0s1IHATs3OTFYIzcS74p+nfFM3PvmmXfNMu+KZd8Uy74pV3xS2WK1MdRIzjZ11WDeybg+IfRFNw03uGUXpDt6LGff7W87LDfZjwY/5m4Oi+llhE25qrkPK/DjlK7TtKHNdfkM2V1g9KUtRvHZrcOO1Gct03+Fg9yqLN04Z3tCa+s/sXJkJbuUTVBLvacX4OqxGkapj0mieGRwf5fNlgE+cCDgJrsq5v3Ui5NpxOuezqsG9k3B8Q+iKbhpvcMovSHb0WM+/2t52WG+zHg+IB1bg6rqmJxyu1BPv6dn4OaqIhmjcHrqA4Cd2H++OlpiqDyqipxpomFNz4JpN3G5Ksk3tWZ/4VrusEpN2zyvw4rJu6Z3XV3+yYLV7s92Tvpo1+XBV0EdRdT4PLHqHYqzMuxVi7FWLsVYuw1i7DWLsNYuw1a7BV2UsU0RWk8rqgmeGpF2jNjBibbi9FdnMNRfKenyeqwb2TcHxD6IpuGm9wyi9IdvRYz7/AG9brCXzUIvwYtTb6HRxON3F2/u2qvrtwasyluCZ9OGWIJRsVXg13vHNRVELqzsr7Rjlkew0uEyGTOdNSR046Nrw41WNGG7Ydb35svpTM5kwt2Kr6dirF2KsXYqxdirF2KsXYqxdirF2KsXYqxdirF2KrXYaxQ4VPI/jpMIGLziLAOUenDjszAGVN5c32QScCzNhlW08DM46cT/1xtyWOO+8sr5kz83bBaxpY92V9rixNYq3Chm1CTDJYiys9HOy7JOuy1C7LULstQnpqiyMDhdmkXVYN7JuD4h9EU3DTe4ZRekO3osZ9/tfksBk/ZsO1k+uj1WGhN5ZMBN+XcErKrpCpCbNsF3As44XXDPHlJ9U3CYiXN6CmdPhdO67rp2Q4dTc0NNCHlt/GvDW1Q08LuppCqJnIn/+LNsonbtwM8beBvn24aiVoYnJ6yoeoqHN308H2TqqapKnmzjSVYVIMTfOx31UOjLkoZCglYhoawJ42ZNpw2ZaLRWVlpey+I9JgtozMuqwb2LcHxD6IpuGm9wyi9IdvRYz7/gwepyT5HvcbtxfENs4W6Jk/JQzFATGGH141EbXZ7tduDXg12a34ayrCEHVZVlVyJtPCrZU6fRUVu3RoPI3y34rpkZsDa4tiDynug6WXMfstlTznAd2o8WikFhkE2Jrjr8p11WPetwU88lOdxosTimFmJnvtbj+I/XjXJM7LBvYtwfEHojxU99+1or7sNr8ljVu8OBriWdsMxO9glEmJrjw/EHnBdNnRNyQGcRXaixfIzDJDVxTt4OO+260Uk0cbXKtxgWZxglneYry8HRUOtaCj8jf4U1TFC1zxDEyndxD7PyV7rVtWgr5YX0DGzt4wxqC3ibGaVd8Ui75pF3zSLvmkXfNIu+aRd80i74pF3zSLFKuGoP9PZey1ZM7iWYaXF5ohyvFjEL+q2K0a70pF3pSLvSkXelIu9KRd6Ui71o1jtRFUTxvHqyfndYbiNPBTMJ980a75pF3zSLF66GqiYYuGHKMzEQYtSjGzO2MUnXvmjXfFM/lxKcZ6nMO3knzcxpMUOBspR4zG/m74puvfFIu+aRd8UixeqiqiHdJtj6LNomZ+jSPGV2p8Zmjaxx41H9Y4rSEo6mI/KxX23/kp4x5yYhTA3ikxiFm/TmxqR2sM1TPO60Wn1beibUVSm0VQJOGL0rAzF3zSLvmkXfFIu+KRd8Ui75pF3zSLvmkXfNIu+aRd80i74pF3xSLvmjXfFJ0PGI/pnxo/ommkqTzFdm0X/ftDrmuS8LqzLKysysysysysysys11lZlpwMnV1ZnVrbLKysrbLXVrvdO10/JWayZmsrMrMrN04dFlayZmsrCsrdLa8N+is2zKrMrMmtdWa+2yZ9jt/F/5Vl/zeSt5WqKll2qpXa6hPVVCeaYudy+pWV1bhZNoydlZlZlZllZZWWVlZlZlZlZlZllZZWWVlYVZlZclzTNldc/8A8f3/xAAvEAACAQEHAwUAAQMFAAAAAAAAAQIxAxARICFBUSIwQBIyUGBwQmFxgVKQkaCw/9oACAEBAAk/Af8Aqwa4lOBa/iaKmAur8SWpW5/iVRa51+HLXsLUp+GV7S1F+AITExMTExMTEyItb0LsLUQmJkSJETExMX3ZJkURRFEURRFEURRFX4GGbAwGhkURQoiiKIoiiKJFC+7vAkSJEiRId0hkiQ8ksCbLRloybJdRPD+hNrAmy0ZNloy0ZPFfhzHhIXUL8U96PduLU1/E11M9+5Ur+JLE1kx9W48cSp7hffFcr3cu6tR4tjxbKi14Gv7C1F97r4SxbNZFR6mrFc9R6i6ha8/fa95HvdR9ZUqIrdUeqH1Ffu+/iLU9w9St1R5HqVX3ValfDWpV3b3LErwOud4HuFhh9xQtSvhrqKlRa3VH/g/xneDxHhMqL7jUfgq73GuR3V2z1H1FSv25a7FSpTIhCEIQhXIQrt70RYhEWRZFkWRZFkWRZFid9R9aF1C1+2LUrkY0YGBgYGBgYGBgNDQkYIdLmYMihocT0npPSek9J6T0npPSOI73hJD6hdX2vU9zHXJJotGWjLRloy0ZaMtGWjLRk2WjJtsqTeKHi0VG0yTxPcTaLSRaSLWRaSLSRaSLSRaSLSRayLWRJvJoz3lftb1RVZI4kGRZFkWRZFkWQZFkGQZF4lSOOIqlRaiuhiizLMsyzLMsyzLMsyzLMiIVy1NJD1up9pepVZEYIlElElElElElElElElEad1pEwkKpUQhiEhISEhISEhISMBIjeqi1Kj+1sYurI6kmSZJkmSGyQ3iNvEeo+olqPc2urc9Mj7VSrFqPUf256o9wsH2l1C63UfUPqd2/h1Frc/ttLnqaT4F1m3YQuoeMnUeLKi8RaldvuTwHqKudYsqPFjxbFqV4NZcD308JYlfuuxVCyLHEWNpux9XKHq9z3CPdwPEr4b+7Nai1Fhchaj6h3LXYrsOt2rb0/CXriVF1kesXXuV3NWIXVse7Yp+GvDA9xFYj13KsWLFqe/ZDyc/hVB+k0lyVFqLUevF9L+e6/wAB14Kjx/FNGj3C1/FKnuF1/h6IiEIRjctSJEQuwsy+9swZgKIoiiKIoiQyKIoiiKElnwuY0NDQ0NDQ0ND+7PAkSJEiRImSJlRjJDHfIYxj1JEiRIkSJEiQ/wABfaeo/wAMf4s87/EHernqP8Set1fxSo/9hZ/iy+mxZBkGQZBkGQZBkGQYsPhoMgyDISFh3UQkRYySJIkjUgyD78WQZBkGQZBkGQZBkGQZBkGQZBkGRa+Ipcr0RRFEURRFEURRFEUL4aKIoiiKFh243IiiKyoiiKK3J9lalLkRRFEURRFEURRFEURRFEURRFEULD4hFSK+gI/4Ipd6KQvVHOtBYv5nYQtfoS18KJtk9qFT5rcq+wxjGMYx/JrqzUJrHggQZZsXpLRdhaSqb3VP5Z5IaYvkv45qjJkiRIkSJEiQ/kVQpmlgiWuVj6R5lrgfxuos76mSMR6fJVa1yvqY9fCiISEhISEhISKu/DASEhISEhISEhIQhPJRCQkVypCQlk4y0H07dl9JvmpLsv5SmakfBWhUgvHghYHtur4m/aoUdPoe2bfwFoJY+Sr6eLs+1ubG+XbsrQXzH8vAWiFrlZNFoi0RaItEWiHj4NbpImiaysmiaJolj2N+5tl4up2GRbLKRZSLKRZSLKRZSLKRYyLKQsPnKsWry1RIkSJEiRI2zvBkiRMmPHLxcyRLKyRIkM5zc93bLxe9Vp2MBISEhISEhISEiJoha/DceJSOV1K9/nN7fC58ji+g9fDWpT4Tk48TfLs/A5z8eDz5HGRmg/CqL4TjxOMjJVJEiRIkSJEiVSWbnPx8Jvl4OcmhJkSBEiRIkSIsCOhNYjzqvxO3f48XnPx5G3c3y8HORDF2FiaDJPAebY2fxHuNu7Q48XnPx3Oe3wVb7e5tl38N9O2bg/1fB0eZdLfe2WXYYxsbGxsbG+xzn47nOajN8q07dE838fD2zcHPxK1Rt3dsvPgc5+O5zm5Nsy07O5XLsUfh/wAs25z8I60zaSMZFiyxZYssWWLLFliyxZZMs8Fc8E6m+RaiwH3uc/HcWpG55HXMrrNsWSBikRWOZ1y2LaLFliyxZYssWWLLFliyxZYssWWLE4j9RTM8f6FPhKofX4Ww9Vl0ItlkyykWUiykWUixkRaz85+O4jRloWhLHG+qHqs6LNEEQRZIhnepQ2vXje0p8LTcfg7jHrmSEIQhdjnPx2Hh3GSwa8GSxKG5Xx2PRXV+GY+oa8F6D6vC5z8ZOMlRj07bKEu6yo3j5LH0/FtsSJakyZMmTJkyZMmSxeVixRLAtCZaFoWhaFoWhLG+WBMmTHi8zJ7EyZLNoa3SJkyY8cM82nwLS6ZIavwJEx4iG8B4vsT1JkyZMmTJkyZMmTJkyYxakn/Yr8WjUiK5CEIQhCF4Gw74iFnVyI3PsoQs7I3otGi2kW0i2kW0i0Y8e6hZEIQhCvVzu0Nf/H+//8QALBABAAIBAwMDBAMAAwEBAAAAAQARIRAxQSBRYTBxkWCBofFAseHB0fBQsP/aAAgBAQABPxD0bly5cuXLl6VKlSpUqVKlSpUqVKlSpUqVKlSpUqVKlaXLly5cuXL+qWVKlSpUqVK/nVKlSpUqVKh9U1KlSpUqVKlJSU6BSUlJSUlJSUlJSUlJSU6wKSkpKlSpUqVKlStX6rP4Jq/X5qdFSvUNX0alSpUqJq/UdSpXRUqVKlQ9G5elSv4Fy5fosqVKlSuipUr6dOo6qlSpUqV/CqVKlSpXU9T9RHUan/wnV6n6gqVAlSpUqVAlSptLly5cvoMkMscOlNXON8xxDMSuq5cvouXLly461KlSpUqJKldFSpX00dR0VK6zaWu53QIi3AlVoVvuiIIDvCmJUu/XqVKlSut+ojqPRqVKjlxFoggsWHCt5pgBsO0RUluEpYqXZmVXVUqVKlSvRep+nalSpUqVqEqVNvRMyy6Z4Qw0ZYPvLiCAoZBj+sg1KS9pjVEu52I8OqY7FbS1s5mTc/gXLm8rqqVKlSuipUr6aPUGpmuUCBCtwV7KxvgeJbjECoxFl74uPPiOlBAxMQMytWVKlSvWqV6j9NHVUqV0JbiXSC9xgix5RGlJxOwmKhiG2YrtxBMVovRi5SzCneDdtjmvUqVE1dTV9N+kqlSumpUqVDzK8wHvKe8rzK8ym94KIwOSDQzARwyTEIJfiIrMFGnaVjmCWObGUVndI5YMq5Mzbdiy59p9oKJAgbeKglNwOE21dLhmV016b9N1CAWzXaH+dH/Kgn/VP00/TT9ND/On6aMNlPid9El4eagTIwGMsZcQspts7aO8IAoxajG01i7fE/TSj/qnfK9p5nxPM+It/wBUOf4o7B8UuuIWbL2dR/BfpvjQaspyTcvjn62fqZ+pn6mfq5+pn6ebn8UcbARG1IOkDbBLUJajNwJxEgnMeSAYL0mLZD7Tjn7Qf/qn6TTP1kE/6oKQ/wCIykob0ZL+O/SZ1hCBmflwK5aFG6YN0L98e6lrfUEoghD7xqmYlRVO04d9Me6KVHM2mdvGmgUXiYX90FX9kpt/JNhr3h8HuixjDA5jkZcx3vzSzJ8kNsX3hlr5J3fkjuCNmEw8zgj4lSvWfSfpA6yEN5+TNsm0ylVG2MUZhUGWmz4iy3McokGhfJ0NbeDhCB2QRMkOVUh0gYL5jo1C17xMAHeIjbZLrTDAQq5mX+xP7psjq6vpPpP0gdZCG8/Jm33wcTMbi8oJW8BTpiNLufklXC/CGgfJ0P34OEpFnEyUxSWe7HDTYh9KSlCAFLuMpB4hmHPMBifan902dDtq+k+k/SB6G6EfnwYnablztl7EQxGGZjgI1kQdyDhzMCWEFe50P3NHNKlN0aNREmLrG1MXaIaoVhmYG08zD3TbG1i5+J/foNv4Dq6vQ/SB1k3Qj8+PE7wWCcTmCl4uK3vaVhYnHPiLARGBXiCDUfndD9ybsKAd4HchkLmBXphIjKzxHxFY8I7Z5JSb9cQRm2QjxmGC0pYfif36Dbpr03V1eh+mAreG8/Nl5rTb2hBWfMb6pDWwwJRzHgCCR4AjTYhuSoiuE/M6H7k3IB5IuMWCAUYGPytiqgtziIy7iGhXwI9BdyB1ZqoJmrOIzqUyvOan90qBjR6H1XV6H6WJVsXBC6g3u8FBzAcNyBsFtrVwFymSUUiIAIUh5htcdqbS7RxjM/c6H79xrUIDRMMcAqscQuTfuLXtm5AwBPMfaPFUoGVuDG9MhipdAWwwMgcZ5hQDu7xsgd+6f3wtkUxo+g+i9T0P0maJBlBGvvRs4IwTMZNzLyVuU+6lCFcDgIkYWo0c7sdcTN3MPc1bqRaZSuUZJd71BAFWUdCeSRjeqNgOcei07kLLAGCIll4hzceMLVImCBM3ENM+Zl98qKY76PoPovU9D9HVK1IErMe8MgWY5ozgUXl2liWJsMSa4lHcQJBbclVCZigoSFB4LpI0gm5ejziJte9oUK3DZLGbidrWGIrl95sBtQ7HncJX0AMEtqM7E2EC5g4U7TZ7jYhFQW6I1hizGpW75i4KSYq4FkWmGtaV1V0vpP0ngysXC1p8Q6PdTD0WDiG5FR13jhUCtRQcRbAU4WokqDeXqIZDcNznmUvAHNbxGLZcRrl7mK764igsOzGOQriECAsECjOrO0/GgsuikKBiuZ2qiPYEoU7xKa0eg9J+myE1ENoV2h72FjRzsI6y24gskKjqRBjJTOZk2nEKIKAQLyBkAuMdXctf2g1gfKJ0tcnESLa2uC2JtjCLd8yhUQYIxHfEXTaXZACt+rO0/DgZYjaGyAoHdhggSWuVdTCd4srvo9B6T9McQLLgW7xw1cw2VAwuWDyFrA8Rm4+ET8jFwypzLjDaDZdTPafafafaZldyHWBAgAyDRVUIdkLMUhxDdEclgM48WKotcMAW8TBG+S4zwUIpcl4gVnniYW4N3aKN5MuXHKEN07R4XaUzG7eM+Bsy9GOLeYMRhcDtA7xKobTmYSsSupNKlStHSpXXf0eJVS1yiAhTspCIORE7lsYjB7UGQglvMr6ME3fEu5fE8z4nmfE8z4nmfE8z4ncPiIND8QCJAnIlsC+IximYncCXjW8UrdRDY+0S1V+IGbLklunbFEeNH2nC+Ofp5+nn6+fr5+vn/Uct/q4HFZ2hchzcVl2yzSWsgGgNK8xMABdx6gDGvdDW8d+t6nofpXdxGhUOAtw83Iis1sKiAmzMGNJaNwVYZ5YpSv3nJTbzN9833zffN9833yDzNnMh7fLCoI+8GowvCtkYch2MeNylQ21vdjxQH9IJbsIeYFlfeFFH9YU3/rL/APZL/wDZL/8AZL/9kv8A9kH/ANkL/rElg+8o9c8MYgt4pK3jNk3jmVUDEZOypQRiKwqYp1vU9D9KO0Cg94Ezlj2yrZlHNBgmwJ2SiRa86NZvLX7Yytt+eL2fLKd/ln7mfuZ+5n7mfuZY/tx5395777wb3gLCFqnsFIMa3cBYBU28QQt4oYMs2QWL62YIgA12GB3+eJ4vvP2M/ZT9lP3U/fT99B3/AHRH/tlSvyzA/wDLAq6QCWsQLOziCbBdiVH2kd4PCPwhljPEqVK0rR6q6alfSTtDAJ4AYkQNQVtFglc02LljIzzTzTOIm9RiKyiyUbt1d3dmzyrUgUK2SjiTmMw2Zl9NGUhggco2BAVz2QJIXZY3SWmGANE0NRbn8TvP4nYfxPN+J5vxPJ+J5PxPJ+I978QXn8RHl8TE5FEaQXpESyDO8JXXDqPghMmdgWZdh9nW+kaur9HG8GdQLZlucjBxjZTKgm57wW0DvONDOtmbp96WZPnlrl+8v/TL/wBMv/TL/wBMv/TDg+Wbp8sMPsURQCXrXdrl0qeIFcvZKPbLqCLLOGAwCcxBCld4lYvmO8kzA+oREzCYlxBtmmOzMsqziBrjMREqrEIZ7hjhOyiPLHiBbtLzVbdb6Rq6v0eKKnMJgZ2lbQIHyvMaC5XCTRO8CeMKX95kMWzmUU+SU7fJP3E/cTeJXvH/AJyi938w2uyZhytaE4ijYpnM29Wli1G73iIzBmW7Y8Z2iE6Ubzg9IZA2meMy3Ez76eRnnZXzPPPPK9lg62sYJggvuXDpPgwOC7NTuMEYmp2jCxADZH0H0jV1fpAlhvDu2hNUBlAFXMeFRziMqy0QJd3m33x2NMTEzi7E2JvLbwkpTjELCRu3DDNO1iJUqQVqx4VOc+/yjDi4JC8x1SBsETO3lmacxJXknZNsxb6OWkDRzcNAV7Qe4guNnLqolVTMCvSfSNXV+kCH2IZEUKzYJYBuu8E3NiGJgbBD6RVR/nFw6L+UQWxIyXxCkNLV4gAAUjiXrWXmKDO+AIuVeLlKgDipspKiSzebWAq4pdiXa1mW08qAjvMioYOjlNyAyVWffDYgCDKEQrd4rgRBTn0n0jV1fpAiXvLxXEANoVCCF4gQT5R8mb1Iyl3zMhyMt0bIc9olt7ioURCtmQ4mIDW2+IPxcWcRQtlviB7P9oTWXKOKgKJtJVwPGgzM4fEcsagBbg1nxFKQXcQW1fvKCF1FRENqjSOdpfECrQ3YxGbAHeNiU2COnVNr05ubt8+k+kaur9IHRVwoVAaNRQyZtDx2RYwRxctrnBRW6ZRxTtlWcQsCEDDr5Iub81uIUIWsNcxyZjkE2ihBpQNyMWtsyuFuxoNqKn7TZCTeIeSEWalCbhS6kmAlxwVtM8TaACx65EPvLqjLGZIu0MhSvVfSNXV+kDofkh3oN0ZgXmFzhUDCyBLjNUd5nlGQJdNSpIZlYOQspSKnIsCQ78Ri832jCksUDiPkVSuxhgQ70RwaDan9c5ZUVAdpzciM4o0qDTZGw8ejKx3xBSPdBvBKIqriEXFtxKC9oyj1T6Rq6v0gdQi2He4/oNquO0BNotNheIJdlRjEPAsXfvAYZ4h8pXvABWt4nnQCWgBGJFgbOI7TiZ3Zzo8pve03pslCZjXjAAwhTLsQKAgPO4UoNCIswJMRlz++M4dR1vpGrq/SB0E3aPzpzYXtLktyiGHAYmGIeajOZspxCdr3rlAtLUXvKpl0ChUFpVd12i4ccMdpxqDym97TemyItVAJmNYTnRCKMViJe72RgNmXYBAgIoytE/vjOHUdb6Rq6v0gdO6cz8qOwu1xdvKXjI7RSKBUfdi8xxrcK5lUv9jHKBrRKpkLwShyY7d5gjlbHaO041B5Te9pvQNQUZNSaaCAsMKlG0WAqTmO2yDYcQrM/vjOHqvqur9IHRxN05n50uHzKCLmIVZKUZSmWz4RNg1oDiOmV46OI7T8jR5Te9psm3o8RQYFbLkyyJbHcnM3p/ZD1j1PW/SZ0cTdo/Olz75QBEYcwLFqhtvky4wnK8MXKO+bb68R2n5Gjym9BiDENdm4hASuWOOcFGXmO5OZvT+yHrHqet+kx0vTeBmczD3pVPfLCRG6KILd4ZWt0ZohGbDiEWiMwLhmVxN0z8qbHNl95uHiNBtCGdpUYK7wgDGZuircZxBTmOWyJzN1nBzcO0XNdN+gvU9VxfpcizCHXvQXMpiwVS7dv2nnfE874m7UjCACBDz5lSA9olY01AuFUalUTeUBRLYyDxhte0dhATaYdoQF9oXO6IXFqAlVpvHMbiCG0ykiuMzjnpfWep6H6UIS8yigblEvR3nik79r3eJcS0xVG8F8RuAxVQXmWOZK8/jip/xwN+0StmChAyNYm+iUmanGqgYgjcAEvUkimZAkLNQAMsO1DEpY9MuatvpfWep6H6MuXL6LlwalyswGnDvHNThN1h3c8uefFSrweLVAm1JapRuQuK5rEfspcJ7xLBaY5aFg7I8TtBrwYvm0SUuAFMMWo3NNwFXF7OY988+ebPNgYl4F3xvu8u/ZZRjM5ly5cuXLl6XLl9Fy5cuLLly5cvpfpM6H0csMMriZuTKl5iti3sIaaEBydo5BBxeYlJwxEkGz+CdDpx1vpP0mdD6BOEGxAR3EH50UbrETIaVohYCCwzLBZcRW6jEXZgj/AATodOOt9J+jLl6XL1vS9F0uHVh5jmGIAQQgSpzblbIXwSgNsIHmLQDHq2cQ85iZxjoqVK9BdL0HS9L1uXpcvR6HVZcuP0aek9N9YCUwwqokRbKOC6l4FSsuYNT2xQzfmHbiXLiy5cuX1Or0HpOr0O2r9IHpPVcuXqOYLtFDRhhmztBnYMw4wxi/ZRH7bubF4jgA1fVeg9J1eh21fpA9M9PsRzFayPbJa4CnjETKsMOJ3Jx/Deu+h6ll6v0gemdNy5fVcFbxywwcV69y5fS+m9T0P0gemeqOcxLcQxvFOP4hvo+m9T0P0o+ifyb8dd+Jfj0jofSfXqVKlSvV3nulhzpUviptLHmUcfwlSpU+0+0+0+0+0+0+0+2lSvVfSuX0XLly5cvS5cuXLly5cvTCXpbLZbLZbLZcuX0X0nQ+k+vmZheiML9S5TK5MyaNzG8BN0vshV4p69SpUzMzJLly5cuXLlzLMzPqv8txv0WdyGTBc7CfaP8Agyv8cr/HK/xyv8cr/HK/xz9PP08UWa89RqdD6T64FpO4T9XGj/jh/lQPS+4l36dneYMr7RqvhSqoF7k4PBCSe0qOYZP4Cb6fYjtj7kRNxIPpqG7UFdi4Lsn2n6WfqZ+pn6+fq5+rn6ufr5+vn6+fr5+vn6+fqZ+pgNgPc/hH8TG/MzO3CMHewkvPcmQwPEOZJ5hGC/aB/wDRP1E/UT9RP1U/VT9VEf8AVCg/qliIxx6T6T65DeCxdrl5J5qZv+KP+NBI/jhOrLiNVjq3g7Ep3je+/tBjM9ybNn2lDVq7wavjSvb4JR2NaItuH7RZn4YWhPYiRKQmKwjIqvEdOI1zApMlkU5iBcpBUFRYEV4lEivCVW7UKoPxAv8Aqn66frp+un66frp+un6qfqp+qn6qfqp+un66frpQ6L4JVQ9V0uHo3Ll+jQ+8aHCXJI8wU74MIAK7EClVlDtPdMExMTExMau0t8ei9DofSfXIbw/LHCyO8rMGHv1t1iFosy0xmeCvKBxw5CBRjMs5YdYlkUwZRcMs2DEUoe4RNR3GZJcTeIbkGimOyDhxEwDmFlQeYbI8hKGACe6BLJiYmJiYmJiYmJiYmJiYir35dsDHqup/BWo43mZzlBleHNQhQysVVSubnEJcEetlz+rqOh/kkN4j78ptTnaO+mz7ytbzHEqG0AlRYbZZMMCvEMmSVLBySh2leYOt6CyrqJ3LlOJdu0bQmzjMaGLaIJ7d58RyvIIgRvHExkqZYEYRuczYXmJGDjMoZYSyWSyWSztL8S/EvxL8S/Es7SyWSv34AZY49I1NTU6Lly5fXV/aKrxBaEGRWuorACzMaTecXHaG1RLKIPJEMhc8CeNPCnhTwoobZtYzNsiKDZWrrniU6PVUzMynpqVKlSpWjoa1oPn0XMd9Nn3m8qVKVfaHKCeEKFV7TOVF3MLnow03jbVYYNN3S7EajZiQDlI+H3zDzNeLiBasm6qlPeGoMuY6zi6R0e2Eqi2030jDOMgXo5XFd3B+JfCe7Fa9kZn7O9zwHzPAfM8B8zwHzPAfM8B8zwHzPAfM8B8zwHzPAfMoVwxAAjsPEd/ROi5cNT1rieRCyt4wvCsuAIDEcMVZFRGwWoEiz2jBrJlop3s+r9t3ynKcz5q6qktZZlMplMplMpleZmWy2UsV3lMplMplMplu8t3m3UqUxvv6LmOgx95XaUymNiO8cfmLLyzmScyqGwTCXFZerQB7waPLLUu9uBYR4hbIZjvbgVZXmXQ5HGhRztDfWwMSFtiKJpUrd2lfLgQvBRDW3DiUvO0qY2CWucezANuXvKTCvd+Z735nvfme5+Z7n5nufme5+Z7n5nvfme9+Z735hyOCDA3YehcuDLl9ZKlelUqUu3Etw7E5QxmFQKxUFdO0tN9o0sDcZI0QuCMBiNGd0tlstmZmZiy3HchjeXL0pdRKLmTQKx4Ez4lOVS3PUZmJhZmAzhs1L4ivEoHb3mbqIhEQiJaCbL3NzfsREoHuTzHFnQgBwZhMEjQM29G8rMrQGBV3mdrURKFAO1Rb+ywwOS4YKhFyxQbRXEMEG4+NCYSg1SEMrMHG0VKHebOI5lIBTa8ROVlHkulxXq3c2DtAqU0Gs95jJi4iU6FxKt3CISocQhz+8od57bdFSpUqV0cT7iWmG/pGp1HqXLl1HCiPQb8wy2jVv2Qu3kvDaYl3n1lTaNJnDDK1cwIy7qYKtTxADaiFJjqqH4JyhB+aBTLJZ1URL1Qs3G+5HtL8EvwUO8CwjjyIK96G3VUDzq8ccg7Mo6YCGg7GrHEFLgZgqW7+hV7xxPCPlkq0pxqy5irZmOHeD5Jz0PaITukNH2ZngKlcr/JNTruXLly/SyywUsrEN3Vc1Cts1MA775t1XLly5fQjcXCSIi1h3yxviJWQtgncqAViVKlSpWn4E5Qj87TExpUrTEueazMlbJx2g7ipvKINc3D2G0z9+G0566lQZ5ySsV36C7xhaoYpdiBHO3oEYrw1bM8BNdkXaWetixwOywgzysroYIR2iBrNxOGEWrGDhz/JuXBly4MuX0VKldFSunEDdYrN7w1d4yHCAB5eJVSpXRUqV0ZeINr4h9lmXvAYSkAyZfESMvu4jhpJuXyT9rP2M/Yz9jEd/lgxwHEEc94MfnaUQpYgZTvLO8pLIU6KCcR4KlFZDU6OVmwKphMisUps+Y8aPvOEmhaXGaM95k/5p+7n7uBgeyZDuj8re8NUyx2rK1KBXvnDB6FXsy7W7kK5ud3jqLKibE9luBh8sBf35hphyQbNLlTCOiHEWJTwRVT+CA972n6ifqJ+on6ifqIIf8E5g+0dsvtN1V5gi4iBzCnmOIN+qdR66fJPfxDVlC7Ebx4l36axHQBLr4DMQ6zBvBAqOlm8QzgRtfmIqoLm8kOdfMeBfM8z5nkfMyY+YaZYpCIR+dCEMLLxg5ho2qWAnY0glAhPH4h5g3cqGCvKYCq1gmHcQbtnzL5MsVDMN6m0u5lAZhlT5nlfM8r5leZmIvMCUht0mW/s9G6gUobwju8NedDR84cflSbt5u4bwmDBiXE1dsQGsxF7fCU/wlP8JT/CU/wlP8JT/CPZ8E7nwQ/+lKIFlxV2IsqpzDveKoyMeqevcuXLl6OvuIKfuIbarvpBlHaXLl+iVeZ3PEJpbZgAWCWEypSo7ykrjiOWL5xVYFTyiEolSoSiDeYKEI/OhDed4WAGUxGb74qE8ICzGItoqjskTNkUD3m8d4dJtUslYmlbT8uKBvOdLNfMuV1rFs5DthsvBDbXmZe5OT0rsEVXTZeIaLp+clMm1sWHej9NHMtIXMyhyR6LFlTMqVKlSojxNt5hlSm5TsLPMUWDjUKaaQc940NdNy5cuXL1JcvoNbly/SxexFYeENtSgppBtp5h6bHmEKltzzxA1FjzUvM1gjAKyRK3tKedJEpKQG7A4YiAyQj86ECG7pmzVz4g15j2cZJcN8IFFTA8QZTOviVfM8Q1n5m+nMrTH74YK1d0G/xDrNqhrzBvi2O0d/QWo4BvMohrHbVJtMfeQlPvHJUMJZlsbnaWDIOjSA0uUdTiUjtiXRAiWQWZJUS4VigYe8a2BKMhx6R6J13Lly5cuXLiY90M3YQ1d6gS95vQ4ht0X1hcdtPeE8N4NbfCU3LXOVLfj8Z/7k/9yf8AuT/3J/7kWTsW0sbgj86EIbumbOn80n4rV3T+iE5n5emd9OSbfv0chF9k6XGrvPvOpnbn0aubBFBeJibZrgQ2ipuznus1Eyq45WZSgvBxcGDObzHgnhzx5488eePPHnbYxgO6VGLsmZJOJk0xUwQ21W8TdGdQyHOfSPRPWY6D3mG7EN3XmU0YM3VzDb0xqCj3Te+MNtaGZw8zlnt1blQDOBDYgj86EIbumbOn80n4rV3T+iE5n5emd9OSbfv0OEZsj3lhq8y65jcwfcqO/oDUCxLoZinZqlzxPcTBT7muAurjftgcIUi/EqVKlSpUZjjQ0m8JFBLwqi1McxWa4ggc7pseaPVP4j4iGSWszeJudbVjeEcLpiJe9vgiWemsHY7o8PFYamypsEwkCjqChqD4oVWIR+dCEN3TNnT+aT8Vq7p/RpzPy9JzGO0DdDrRWY5pxEQHbMVmqWwO7ygtUlIEKvMBqCG/VS7Qls3Igb1xmNxq3SG7EvVbZyvd1MNkU76XL67iXo1edp2mQTkhqm8Ib3zf329U/iuxiKNJCIc62uyE22xSaYUwY2emlx190E45CGoN8ImjalhkmwS+pEzI2hZFdWYMVUI/OhCG7pmzp/NJ+K1d0/o05n5ek5jFoi6M7o47kMEoKlUjbLXmIVMSQZgbneUkNJ1G8C12ZTzfEAUasq4YNlZht/BwlMHcjMbpDboKz3wwHn6p/FYVBxMgXjVajaE2iYwUDtv0w1DNLye2GtgVxMY2VDQWlvM+0+0uXLibwQNzxH3hH50IQ3dM2dP5pPxWrun9GnM/L0nOlXKFgc1qbCJaO0YRSBhDuwNbzHDEEkVI3zLEbWEsXqupVI2pWaqZlrasB/hEVcmP4VgS5SnZiDghqOZRj2T5X8Meu53jneK9sdB4iU3XByfeGTOlHaHKhOYg+yTZY/boIj/Rz9FP1cTIqmr4EX3mODG8vYLDvNlrRTC1zDzmy1KVgOWY4LzHeWT7TPaZ7QLLWGDGYZhH50IQ3dM2dP5pPxWrun9Go0FxKceYbRLxNpYtoLjFrHeVeyAMLRDs2j3nEI6gruWAGzvLzTpUou46O+8umrwSsADdjvlMNyWMunGYWTnmGj5EMKDzUSsk2ZnTNympTT4iUtvDK9yGF3gc5YIeIM/VT9XP1U/VT9VP1U/VT9VP1U/VS/cIbH44YiL3kd4fABsECBgOnM3SLgUr3F3n+EfwTT8hD90M94EZYa4vzNt2ZGQQMZ6m6mFJcJxC/baJ3EDTg8wV+I2tjiWpHAWMeQEx6FOQm2fDP00/WT9ZP1kVQD7S+id4UqjCPzoQhu6Zs6fzSfitXdP6Nd+u0uS5ICELqK1GITcJbpG5izWQtreHkDiG0JNTbwmIKs8wLs4is1qYhlGjvPMkahu1q4j3Aj5SQoVgQA5ZtKzFohcYYxwR3VTi+JVT7qboOam0YsAIqqle0r2le0qVKlSpUqIc1LKxLztOILlm0qLC4m4UWR9VTQS3mZlVj+Ees6E2D2gNmzhBomNlzDbVobmEgHHWNqQMx0/aVd7wTjFaYXMrYxg7sTbaAu8XggdwZ3PgiDh8QFw+JTs+JTs+I8L8SpQFkprdYR+ZCEN3SNnT+aT8Vq7p/TrvibFHmBFLuDiBm5QulRqmyPAVmGgFwlCAN5UgDNu8Iks1LvLiISoA0SItmHneJsOJkMyx0WK2BxcWWocRZ8tjLOrvky+KmcYrdcyr7ExMeiBMwMYgOjfE2ywsXN0vhB3YgyDKczD2obL93/xFogEgtFHErIQHSHzB5aVNupJhVSoR8NXs8wdMqLSYERHtogZZkY6nG0Fg8kStTk3K4O8I7Q2gZDpKwtyGxxSLU40GLsb6bRAVBK9IbQIBUE4ltw0cDM/egwEXZDaJcUHiKzxhlIfLCk3v2lDKrppLIkwibnEoZo8xkLhvZOzKTfbjVYhlE0+GfheurDzHD4jsuOLlEbbN8rfl/wDjIKXG9kAMkBLE9oExnCwxDeZX4YfvFvVAADRBXmB1CLPqAcE3huOSXBicErz7jBzJ8R+1uuySTNUYRQi0WYlaLBLa4gjZLBgimSNsOlvcpmdwUgrcEcCSgq1mITjou2YrCYdocanmGZhMOzAMyJFwxuQmZxNkwtMDkTuEQ2CGhzgwCR72MCwEpzfArNvzA/7Es7nzF7J8ygWvlNviWWkmPPuj4NTPg5UyhkXkgvsZnnbjVr3y6TiAZSgBn1gP+223+8k3G5DbTBXQ9kTAPliIp5NlP/xkuD3l04Im7Nu0swwgGTDuUJ4Ut4njTxp408aeNC/ZLHjU3QIFbqOtgZLlry4m7BLbVHeEBsJvnae6e6e6e6V5iFe0aK9kxdkFU3ltUIVFPeF+yNeyVZFQ6cin7o2GJYmYApEG8IXs9By3FpQqFGS2J2lHcgfCAcYRkYAkKjDaZF8xOSXnaJvR4gDAL3j5ydpXf8QQdhh+IDP+0of7E/aRJufebxfvFMqezGnYqHnBGCbrGpQ77zPfUZbiVA5gNN0zuFum8aeEnhnhJ408aeNPGnjTwp4yeMgRkszYK0qBtb3l1o++DZu7xbW//j+//8QAMBEAAgIBAwQBBAICAwACAwAAAAECEQMSITEEEBMgMgUwQWAiUEBwFEJRM2GAoLD/2gAIAQIBAQgA/wD0yWxb9q2/0paSHlV0Qna7MX+kJOlZlzbDzbmHKRnYxf6Oj/8Acnp5y59qXU9RpW0eqbkdPn1bOGVp7Qmmu1/6MuhpP+Rm6jUtJ1PUaItE8rmRiyE3Hjp+oTVPHPcU012f+i2ZczWy6rPS2llc9mthSQmiMpRlZ0/UpqjHNohKxi/0Fubm5v3UhyMmZrYz51FbZcknIUXyN7kIqihtGOSi7XT9Tfyw5UxNvhJlMplM3KZTKZT77fukpUa0a0a0a0a0a0a0a0NwozZP/M+SbTpwyy5/48yOKV08sHFmNihqPAzwSI45JmCUlzizVz5kzyo8qPKjyo8qPKjyo8qFK+1/unUumh5KHmPOeY8x5jzHmE5jnXPkx/nXiNWNixwfHWY0iHJ0iuQsSPAjwpCxpCTRubm5ubm5ubm5jmyO41+6dVyjr5yjxHNNnlmeaZ5pjnkSsxzyyZgxSq5Z+opUsmfJYssq3eSdHlmo2fTpykt/qOyIcHQcmMpFI0o0oyR32i6I6WOKNKNKHFEYoyJIwnAv3TqeUfUeCHehNy/idJ0ySt9T1KxKk8zkx7jHwP4n0z4n1L4kPidByY/VxtE00yEqIyvsx8ETIYOy/dOp5R9R4IC79L0ipSfVZvDHaU3mlu4UWUPgfwPpvxPqXxIfE6Dkx+qf4HCyaojIixj4ImQwdl+6dT8kfUTHwcbkp69iP8Nzp+sTSiZ8KzRtZsDws12UWTewl/A+nLY+pfEh8ToOTH6pDyUTeojEiSF2mzDz2X7p1PyR9R4MfBCDnKh9G4Rsmm3Qk4OzpOrVU8+GOZWpYXFj2GNbEV/A+n8H1L4kPidByY/VypE22yEbFGi6HMixkzDz2X7p1PKPqBjTey6Pp6jqlqhJaTqumcd48uneh7dH1Cap58CatZoSi94K0OOxVQPp72PqXxIfE6Dkx96G65ySt7Rg2RjRJkpo3ZGQnaJ1Rh57L906l0dVc3R0nS6Xb6rqFBaVDqXGdmHMssafUdGl/JSxNvf/AOMwdXdJ5enWVWZsbxSolLY1XA+nrY+pfEh8ToOTH2qzXROeojEjsSkSn+BQvciqJRrcjOhuzDz2X7p1IsUbt9V1CxxpSnLJK28CqzFleJmHNHJHfqMCStODb3rQ9um6pVTzYVlVrNiaRxA+n/E+pfEh8ToOTH21UTdkYiVDZKQlbI8EiS2JRZwYey/cW6Er4k9POaSk9ur6jxqlqlkduopbJzspPnHkcHtizRmqefppS3gk7pyeh7dLnTVPPh1x/jm/h/F/T4tRPqXxIL+J0HJjVjdc5Jp8QjYkkNkpoinIUaRuLtSZONGGaTFJMUXV+y/a2rHPSZMurbt9QRj4F3qtzHmpmHNaOo6ela8e+8p6Ht0vVatnl6WOXcwxeOek+pP+JB/xOg5Iz0jlqFAjGiTJS3oULIrSXfeREyEVRGdGPJaKK9F+1ylpRknqeyiyao69EF/EXdvY0uzHkcTDnjNU+pw7XFw333g9um6r8NJSdn1JfxIL+J0GzOSERDZKQotuyGxIXeREyGKOonha3ITcWRnfqv2huhbkpKJlza9lCNijRmOtbZF7UaWimUymWOzFklFmLqFJU+o6ZzWqNP8AMXTOmyXsdZieRUo4Gtjp8DgjHGyqHKhzFbI7IZuWWWN2J0TdnSvcnTRkxNbkJ0QmmOP5/a0rJy0k8jkRiRVDZklR1Lk+GsllZCplTKmVMqY4zSMeSaZiySkqfUdOq2lgmpHSRceVDUeFWaKRBpGtEpITRBocka0a0a0a0a0a0OSJSR0/J+BxtUZMVEZtMhO+1ftMpaVZkyaiMLYo13y7DimLHEcEaImiJoRoRoQ4RZ4YlJLZJ1u8cWLGvxiixwtmSFRGmhNji2LHIUJIcZM0SNEjRI0SNEjTI0yNDMEaGJk1qMmJrchPSyE7/aFuSdGTK2qIRsiqG77vc0o0jiaTSaTSaRRrtpJRsljoxzd0RQ9mN2qMjRjSkyMIx5SgacZoh+NETRE0RNETREUImiI4xIwUR7iRsuJfyM2JQWoxzIyb/Z0TMkPyRZF2SW3dNI1I1oU0eRHkR5EeRHkR5EeRHkROaHKyCIPYfI2kjLHVxiWlkMkGt3KB/FkYo0o0o0o0o0opFIcUKQh8EU/zKSRmy6lpMcNyKH+zIY4WZMekjKhSvvldMtm5UipFSKkVIqRpZpY1JFtmlltGKbHMySuJLPo5/wCRF8QkxzSFnieZM8qPKjyo8qPKjyIWRCymOREXJOaRkyORjxty3jCjgu/2iyUVLnJjriEmmRlYzK3Zignz44igjQjQjQjQjQjQiaiic3wsOK+XjjRniktoukSy0zXaOuc09seZxOk6lytTywU43HLHLB7rK6HkkLJI8kjySPJI8kqI5JUdBJ5JfywqzglJKJObZjjuRSSL7V+0olGzLj07qMqIysz8owcdl7ZJJInNsxwsjBInKkZJXsZ8uhEuobkdNm1bHU4tUbMsHGQpOO66Pqvw8+KOSO2XDKEqEh+n4I8M+m/JnTk2kieS9jHCxQr9uslDUicNJGVGV20YOOy9WSy6nRjx3zDHSJSoy5BytnWDjudA7nQ99jqOlTVk9nQri7XSdS3s8+BT/kZ46WR3Gqff8EeGfTPmzG6J5GQhqYoaTV+32SSZkh/5ve+D1r8kskUjLOTe2PFvbhFJEpUZcl8Ri298kUkdd8RvY+nq2dbkePdYOqjkjT6vpVKpRyJrYxKUHZ03Vpxp5sMcsbWXBLE7L1GliiQr8za/HQxrcVkI2yMUl+4vs42Zo6WY50yErJc98k0ok5tsw49XKgkSkkZMpGLbIQ2Mx1/xHwfT5Uz6lG4GGbgzB1EckaM/Sp/yWW1sQuO50nVfh9RiWWO08ThKjVQ5iIYnJnS49KIRshA/H7nZ1PKNzHlrZxla7NpGTI3Jox4tW5GOknKkZMhFNyPGkLgz2df8R8H0+Opn1KbSoSuNmLK8bOmzrJGn1PSqtSk3dCuO50fUXs8/Tqf8lnxuLIQsxwtnT4FVvZcYhcDe/wC6dTyjErMuP8rFPTs1nVGaep7Y8b5IKhzMmSyMW2Y0khn4Mp9Q+J/1Pp/yPqfxI/E0akYsjxOzB1Syqn1XSKT1rJB3RCLx7nTdZf8AF5cCyq1Pp3BnTdPpWp5syjFo6HM5ZGYey/dOp+SMA4WZoU9tzFC+VFJEpUTyEYtshBI4Gfgyn1D4n/U+n/I+p/Ej8TVRKGpGBvFIw545I08/TL5KSbdCg4Ss6fq/w9MZ7mbMoRaU8jnZ9Nh/Jsw89l+6dTyjBsWSimPErIxSJSonk/8AFFsUEl3Z+DKfUPif9T6f8j6n8SK2IQTW6lJOhpNGPI4M6fOsip9R09K4ztKnidM/5OlbZJuSZiWzvoZPXtg7L906nlGEfplyfghG2RjS9Gfgyn1D4n/U+n/I+pfEgv4n476U0YpeKVmLP5FRn6a9yWOmaUfgjwz6d8mYOey/dOp5Rh9csHdmOWl761Xoz8GU+ofE/wCp9P8AkfUF/Eiv4+jk0xQczpMLhu+ozJbE5WzU0Lgjwz6d8mYOey/dOpe6MLL9JqLiSxyQsmnZxaa7WXZqpGVnXq4jVRPp6uR138lSS2ocXHkboglPY6fp3DeWfqIxVLJkcmRr8yaZHdUXpVP6eqdmBDQv3TqOUYaRqRqRqRqRqRJpmSCMeStiM0y0LJElkiZZRa26/aI5Oj6bdnVRkxwnYsc5c+OSI4WzpumUVb6jI4xpJSnLeSp0bm5CDsyY22dJFxOnY3sL906lNtUlJFyLkXIuRci5FSFBmpoeY8qPKiWSKVnWTUojitJ0GSMXvLJBi8ReJHjhLiOFIcWns8Orn/iUeCP58EDwQP8AjI/4tiwaTDAYv3KuzS/OhGhGhGhGhGhGhGhDgjLiMuN06ySyRFmmx5Jk5uSolxRBuPHkkeSZB5Js6bHP8wxNqyEElT0biRoiaImiI4CjRKFkY6R7i9l+3P7KJKzJis6jAiWPSN712kLkbMUHI6bpjDhoUa/wl+3P7bVmbEZcBkxtS7S7Qx6mdN0xiwpEVQ/8JfuFfYoRJajLjR1PT2tnj0r+Um72hjUzpumRhxJIS/wq/fESjZkxfk6jp1JWSg1Kjpekp6niw0KNL/SFjSaMuF/hYIp28WNEVRf+kWXtQ8UW7cYpbFf/AJp0V/dUWWWWiy/9IWUikNFFDX6XZaLRaLRaLRaLRqRqRqQnf9NqRqRqRqRYvuWhyQ8h5jznnFmFmFkTLRaE/s33tFo1I1I1I1I1I1I1I1I1I1I1I1I1I1I1ITX9MxDHKiWQlkHJmpmplstlstlsbYmW7MDv+llwSbsbYmxt2YeBfZaJTol1FDk27LZfumxTZDKRyI1WPtZZRR463HmUSfUDyDk2Wy2Wy2Wy2Wy2Wy2Wy2Wy2WzC9xcC/oV3ZdEp0ZMlvbUX9pdsHP8ASy4JcjEPkw8C97JTonn3oc2xxv7dlkZtEMpGVl90N0ZM/wCCc22JX/hYeRcC/oV6TkkTn/5f3sH+LRX35cEuRiPyYOPeiU0jJk/8q+aL7362X2ooYm0Yp7bxdiPyPZGTIiTtlF17WWWWWWWWWWWWYXuJ2hf0N0XZROWkyTvs0IYn2aZTKZTKZTKZJMimYOftUUUUV2oooo4NRqLsoooor3ooktiXIxH5MHAyiiiiic62Mk79dRVixtiws8R4R4WSx0aa9rpmKQtxKmZXsTdv1vsoNniZ4WeFnhZ4WeFnhZ4WeFnhZ4WeFnhZDFRBUP8AoWJDdGeQ/SrIYbI4Two8SPEjxI8SPEjxIeFCwojCvs2WWWWWWX3sTspFLtZZZZfvZZJ7EuRiHyYWJllliJOjPLf2jC2QwigaUaUaUOKHAnislBr1aISpmOV9s0ti7foyiGO2RgKJpRpRpRpRpRpRpRpRpRpRpRpQors/6JGR0Tlb7PsjHBsjGkL7W/pYlZJqPLyxR54DzxPPE88TzxPPE88TzxIZFLgZLLFc+eJ50edCzo88TzxPPE88TzxFnjQssWJplF9pZFHn/kRHnjQ3v3ZjyKPPnieeJ54kcqlxFWjJKictT9LErMeKkJJD72b9tjJjbW01TF64ZFmcT39GiLVmOKasTRf9ijNIfdkVuYl/gUTyaSebUXf2GYOz4M3Ivst0KTI5miGayO49jPyIf2cPJF/xMz9GIxQFx9hn4M0N/bC9+2cXPqluYVsaSv7BEmZZej5IK2QQ/vMlloyT1CT+yzB2fBl5F9qkURdMxZNhuzNyIf2cPJexle/o0RW5hWw/s2ZIbE1T9GYXuR4M4vRF0zDkNRf9gia2Mj3K7tbmFWJUi7+9lyaUTlqEu7EmaWUymUymaWzFaE7HwZeRd26LZbNyh92xGORj3Rlts0tGlld7FFs0splMwLca2MnPpZjjbILSvso/JJ2jLGn3sZjdMx7xszKyq9WrIS0izkc6POjzo86POjzo86POjzI8iItNGxZZf9HPgyc+uHkfAvuydGWerb1x49RHCkjxI8SPEjxI8SFiQoJFIfBl5F3ww1M8CPAh4UeEliJRp9q7Re5iew8aPEiWNUPu+TFG0LEeJHiQoUS2Rke/ozDyfj7KHyPgz9/z2iYntRKFoywp9r9rGzUzUzUzUzUy2ahTZ5WmQy/+wmjZlf0c+DJz64R8C+7mdF2+9mPHZCGkftZubj4MvIu/TfLtZdFoaMsNx7CfaPJiZY2SexLnu+TAx8d0ZOCfPozCfj7KHyPgz+sTEti9jJDUSx0NC9aKKKKKKKRXau2toxZP4idj/opvYyPf1wIlshfcfBnlbEu6W5iaQ5ITRaLRaLRaG0iLTG6HwZeRd+n+QuzViVdsnBLkrtwzDui+0uCXPd8mBeiZl4J8+uE/H2UPk/B1C9GQ5MXx7yxpk8SQ016WWX70V6Rm0zFPUS/op8GTn1wMlwL7knsZXuLuhZKHmZ5meZnmZ5meZnmY8zMM7GPgy8i79P8AIQ/TJwS59On7y4JcjEPkweuRbE+fRmF7i4+yh8j4M7v0ZDkx/H0lCx4bHgHgZ4WeFnhZ4WeFnhZ4WPCx4mOLXZeuCQ9/6KfBk59cL3PwL7k+DI9xe1d6KKKMCGh8GXkXfp/kIfpk4Jc+nT95cEuRiHyYPWS2Mq39GYXuR4+3PgyPf1xrchx3sss1I2KRSKRSKRSKRSNKMmNMnCvVmF7keP6J7ozRE36Qk0zG7H9zItjJz6X2sssssss3swWMfBl5F36f5CH6ZOCXPp0/eXBPkXZ8mD0Q2Z4pbi7si6Zidof2GRMstiXPf8knsdPu96r2or3ortVozL1ZDZmJ2v6PNEqn3ZF0YpF39yfBkW/o1bI4mzws8LPCzws8LPCzws8TMUaGPgy8i79P8hD9MnBLn06fvLgyciPyPkwe2aNoqvRGKYnaKH7IboyzLv05MEa3/wAKPBnH6xW5iW39CxGRE1T9YSoxu4/cfBmW/onTMTQ6KRSKRSKRpRKBFEuR8GXkXfp/kIfpk4Jc+nT95cGTkR+T8mD1RlWxNU/VOjHktCdoftdGSZOV+jIbshGkL/BcqRll7Q5MXH9HydRH/wA4G7F3jka2I5hZkeZHmR5keeJ54nnieZCzIjkUtu2aKHs+7MciEkVZRRpZpZpY4spmkfBl5F36f5CH6ZOCXPp0/eXBk5EfntjlRCV9325M8N7T2L9IzohmFmRrRrRrQ5oeRGTJts5N+rZix3uQ25l/9RJujzJHnR50eZHmR5keZHmR5keZHmQsyHmQ8yMmVy4bv1Zgjvu1XC/o5xtGWLQvShLtubm5ubm/ZGD5CJxsywoqhDQnRHIRzbHnPOedHnR50edCyWKVj4MvIu/T/IQ/TJwS59On7vgzRoR+RidEcmkWc85inq7yjaMsKYl6UUy2LIzyM8jHkY5s1X6NiRGFsww2J7EfiIyuiTdm5ublstlstlstlsTfbcXtGNsxwo5/pEZMdk4ULvZZfu2JnT/IRRkhaMkGmcd7F6WWJsw7kY7D4MvIu/T/ACF65OCXPp0/pnXpRRRR0y59JY0zJCvSy+1elFd0MhCzHjFscj22ImcfP22yy/fBC2NJIi/6R9skLJwpjRZZZfpZZY2JnT/L0nGyeJmmu1lllllljZgYmTexle4mWWdN8uy9MnBLkbE+2D0kjJAcaLLLLLOl/PdMY4k+nt2PG4jdFll+lFDdGoQoORHEQjXrEzofJZZZZf2bL7NkYuRDBZGOlV/TMRVjxJksKJYB4mjxM8TPEzxM8TPEzxM8THjYsbMMKlfdDQ4Iy4k2PGeNnjZ42eNnjZ42eNjxswRa7NWjLj3FjZ4meJmCGl9l6TVoePcliYsbPEzDGvRko2Tx7HiZ4jxs8bPEzBHT3fai/wAEoah9PY8VDxs0Mpm5ubmlig3sLARwEMSRoRXp+CJlVjxuzxM8TPEzxM8TPEzxM8TPEzxM8TPEzxM8bFiZ4mQwWiOJIUtJd7/1CZqLNjSjQjQjQjQjQjQjQjQhwQoI0pe1WaUaEaEaEaEaEaEaESgiEUhkSUUxQRoRoRpS49XwKG44IjBEoogq9qRoRoRoRoRoRSXHrSKRZpTHBHjPCjwxPDE8KPEhY0iu1l+v4ETVigqNCNCNCNCNCNCNCNCNCNCNCNCNCNCNCNCHs9kxpf8A8f7/xAAeEQEBAAICAgMAAAAAAAAAAAABAAJwEJAwoCCwwP/aAAgBAgEJPwD6gNmZmeGZmZ65GOXuGNHEREREaPIiIiIjRp4CI1EzMzMzOjGbKysrKysrKynpBfVYIjQzM+MiIiI0G8PwZmfbSfzw3//EACsRAAICAQQCAgICAwEAAwAAAAABAhEDEhMhMRAgBDBBYDJQIkBwUZCgsP/aAAgBAwEBCAD/AOmVfixD4E7/AOIMjE0MkqF4qv8AiCVshA0GSA1RZf8Aw58C5IY/yYsVjwqjLionAlGhFf8ADVyY8Zjw2yGOiXRONk8RkgNUWLn/AIWiGMxYiEKHwNlDjZlxksZKNCH+/wDBaLRaLLLLL8JWRx8mPFZDHQrJeOzklC+82KuskGaWv+AabNDNDNtm2zbZts22bbFEhExxVkZRRuo3VYpWNDlpN1G6iUkzIkTRVmk0mk0mk0mk0jjX7tiODg4LRaLRaLRoR0KdG4zcYsjME2x9Gd0i2cnJTY8YoG2bZtm2bZtm2bZNDF+6YejI2jXI1SNUjVI1uha2zGn+Zz4JTkKUhSY5ysxts+KiR8j+Jgin2scKFjgPHEcImfH/AJcY5JOnDQx44m3E24kMcWbcdR8qKiuMoh/umHoy+sYtshBUTkkSnflD7MR8QmfI/ifHF15oeNOJmg0+MWRx7hNNeGYxfyPl9GUQ/wB0w9GX1x4+LJSonOxIrwh9mI+ITPkfxPji6H51VwSwqSM8NDMOX8EHYyAv5Hy+jKIff7ph6Mni/CdEMnFEo2icCyxkR9mM+ITPkfxPjH48olG3Y82lUZ563xhxCjSENCRnMoh/umHoyeErFjJxog2mQmqJRslCvMR9mM+ITPkfxPjH482PIkjLNt8Ycbl3CCROSSN6nQslifB8gyiH+6YejKJN9Y8b/K00ZIX1KNCm0zHNPucLROL8RQ+yB8QmfI/ifGPwdFNkpKPefLc6jjwuTshjUSTrkz5k+F/l2QyV3impLj5CMoh/uL8IxdGTHqMcNJPJXBr5MczJC3Y4UJ0QyWShaJwoixvkxnxCZ8j+J8cT4NOolm0GbJrMWJ9mNaUTyGX5F/4mPG5MWFUZ8VGDJpM2RSMoh/uL8IxHBOaRN2/EJURlaJRsnGiFpkcionG0aaH2Y+j4hM+R/E+OXwPKoozT1PjFBt8wikiU6MmQhic3ZDGoI3DJHUieJxG2ZRD/AHGjoSsxKlzkkSbZFcc0URlQppksbfUq6SbTIZF05QJRdmNro+ITPkfxPjqyc1Fc58utrTixuXcMaRKVGTKiMJT6xQce5u1xGP8A6uO8iUlxkxtMyJsqhvkr9wsqzHjHGjJ62RkRmSx/klwLuyOTUOFijTPiEz5H8TFk0mTJrMWG2QhpJSoy5OaIwcmYo6R+WIzDRKNjjRZf7elZDGY8R8iNGT1aERkKaaoljskqIOiORDPikzP/ABEY8d8mOKiSnRlyEYOfJjhRXoxGYb8SjaJQoX7axKzHjpmLHZGFHy+0ZWy2L0oohcWRyXwTxt8kyDdkXaowZNHbzJozZNXCxQ1EYaUTkZM1cEYuZhhtxp2WWWWNiMwyxEo2ShRq/Ah8Cd/tDFyY4GLFZCFePlSponNmtktTfGmZpmaZmmZpma5EckiORvucEaOTHFpjdGvgUrZgkkPKqM2X/wAitT5x6YkskTWjWjWjWjWhzQpozNMl4XiUbJQoR2VX7QlZDGYsZGNF+PkrlGk0FV7aDSaR42KNHBknQp2JuyE2amJt9qVDmxTZuM3GbjNxm4xzYsjZKbH5T8TjaHGiy/2Zi5IQXZixpkcaS8UUONmhGhCgjQjQjSjSjSjQjbRoRLHZlx0SWnkm9RHgRBeG/wDy2Jj59m2xWhtssooqhSErJwQ4/s7IkJGGdMhJNDRRQ2o960a0a0biNxG4jcRuI3EbiNyJPNEzZL6nbGvCIMZEtFlllllllll+jKEychv9pTIZKMWYjOyyz5c2mq3WbrN1m6zdZus3WbrN1m6zdY3ItlEomkjGyMRxHEUGbbNtm2zbZts22bbNs2zbfoiiTolIv9qujHNmLM0Y5KQ1/wCfLu1f00Ui/CGUikuvjxUu3ghRmwV/GEnF/wCUNuS4WNfnbRtxNETQjQh44ixRMy09V5SolKhyb8V+0oYnRjyGHNRCaZ83tD+ivF+UiboeQxz1OjDKiE7HR8j49q1im8cuY5VJCdj9GLo+QMfhyJSPz+20RIzoxZWj5EtVD+ljELxlG+TAuS6MOUX+XJrXT+RiXaxTceDHK/Vi6PkD8SdIcy7GuP29MhMcrH4Xu/FeEZR9mHsxQT7yY66+PkcW9UHGRKNmbB+VjyPG+YZVNcVRXjsaaMz4GSkOT83+3IYpGN2vosvxXlGUfZh7MBKFozwcXxhy1w4zTG1dHyfjWrWGbxy5jlUuROxi4Mk0kZZ2yTJS/ckMSMS48V6vyvRGUfZg7Pji6JY1MzRcHxhyu+VUuRTvg+Ri/KxzceHjmmdmSSSMmVvgqyYyuP3TD0MQ0UV6v0RlH2YezAfgROKaMuOusGXQqcZpjMsLdibizHlVGXJqZDHfJkjSMoh/umHoYvavD9EZR9mHswH4LGyUbMsGpcYsldxnY42ZMZbRGDbMcUkfIMoh/umHoYvFl+F7oyj7MPZgL4GyxEoRaMkGnxiyV2pJq00mSxX0oJIRmsyiH+6Yeh+q+hGUfZh7MB+PREoWjLGjFlpUR5HwMRnMoh/umHofqvoRlH2YOzAfj0Q8iSMskzHjd2Y1SJj6EZzKIf7ph68UV60NF+iMo3yYHyYGfj0bpGSbb4hByMcUo8lDEjOjKrOh/umI5OTk5OTk5FYyiimUxIyjXJhXJhZrVCmhyQ5pGbLzShGzGkiU1ZrNY5kZmaVk2P8AdcL4LRqRqRqRqRaLQmjV4s1I1IckTkMxSpkctG8POLK2PIxSvtZEh52LK2bpujyiykshN+Px+6J0amamamamamWzUzUxTIzscbQ7RrYmxysYnQpjmyDciESckhzvp2J0ORZY5WRdDlY5WUX++0KVEZ/glCyUKL9GyEbIY0iU6HKyq/4Q/C4IzsnG0SjT83RGGohCiU0iTsSH/wAKsi6IzsnBNWqYyMdTox40icqQ3YuC/wDhsZEJW6MkDSY8aXJOVGux/wDDmvEZaeSM9RoJT0kpahIv/h1+Ksi9PW5Ik77XBf8A8Bj8UUUUUV++0V/pUWWWajUJ3/pUUUUUUUUUUUUUV/W0ymUymUymUymUymUyv6amUymUyvt0sUTSbRtG0bRtDx0UyvtplMplMplMplMplMplMplMplMplf0yGxCjYoCgJFFFFFFFFCQ0ZOv6VdiRRQ0T+hiY42xQFAS4K+hpDiSx2PG0NV4XhrkQxIURQNJpNJSKRSKKKKRSKRSKRSKRSMnR+R/0tEYkI8FFeK+hDMnX9KuxeWT+lRIw4FES+xIlElAca9asjDgjEr/SydH5H/SIjGyMfubMnX9Kuxek/eyMWyMa7+5N+KMkH+Gq8ojES4/1MnR+R/0iRBe+o4ODjzwcDoydfTZZZZZfpZZZZZZZZZZfvZYnyL0mMssYhkIkFQ16UWORuG4bhuCkJ2V7ZEVQyKIL0vzqNZuG4bhuG4bhuG4bhuG4bhOVkhf0L8UY42JV6udDmORuM3GbjN1m6zdZus3GOd/TRRRRRXpRRRRRRRRRRXvRQlyL0mMoorwlZjjwL1ciUxyLLLExSIzIyvwvSUbJqhEEJei8SlQ5DkWy2Wy2WWWWWWy2WzV4X9DVnRHkxqu/R5Eu5yt2ufPBwUUUUcHHtTFBs2pG0zbZts22bbNtm1IlBx7stCxtm0zaZtM2mbTNpm0zaZtMeKQ8bRpfi/Cg2bTFiYl6Sg2bUrNpm0yUGhogiKperdEpjbfvz+ISruMkyvXLEXZj9UyTJzL+6v6NEjGvVmQX3WVZGAoCjX0Iy+F2Y+h9/VQ4EojQjGMX05BmNe05D7+rG/bIuD8mP1SJdE1yV/ZIgvWTJC+6iESMa+pGXwuzH19so2TXjGMX05BmJD9JPgyS+pkGRfoia4H/ACMfqmNWSgUP+w7F2QXHrMf2vgTshCyMa8MS8WWi0Wi0WjUkZHfhdmPr7bJwskqIcItMtF+totFoysTtmNUvXI6RL/JlfS0R4Mbv0RImqkQmJ36V4atDgPEzZZtM2mbTNpm0x4mbbNtjjRRYihuv6FC7I9esx/YhkEQVeaG6JTJTdmtmtmtmtmtmsu/C7MfQ/OR0jcNw3aFlFMjK/RkzWzWyM3frOVDma2a2arI9kOvXKLv6mIxerMn8iLIS836UUUUUUUUUUUhwTJQHAfDE/wCiQuyPXrMf3Y0VXpOQ2I49a8rsx9D85+vLQiyEhDEMmcHBGrF6TEuTjzHsh165T8/UxGL1Zk7LIyIy4OyvSy/FlllljOfCGOJOHI1Qv6JPkh16MmMX2fkxL0Zks5GmUymUymUznyuzH16ZuvN+YPkXR2dHZl4KKIrkXpMZRQiPZDr1y9C7+vVyYvSyXRPlleFNkZifpRRRRRXii6LL9JKya/o49kOvWY/sQuyC49XCxY0PGbZtm2bZtjxko14XZj69M3XleYdi6EMRl8rsXpkPz6R7I9eiMi4Pz9LF0VyY16Il0S79FKhZDdRuI3EbiNxG4jcRuIeRCyIU0JplerJxGv6KPZDr1mP7Y9kevReLL9mTGLsx9embryvMOxdCGIy+V2L0yH59I9kOvRdmTol39LF0JckFx6Il0S79aOTk5OTk5OTkdnJbITojKxi9Jomv6JGOXrJInwL7IdkevTnxRRyclMplMZMYuzH16ZuvK8w7F0IYjL5XYvLJn59EuTG/WXRNfSy2QVi69ZyY/eyyyyyyyy/F0Y37S6J/0eNl+jROI+PsT5IPj0uh5EjdRuI3EbiNxG4jcQ5kpDF2Y+vTN15XmHYuhDEZfK7F5ZM/PrjYvRk42Pv6UiEfbI/9JmP2l0T/AKJkGRfrJE+/s/JjfHo1ZNMVjstlstlstmob8Lsx9embryvMOxdCGIy+V2LyzIfn0ZBkXx60ShyONfRFEV6syMX+jFWY0V6y6J/0mJi9XCx4h4mbbNtm2zaZtM2mbTNtjg0MxsXPpOJKJdGo1Go1Gr0XZj69M3XleYdi6EMRl8rsgPzkiVTLLE/OKVLnv1aJRHA0s0s0sUWKJCHJS8sXibJOxEiBts22bbNpm0zaZtM2mbTNpm0x4mLExYiEEvebJP8ApIuiMvWy/HBwcetmV/4+IujHKzsZEaHElitm0bRtG0bQ4DXhdmPr0zdeV5h2LoQxGX0xOx+aJY7No2icNPm6ZjlwMXrpRoRpNBoRpRXs5EpeF2SMaF0cHBaLRaLRaLRaLQ6+lukTkPn+kZBifpRRRRRRRRRRRlX+PhkJckJeOvponEaF2Y+vTN15XmPYuvDEZfTCx+b8WWZvNfkUqISv2v65MkxsR+RmNFFFFFFFFFFFFFFe+SXI2RX9NGVEZ2jV9lGX+PpFkZF39UyXZAj6ZuvaCI9DEvGT0iyMi79s3tCdIUrE/Syyyyy/FjkSmSftAX+ihyonMbv+pjIUhTNZrNZrRrRrRrNZrNZrMkrXliFIjM1mtGtGtGtGtGtGtGtGSVkuyJGVGtGs1mWVr2g6FM1imhzRN36IUiM+TWazWazWZXftZGQpima0akceODg4G0hzHMlM1F+yYp8Gs1ms1ms1o1o1o1o1o1o1o1o1o1mscyUxuxf0zENIrxbNTNTNTNTNTNTNTNTNTNTLZb8ry2zUzUzUzUzUzUzUzUxSY2NCNRqZqZqZbftZqZqY5OxSZfvqZqZqZqZqZd/RbNTNTNTNxm4zcZuM3GObZbLfivotmpmpmpmpmpmpmpmpmpmpmpmpmpmpmplstnIh/wD4/v8A/8QAHREBAQABBAMAAAAAAAAAAAAAAQAwIHCAkKCw0P/aAAgBAwEJPwD1BbhIjQRERHkqkYDhIRERERGxpEREREREdxj8TL//2Q==;" vertex="1" parent="1">
                    <mxGeometry x="3" y="326" width="818.5" height="541.58" as="geometry"/>
                </mxCell>
                <mxCell id="5" value="" style="shape=image;verticalLabelPosition=bottom;labelBackgroundColor=#ffffff;verticalAlign=top;aspect=fixed;imageAspect=0;image=data:image/png,iVBORw0KGgoAAAANSUhEUgAAAPAAAAEJCAYAAACqv6r3AAAK3WlDQ1BpY2MAAHjalZd3UJRXF8af993KskvbBQEpS2+i9Cq9rqD0KirLLh3WdVlAsSvBCMaCigoqCkbFHo2gxIJYsCD2XoISFNQY1GBD5fuDjyXJfDPf5Mzcub955tzn3HPn/eO8ACdUKJXmkWpAvkQuiw7x5ycmJfMZz8AAEyrQhI5QVCD1i4wMB4Dh/e/x/jYIALhhK5RK8/DvQkOcXiACiBQAaeICUT5AtADEC5FUJgcoewCYFMulcoByFQBPlpiUDFB+A8DLHOKPAHhpiUnJAJUNgCeLjQ4AqHyAyRYKZZkAewwAfpEoUw6wwwHYScTZEoA9B4C3KEsoBtjHAIzJz58uBtg9ACyLRJlSgKMGwC3tL56Zf/NPU/gLhZkKHuoLAMAMzC6Q5gln/cun+f+Rn1c4XMMcADtLFhoNQAMg7uZOD1OwJG1SxDBni4feHSDuZhWGxg2zqCAgeZjFwsAwxdm8SeHDnJEdLFD4yAWxw5xeEBQzzLLp0YpaGbIAv2EWykbqFubGKfSsdIHCvyQrNmGYi7LjJw1zQW5M2EhOgEKXFUYr7p8uCfEfqRus6D2/4C/9ZgsUZ+VZsaGK3oUj90+X+I14FiQq7iZODwwayYlT5Evl/opa0rxIRX56XohCLyiKUZyVy2JH8uWRijfMEU6IHGaEIwR8hCIQ0eDDCWGAPH2mHAACpktnybIzs+R8P6k0L50vkIjGjuE72Dk4AIlJyfyhz+FdFAgAhFb7iDZ9C+DWD1BWjmhp64CmJYD2vRHNtBZQLQUaT4sKZUVDGhUAaGBBFTzowAAmsIQtHOACT/giCBMQgVgkYSpEyEI+ZCjGHCxEGSqwEmtRjVrUYyf24iCacAyncA6XcBW38ACd6MZL9OE9BgiCYBAcgkvoEIaEGWFDOBBuhDcRRIQT0UQSkUpkEhKikJhDLCYqiEqimthKNBA/EUeJU8QF4hpxj3hC9BJvic8khWSTPFKfNCfHkW6kHxlGxpJTyExyBllClpLLyfVkHbmHbCRPkZfIW2Qn+ZLsp4CiTNGiGFFsKW6UAEoEJZmSQZFR5lHKKVWUOso+SjOljXKD0kl5RflEpVO5VD7VlupJDaXGUUXUGdR51GXUaupOaiP1DPUG9Qm1j/qNxqHp0WxoHjQBLZGWSSumldGqaNtph2lnabdo3bT3dDpdi25Bd6WH0pPoOfTZ9GX0TfT99Bb6NXoXvZ/BYOgwbBhejAiGkCFnlDE2MPYwTjKuM7oZH5nKTEOmAzOYmcyUMBcxq5i7mCeY15nPmQNKakpmSh5KEUpipVlKK5S2KTUrXVHqVhpgqbMsWF6sWFYOayFrPWsf6yzrIeudsrKysbK7cpRytvIC5fXKB5TPKz9R/sTWYFuzA9gp7EL2cvYOdgv7Hvsdh8Mx5/hykjlyznJOA+c05zHnowpXZayKQEWsMl+lRqVR5brKa1UlVTNVP9WpqiWqVaqHVK+ovlJTUjNXC1ATqs1Tq1E7qnZHrV+dq26vHqGer75MfZf6BfUeDYaGuUaQhlijVKNe47RGF5fCNeEGcEXcxdxt3LPcbh6dZ8ET8HJ4Fby9vA5en6aGppNmvOZMzRrN45qdWhQtcy2BVp7WCq2DWre1Po/SH+U3Kn3U0lH7Rl0f9UF7tLavdrp2ufZ+7Vvan3X4OkE6uTqrdJp0HulSda11o3SLdTfrntV9NZo32nO0aHT56IOj7+uRetZ60Xqz9er12vX69Q30Q/Sl+hv0T+u/MtAy8DXIMVhjcMKg15Br6G2YbbjG8KThC74m34+fx1/PP8PvM9IzCjUqNNpq1GE0YGxhHGe8yHi/8SMTlombSYbJGpNWkz5TQ9OJpnNMd5veN1MyczPLMltn1mb2wdzCPMF8iXmTeY+FtoXAosRit8VDS46lj+UMyzrLm1Z0KzerXKtNVletSWtn6yzrGusrNqSNi022zSaba2NoY9zHSMbUjbljy7b1sy2y3W37ZKzW2PCxi8Y2jX09znRc8rhV49rGfbNztsuz22b3wF7DfoL9Ivtm+7cO1g4ihxqHm44cx2DH+Y5HHN842TilO212uuvMdZ7ovMS51fmri6uLzGWfS6+rqWuq60bXO248t0i3ZW7n3Wnu/u7z3Y+5f/Jw8ZB7HPT4w9PWM9dzl2fPeIvx6eO3je/yMvYSem316vTme6d6b/Hu9DHyEfrU+Tz1NfEV+273fe5n5Zfjt8fvtb+dv8z/sP+HAI+AuQEtgZTAkMDywI4gjaC4oOqgx8HGwZnBu4P7QpxDZoe0hNJCw0JXhd4R6AtEggZB3wTXCXMnnAljh8WEVYc9DbcOl4U3TyQnTpi4euLDSWaTJJOaIhAhiFgd8SjSInJG5C9R9KjIqJqoZ9H20XOi22K4MdNidsW8j/WPXRH7IM4yrjCuNV41PiW+If5DQmBCZUJn4rjEuYmXknSTspOOJDOS45O3J/dPDpq8dnJ3inNKWcrtKRZTZk65MFV3at7U49NUpwmnHUqlpSak7kr9IowQ1gn70wRpG9P6RAGidaKXYl/xGnFvuld6ZfrzDK+MyoyeTK/M1Zm9WT5ZVVmvsgOyq7Pf5ITm1OZ8yI3I3ZE7mJeQtz+fmZ+af1SiIcmVnJluMH3m9GtSG2mZtHOGx4y1M/pkYbLtBUTBlIIjcp5cKm8vtCz8rvBJkXdRTdHH4vjiQzPVZ0pmts+ynrV01vOS4JIfZ1Nni2a3zjGas3DOk7l+c7fOI+alzWudbzK/dH73gpAFOxeyFuYuvLzIblHloj8XJyxuLtUvXVDa9V3Id7vLVMpkZXeWeC6p/Z76ffb3HUsdl25Y+q1cXH6xwq6iquLLMtGyiz/Y/7D+h8HlGcs7Vris2LySvlKy8vYqn1U7K9UrSyq7Vk9c3biGv6Z8zZ9rp629UOVUVbuOta5wXef68PVHNphuWLnhS3VW9a0a/5r9G/U2Lt34YZN40/XNvpv31erXVtR+3pK95e7WkK2NdeZ1VfX0+qL6Z9vit7X96PZjw3bd7RXbv+6Q7OjcGb3zTINrQ8MuvV0rdpO7C3f37knZc3Vv4N4j+2z3bd2vtb/iAA4UHnjxU+pPtw+GHWw95HZo389mP288zD1c3kg0zmrsa8pq6jySdOTa0QlHW5s9mw//MvaXHceMjtUc1zy+4gTrROmJwZMlJ/tbpC2vTmWe6mqd1vrgdOLpm2eiznScDTt7/lzwudNtfm0nz3udP3bB48LRi24Xmy65XGpsd24/fNn58uEOl47GK65Xjlx1v9p8bfy1E9d9rp+6EXjj3E3BzUu3Jt26djvu9t07KXc674rv9tzLu/fmftH9gQcLHtIelj9Se1T1WO9x3a9Wv+7vdOk8/iTwSfvTmKcPukRdL38r+O1Ld+kzzrOq54bPG3oceo71BvdefTH5RfdL6cuBV2W/q/++8bXl65//8P2jvS+xr/uN7M3g22XvdN7t+NPpz9b+yP7H7/PfD3wo/6jzcecnt09tnxM+Px8o/sL4sv6r1dfmb2HfHg7mDw5KhTIhAIACgMzIAN7uADhJAPcqwJo8NFsDAIih/wFgaAb53zw0fwMAXID6O0DsbCD8MrChGjDPAFRTgEgOEOsO0tFRsf4bBRmODkNebH+A9nhw8J05wFgNfF05ODhQNzj4tR6gPARaJEMzPQAY5APFDDBPGT+Uxnf9c54emvf/0uM/d4B0dHTCP/f/AM70Gn8NIwENAAAAIGNIUk0AAHomAACAhAAA+gAAAIDoAAB1MAAA6mAAADqYAAAXcJy6UTwAAAAGYktHRAD/AP8A/6C9p5MAAAAJcEhZcwAAFiUAABYlAUlSJPAAAAAHdElNRQfmBwoQEzMTTe2/AABo9klEQVR42u2dd3xUVdr4v3f6ZNJ7gVQIJUBISEFcEJGiUgRRUWworrq2te27q6+77m/f3XUt67ru2sXe1rI2bIDYUEihhxICIUAS0nuZyczc+/tjMpcEkswkMyng/X4+F5LJLefeuc85z3nOU4SJEydKKCgonJaohrsBCgoKA0cRYAWF0xhFgBUUTmMUAVZQOI1RBFhB4TRGEWAFhdMYzXA34ExFkrqszkkgIfX8NxcIgiD/7/y5p7+f8rnjsj00rHtburbJ2a6BtM/d3xW8iyLALpGQJHp4uSUcYnJCuARBQK1Wo9Fo5P+1Wm2Pm06nQ6/Xy5vzc+cxpx6rQaPRolaru12vr80plK42URSx2WxYrVZ56/q7/LPNSoelA4vFgsVixmLp6HbMycfb7Xb5f1EUu3USJz+/nv5XcM3PVoBPFsiuo45KpUKtVqNWq9BotOj1egwGA0ajEZPJhJ+fH76+vphMJnx9feXNZDLh4+OD0WjEYDCg0+nQaDSoVCpUKtUpQmW327Hb7NjsNux2Gzab44V3bicLktVqxWw2dxO8k38WJRFJdHzmFGTntXv7WaVSodVq8fX1RaPVou3SiZzY1KjVGrlzUqvV3c7lbIMoitjtdjo6HILe3t5OW1sbbW2ttLS00tLSQktLC62tzp+baW5uob29HbPZjNlsxmq1Op5Np+B3pasmogj6GSzAXQWzJ+F0CqXJZCIgIICgwEBCQkMJCQkhKCgIf39//Pz8MJlMsjCqVCokScJms2GxWDCbzZ0vZxstLS1UVFTQ3NRMU3MTTU1NNDc309bW1u3l7OjocLzcHRY6LI6fnS+sUwCcW1ehEEURURJ70Ys9x9HJCAiCSu5wum6CSkCtUsvaQ9dNr9ej1+kxGB2dnNFoxM/PD39/P8dz9A/A38+P0NBQ4uJiMRp9MBgNGPQGtFqt3AE4OyjH82ymqamZhoYGamtrqampob6+nsbGRpqbm+Xn6Xhudpxf8c9NwIXT3ZWy64gGyGqsXq/Hx8eHgIAAgoOCCQsPIyIigvDwcIKDgwkICMDHxwedTgdAR0cHbW1tNDY2Ul9fL291dXXU1dXJL49TMM1mMxaL5RQBVOgZZ0fQtQMwGAz4+voS4B+Af4A/gYGBBAcHExwcTFBQEIFBgQQHBRMYGIjJZEKv16NSqbBarbS1tdHc3Ex9fT3V1dVUVlZSVVVFbW0tDQ0NtLa2YrFYsFqt3d4Nh1ALnCmyfdoI8MmCqlar0el0mEwmgoKCCI8IJzoqmujoaMLDwwkKCsLPzw+1Wo3NZqO5uZna2loqKiqorKqiuqqK6upqampqqKuro7m5WRZMp0AqDC9Ogdfr9Jh8Tfj7O4Q8NDSU0NBQwsPDCQ8PJzIykrCwMAICAtDpdIiiSFtbG/X19dTU1HD8+HHKy8upqKiQv2uLxYLNZut2rdNxxB6RAtxVWAVBQKfT4efnR3h4ONHR0YwaNYqYmBgiIyMJCgpCq9VisViora2lvLycsrIySktLKSsro6KigpqaGhqbmmhrbcVqtQ737Sl4GbVajY+PD35+foSEhBAeHk5MTIz8nsTExBAWFobJZMJut9PU1ERVVVW396SyspLGxkbMZrOsSQkqFaoRLtTDLsDdRlYBdFod/v7+REZFER8XR2JiIvFx8YRHhGM0GjGbzVRXV3Ps2FEOHSrm0KFDHDlyhOPHj1NfX097e7uiyirICIKAXq8nMDCQ8PBwYmNjSUxMJCkpifi4eCIiI/D19cVms1FTU8PRo0cpLi6mpKSEsrIy6uvrZcNhVwv/SGFYBNhpoBEEAaPRSHh4OPHx8YwdO5axY8YSFR2FTqejqamJsrIyioqKKCws5ODBg5SXl1NXV6cIqoJHOAU7ICCA6OhoxowZw4QJExg3bhxxcXEEBgZit9upqKjg4MGD7N+/n8OHD1NRUUFrayuiKDos+ILAcE6oh0SAu46yBoOBsLAwkpKSmDxpMuMnjCc0NBSLxUJpaSl79+5l165dFBYWUl5eTmNjo6L2KgwZGo2GwMAAoqNiSB6XzOTJk0lJSWH06NEYjUYaGho4cOAABQUFHDhwgIqKCtra2pAkaVjm0YMqwM4R0mg0Mnr0aNLS0sjMyiQuNg673c6hQ4fIzc0lJzeHg0UHqa6uxmKxDOkDUFBwhV6vJyQkhISEBNLS0sjIyCA5ORmTyURNTQ3bt28nPz+f4uJimpubO7VL1ZAMzF4XYOfapU6nY9SoUZw1fTrZ06cTHR1NY2MjW7duZdOmTWzfvp3S0lLMZvPg36WCghfRaDSEhoYybtw4zjrrLGbNnMno2FgaGhrYvn07P/74I0VFRbS1tQIOR5nBwmsC7FSRAwMDSUtP49zZ55KcnExtbQ3ffvsdP/zwA3v27KG2tlaZuyqcUfj5+TJ+/ATOOecc5syZQ1xcHOXl5WzatIkfN/1IWXmZrGJ7G48F2Cm4kZGRzJ49m/POOw+TycTmzZtZu3YtOTk51NXVDdvDVVAYSvz8/EhLS2PhwoXMnj0bvV7PN998w5dffsnRo0cB73qIeSTAoihiNBqZM2cOK1asQJIkPvnkEz744AOKiooUZwiFny0qlYro6GgWL17MZZddRnBwMJ9//jlr166ltrbWa6PxgAVYFEUSExO5/vrrSUpK4oMPPuC1117j2LFj/QpHU1A40wkLC2P58uWsWrWKDquVl196iZycHK+cWx0WFvbH/h4kiiIZGRncf//9NDQ0cO+99/Lee+/T2Ngw3M9KQWHE0dbWRn5+Phs3biQhIYFrrrkGs9lMYWGhx+futwCLokhycjK/u+8+tmzZwj333ENxcTGDFiajoHCGUF9fzzfffIMoiqxevZrjx49zpKTEozlxvwRYAowGA7/+9a+pqa7m7rvvVgxUCgr9wGazsXXrVvz9/VmxYgU5OTm0tLQMWIj7NZOWRJG4uDjGjx/P888/T319/XA/DwWF0w6bzcZrr72GSqUiIyPDo2XV/glw53KR3W7n8OHDw/0cFBROW6qqqqisqiI2NtYjFbrftmy1Wo2vry8R4RHD/QwUFE5bQkJCiIyIQK1We3SefguwzWYjICCAa669Bh8fn+F+DgoKpx0qlYpLL72U5LHJdHR4FqgzoNXklpYW5s2bx333/Q5fX9/hfh4KCqcNarWalStXctNNN1HfWO9xwEO/k9qpVCoqKipYs2YNq1evJiIikscff5z9hYWgOHAoKPRKaGgov7zxl6y8YiWvvPIK2dnZQ69CO5D49NNPufnmm4mIiOD111/n5ptuIjw8fLifkYLCiMNoNLJkyRLeeOMNlixewoMP/oF//vOfdHR0eHzuAaaVFRAQ2LZtG9deey3XXHMNq1ev5oorruDNN9/ks88+4/jx40rUkcLPmuDgYGbPns3y5cuZMmUKX375Jc8++yyHDh3qTKfr+TU8yAvtUJcbGhr417/+xSeffMKKFStYvXo1q1evZt26dXz66acUFBTQ1tY23M9SQWFI0Gq1xMfHs3DhQi688ELCw8PZsmULv/zlL8nLyzspwMdzCR6wAHed7UqSRElJCY888gjvvPMOCxYsYNmyZSxZsoQjR47wzTff8O2333LgwAFaW1uH8fEqKHgfrVZLbGwsZ599NvPnzyclJYWGhka++upLPv74Yw4cONBjZJ43LEZercwgSRJHjhzh+eef55133mHSpEnMmzePRYsWsWrVKo4cOcJPP/3Eli1b2LdvLzU1tUrIocJphyAIBAQEkJiYSGZmJjNnzmTChAlYLBby8vN44IEHyMnJoaampu/zeKEtg1ZapampiZ9++omffvqJwMBAJk2axOzZs5k1axZXXHEFra2tFBQUkJeXx86dOzl8+DB1dXWKQCuMOARBwM/Pj9jYWCZNmkRmZiZpaWkEBwfT1NREXl4e77zzDlu3bqWystJ9248XhuCBC3A/uo+GhgY2bdrEpk2bMJlMJCQkkJmZSVZWFldeeSW33347jY2NHCouZveuXezatYvi4mKqqqrkFJ4KCkOBIAgYDAZCQkJkgU1PT2fMmDGEhYXR1tZGUVERH7z/Abl5eRw6dJCGhoYBvaPDqkILA7y6c+QtKCjg1VdfJTAwkPj4eCZPnsyUKVOYO3cuV111FaIkUlNdw6FDh9i3bx+FhYWUlJRQU1NDc3OzkmpWwWOcFR3Cw8MZNWoUiYlJpKRMJDk5mcjISHQ6HfX19RQWFvLRRx+xc9dOig4UUVNT060sy0AZViu0N3oPURTl4mHbtm0DwNfXl6ioKBISEpgwYQITJk7goosuIigoCEEQaGlpoby8nMOHD3Po0CGKi4upqKigqqpKrnmjoNAVjUaDr68voaGhxMTEkJCQQGxsLElJScTExBASEoIgCNTX11NaWsrmzZvZu3cvhw4doqysjMbGxhGrBQ58BB6kBrW0tFBUVERRURHr1q1DpVLh6+tLSEgIMTExjBs3jtjYWOLj48nMzCQwMBCNRkNzUxM1tbUcO3aM0tJSjh07xvHjx6msrKS+vo6mJodwK3PsMw9n/SyTyURwcDAhISFER0UTMzqGuNg4oqOjiYqKIiAgALVaTVNTE9XV1ZSUlJCTk8OhQ4coKSmRBwFvjK5uMaxz4EET4e6IokhTk6Pe7uHDh9m0aZOj4RoNPj4+hIaEEhUdRWJiIgkJCYwaFcM555xDUFAQRqMRQC58Vl1dTWlpKZWVlXLRs7r6Oupq62htbaWtrY2Ojo4R29v+HFGpVGg0aoxGH3x9ffH39ycsLIzQ0FDCwsIIDw8nKiqKqKgoQkNDMZlMgKNcbGNjI5WVlRw+fJj169dTUlLiqE5ZWSl/18Oav22g89AueKBCD6/fs81mkwW7+HAxP/74o+OZdNZbMplMBAYGEhYWRuzoWCKjIjvnOYlkZWXh6+uLXq9Ho9HItYGbm5qprqmmrq6O6upquSaws+ZsS3MLzS3N8pdvs9mUUqT9xCGQGnQ6HRqNBqPRiL+/P76+vvj5+REcHExoaCj+/v4EBwcTFhZKcHAIgYGB+Pn5yQXBLRYLTU1NNNTXU1FZSW5uLqWlpXIHXV9XL39XI7VDlobTkWOkIkkSbW1ttLW1UV1dTVFRET/xE9C9+LfJZMLXz5fQkFBCQkIIDQ0lMjKS8PBwQkNDSUhIwM/PD5PJhE6nczidSxJWmw2LxSIXkHbWFW5ubqa1tVUuOt3S0kJLS4vcObS1tWG1WuWi4Ha7XS4O7ixC7XzRRFGUi2c5fx4qBEHorPEDgqCS0586S21qtdrO2sxatDodOq0OrVaLVquVC6b7+vpi8vHBx+So6RsQECAXVPf19cVkMuHv54fBaMRgMKDT6RAEQX4m7e3tNDc309TURE1NDYcPl1BdXU1FRYXcsTY1NdHS0ozZ7Kjz+3PNhHrGCXBfSJKEzWbDZrPR2tpKVVUVxYeKT9mvayV5vV6Pr6+vY4Tw9SUwKIigzs3Pzw9/f3+HKt8p9D4+PhiNRvR6vSz4jpKUAI6X1DnHslqt8khut9tpb2+XP3ca4zo6OuTyln0tqbW2tmKz2bpnd+h8pyVBQiWoMJlMPeYjdlpjncJrMpnk6n1arRYAvU6HVqeTBVir1aLRaFCpVHJRr65F7Do6OrBYLLS3t9Pe3i53buXl5fLPzqLrzqLbzk6vvb1dfjZnsnYzoh05TmdEUcRiscgjrCuPGkB+kXWdL7lOp5M7AL1ej8FgQKvVYjQa0el0GAwGfHx88DH5YDQYEQQBX5MJlVqNTqeT5+9GoxGNVoMKFVFRUb0mBHderzckSeq1JKsoirS2tiJJklxSU5IkrB1W2todfuxms1kWSKdW0d7ejtlsxmw2yx2N83+nADo3u91+og60goPTxZHj54BT1R0UC6YgIECf5SvdqSbf22jWVX2XHB8M4ZP7+TK8vtDKdzx0SA6T4ZmsTv4c8YYjx+DVPVRQUBh0BizAgqJDKyh4hhe0WGUEVlAYLrzgyDFgAR5uRw4FhdMdbzhyKCOwgsJpjCLACgrDhDesSIoAKygMF8NpxPLGGpaCws8Zb1iRBm7EUmxYCgoeoThyKCicxgzrCKw4cigoeMYwG7EUHVpBYbjxwJFDQUHBE4ZVhVZQUBh+FAFWUBgmlIwcCiMaQYCEOBUp41R0Zubpkuan05e/8y2WJMePzs+lzs+7vuQqFbS1Qf5OO1XVUrfr6PWOgy2W08hLfzgzciiOHAquGJuoYs0/9UyaqHa8L729sH39DYfgiiIU7BN54XUrnanDAIgMF7h4kYbZZ6uxi7DhOzsffW6jtm7ki/GwZuRQHDkUXJE2WUXaFDVqNSA5Xti++n3nKyXvIziEt+y4xBvvWnnlbRuHj4pIEvgYBRbMUXPLai3Z6WoMeschF5yn4eKFGp56ycrG722YR3ChjmEu8K2g0Df6TqHq2tm72++rVNDYLPHFBjvPvWolZ6sdux00GkifoubmVVoWL1Dj7ycgimDrzDak18Hc2WqmTVXx8edqnnvVxs49jmNHGt4YBD0oraLo0AreR6UCmxU25dp57mUrX3xtp7XN8aYnxqm49nINKy/RMjpGQJLAflKSTUfuMAjwF7j2ci3nnK3hzfetvPYfG0eOjawE78JwVmZQVoIVXON+Jy8Ijr2LDjnmue99bON4peMdCwwQWL5Ywy+v0TJlggqV2jEn7gupU2WPjxX43a91XDBXwwuvWfnwMxsNjSPl3R3Gygwj5RGcUbgw5pyJCAKoBKiulXj3Yxtr3rCyt9Axz9XrYdZZam5drWP2L9QY9Y4Rtz+FKkTRcY1pU1RM/LOeJedreGpNBz9ssTPchSyHN62sgvf5mQmvSgVt7RIbv7fz9EtWNuXY6ehwfD5pgopfXqPl4kUawkIERPup6nJ/sIuO+fGFc9Vkphn46DMbL7xupWCf6NF5hxtFgBWGHJUKRDts2yny1JoOPltvl9Xa6EiBKy/Rcu0VGpLiHX5G3jJASTgEOSRYYPXVWubMUvPaf2y8/q6VsuND33sOryOHYsNScEl3oXDOc4+WSrz+HyuvvGPjWJlj+PM1CVwwV82tq7VkTFWj0bivKgucWJJxzn37bFXnDonxKh64R8cF56n514udBrPWIRTk4bVCKyi4QpD/VamhvkHis/V2nl5jZUeBY2lHq4WsdDW/uk7L+XM0+Pk6BNcd4RUAodM7q7beIQ2hwQI+RsfxruRDFB3awPQMNRPHq/l8vY2nX7KydYddXpYagsfjEYojh8IgIqFWgdUGP/5o56k1Vjb+YKetXUIQHJ5a112p4fJlWmIiBUTJ/XmuSgVWK2zJsbPmDSs7ChwHpqequX6lhuxparRa9zoCuwi+JlixTMOMLDVvvmfl5bdH3rJTTwxQgL2R0VbhTEeSYE+hyMtvWfnPRzZqah29fkiQwKUXOZaFJiSrUAn9EFzBcd4Dh0RefN3Kfz60UdnFL3p/kcjG721cfrGG1VdqGZOoktviqq2SBKOjBX5zu475czQ8/ZKVjz+30dwyOKPVMDpyCChKtIIrtuSLbM43c+iwY1nIaBA4d6ZDXT5nhhqdrlNdduNFdi43VVRLvP+JjRdft7K/SOxRCCqqJP75nJV139j55dVali/WEBHmGOFdCY0onVh2evKvehbOU/PUGocnmNXq3eejOHIojGiKih3DqloNqSlqbrxGw0UXaggOFNye5wKoVdDSChu+s/HMy1Z+ynMsN/WFJMHeQpHf/snCJ1/auPk6LXPP0eDr495obxfBaISLF2o4K0PNW/+18dIbVg6ViF6cPv4MHTkEQcBkMhEWFkZoaCiBgYFoNBokSaKtrY2mpiZqamqora2VK9uPZEwmEwCtra3D3ZRBIThI4JfXaLnuCi3xowV5KccdVCrHElLONjvPvGzjs3U2mpr79312dMA3m+xs2yWycL6dm1dpmZaqQu2mN5ddckQ83XmTlnnnqHnmZSvvfmSjxQvW6p+NI4dKpSI8PJzs7GxmzJhBRkYG8fHxBAcHo9Pp5KLXdrudjo4OqqqqKC4uZvv27WzcuJGdO3dSV1c3IoV5xeUraG9r5+233x7upngdk0ngT7/Tcd1KrVsC48S5JFRcIvLauzZe/4/n67SNTRJvvW/lux9tXHu5lqsv05AQq0LCPbUaYMpEFY//n46xiSr+9GgH7WbP2nTGB/QLgkBiYiIrVqxg2bJlpKSkYDQaXR4XHBzM+PHjufDCC7ntttvYtWsXb7zxBh9++CHV1dXDfVsyQUFBrLp2FU1NTaz9dC3NLc3D3SSvkp2u4rKlGjme1xUCjlG3pk7io89tPP+ald17xX65Trqi7LjEw//s4IsNNm68RsvSCzUEBwluLTvZRTAYBK68RMP7n9jYutPDtabhXAcebBuWwWDgsksv5Z577yUlJQW1Wj2g8wQEBDBz5kyys7O5+OKLeeihh9i0adOIqHY/Y8YMpk2bRltbG2lpU/n+hx+Gu0leJTFehclHcGvOqFZBuxm++dHOsy9Z+e4nO2bL4GhMdhG27xa5+/cWPvnKLhvVDHrX6r3DGAeBAcPwQHtg4HmhB1EbDQ4O5k9/+hP/fuoppkyZMmDh7YpOp2PBggW89dZbXHPNNWg0w6t86HRaLr74Ynx8fAgNDWXZ8otRqc6sFGU6ret+3qku7ygQuef3Fq67zcxX39gGTXi70m6GLzbYWHWbmf/5o4WC/WK3NrnTbo8YzsoMg/V4Q0JC+Otf/8qdd96Jn5+f188fHR3No48+yo033jisQjx+/ATmzp0r/37+gvOJi4sbtvYMB4IALa0ST62xcvkNZta8aR2WUL+6eonnX7OyYrWZp9ZYaWqW+hRQQRBQqUbGMqoHlRm8j7+/P3/+859ZvXo1WjkLmvcJCQnh//7v/7j88ssH7RquWLJkCbGjR8u/jxkzhgULFgxbewYDib47elGEF1+38fuHLBw+OrxeT5IEBw+LPPAXC/94xtr3mq8geWUN1xt4oLN5V4QFQWDVqlWsWrXK7ZFRFEXMZjOtra1YLJZ+WZmDg4N58ME/kpWV5dX7cIeoqCgWL17cTQ/TaDSsXLmSoKCgIW/PYNHX16ESoLpG4r2PrZjNw93SE1g64L2PHUEWvc1oBEA1QrI6erAO7N0eKHVqKnfeeScGg6Hv60oSx48fZ+PGjfz4448cO3YMi8WCyWQiMSmRmb+YycyZMwkNDXV5zTFjkrjzrru46cYbaW4eOgvwrFmzmDJlyimfp6WlMWPGDD777LMha8ug0scrIghQWydRUTUyRrKuNDRK1Df0Mc8VBIQRYq4YEctIarWaa6+5loSEhD73s9lsfPLJJzzyyCNs376djh7ccZ579jmmT5/Ob37zG+bOnetyNF+yeDGfLVnCm2++OST3ajQaWbFiRY8dla+vL0uXLmX9+vU93tvphivRtNkZmqif/rZbArEP9aFr+KJH1/FCW0dEP5KUlMSSJUv6vllJ4pVXXuHGG28kJyen1xe8ra2NjRs3smrVKl588UVsNluf5zUYDKSlpaFRD01fNnXqVH7xi1/0+vcFCxYwYcKEIWnLoOOOj/Nwt7GvlvXU/s7cuN6wYQ1zdULvcdZZZxEbG9vnPps2beL//b//R21trVvnrKys5H/vv5/XX3+917lxSUkJ999/H4888gg2u82t83qCIAgsW7aMsLCwXvcZNWoUixYtGvS2DAWuTBLCaRoT44xD9hgvDMEDb4aXHrwgCMyYMaNPVddsNvPCCy9QWlrar3PX1dfzxz/+ke+++67b5+3tbbz//vusWLGCxx77O1VVVd65GRckJSW61DQEQWDRokVERkYOSZsGE3fez5Erv1LvjfPSCOwNBi7AXrI9+Pj4kJSU1Oc+JSUl/DBAL6WjR4/yf//3f1RWVgKwZ88ebrvtdlavXk1ubi6iN/30XDB37jyX9woONXvWrFlD1q5B43QdgYXOf6Te/zxSHDmG3Yjl4+NDSEhIn/uUl5dTV1c34Gv88MMPvPDCC8TExPDoo4+yb9++Ib/PwMBAli1b5tYSmcFgYMWKFXz66ae0dy0EdJpx2o7Ap9R4OanNnSVfRgLDXplBo9a4XDpqamryyCprtVp56KGH5HXj4WDGjBlMnz7d7f1nzpxJamoqW7ZsGZb2egV3RuARS9+NHyltH/Z+xG63YXGRYdvX19djz6y2trZhE16NRsNFF12Ev7+/28eEhYU55ssj5U0ZAJL8T894TRUdFHpumMSJ7CAjgWF35LB0dLh0ooiNjSU0NHRInS28SXJyMvPnz+/3cUuXLmXNmjUcOnRouG9hQEiuyhF6OAf28RFIThSIDBcwGAXUKsc1m1skCvaJcmmWgd9Az02GkdPxDPscuLWtlePHj/e5T2xsLNOnT+fw4cPD3dwBcfHFFxMfH9/v48aOHcvc8847bQVYdobubS7JwOXX5CPw4P/ouPxiDX4mAY2mM+EdYLPBZ+tt3HyPxesJ6ZwjsDeWkc4IRw6b1UZBQUGf+xgMBm688Uaio6OHu7n9JjIyksVLFg/oWI1Gw0VLl/ZL9R5JSK7+JgxcgJPHCFxxsYaIUAGD3pF3S1A5jEtGg6M2cUjw4A2TgheG4DPGkWPbtm0u56ezZs3ivvt+NyghhoPJ2b84m8mTJg/4+LPOOqtfxq+RhKsqCYL8T/+JjlBh8uk5gbskOQTMC2HkPbfZcRUvPCDPTzHsjhzgEOC9e/f23VCVihtvvIknnnjitImb9TGZWHnFSrfSAPWGc/lJPcwJCAYFD0bgwADQaISeZUBwuN6KnvpZ99C4kRZ6MeyOHOBY53UnAken07Fq1Sreeustll9yCT4+PkPxjAZM6pQpnH322R6f5/wFCxjjhgPISMOlKyUM2Bqk1Qp9rsWKItjdSTg9nAxnRg5v8/bbb7schcExEs+YMYM1L77ImjVruPDCCwkIGCEJirrgdImMiIjoc7+ysjKXRry4+HiWLr1ouG+p37hcqfBgBO68QK+IEoiiJ2cf4cLfiQcZObxrINi3bx//+te/3F6rDQgI4PLLL+edd97hvffeY+XKlURFRXnFuOAN4uPjWbZsqcv93nzzDd55550+9xEEgSVLLiI8PHy4b6t/SH1/F57MgXFxrEoAlcoTIRT68enw4cEI7P0e6q233uLNN9/sl3+yn58f8+bNY82aNXzyySfcfffdJCcnD3vSurlz5zJ2bHKf+1RVVfHuu+/x4YcfunQVTUtLY+bMmcN6T/3FYHBHQx6ckU5QDTxvlUbjSMjXU9NOfDQyRHlEVWZoamrigQceIDAwgIsvXt6v0dRgMJCRkcHUqVO56aab+PTTT3nnnXcoKCgYcn9iPz8/li9f7rIT+eGH7ynYU4BOqyMnJ4cLLrig132NRiPLli1j7dq1Lj3X+oNW45hPajT98O/ttC4757gn/y8IEBYqcN5MNWqVe7WP+ovk4o8aNQQFQJ1fz3Plrm12buBYjjo7W83oGKHHdnvVCu0FRpxps6KigjvvvIu2tnauuOKKfo+kGo2GsWPHctddd3HVVVexceNGXnjhBTZv3jxkgjzj7LM566yz+tzHYrHw3/9+iMVswWK28PHHHzNv3rw+73f27NlMmTyZvPx8r7RTo4E7btJx3iw1Oq1DmF0OLBJykTDnJkogiSd+12gc5UjiY1WDVoa2r2ZKEoSHCTzzdwMW88lhgY7yhs52O2s0Oe/JxyiQECsQHNhzPmtv3s4ZW1qltLSUu+++m7KyMm666aYBJXoTBIHw8HAuv/xyFixYwBdffMFLL73Epk2bvDqCnYxWq2X5xRe7dL7Yu3cv33//vfz7+vXrOXToEOPGjev1mJiYGC5autRrAmzQC8yZqWbBuWqvpLZxyolzdHan2sFgIAEGHaRNUvVL0xU6jxXFoal/fcY4cvRETU0Nf/zjH7n66qv5+uuvsXpQ2zEoKIiVK1fyn//8h4cfftitmNyBMmbMmG75nnvjiy++oKysTP69pKSEL7/80uVxCxcu9JpHmgAgOfJS2b2wOXNc2e3u10EarLmks4haf9tvt/ctvELXC3ijkR4ycCv0EMzhLRYLn332GVdeeSV33303OTk5Ho2eISEh3H777bz33nsDCi5wh8VLlrh0NKmqquLTTz/tlupHFEU+/PBD6uvr+zx24sSJbnUQ7uA0Eo8Mc0x/G8/wTkNHyEMbeGWGIXx4lZWVPPXUUyxZsoRbbrmF77//fsCRSSqVirS0NJ577jlWrVqFTqfzWjvDI8JZunSpyxIpP/74Izt37jzl861bt7qM/9XpdFx++eX4+vp6rd3DJQceXXeYsnl49VmdSY4crpAkiaqqKl566SUuvvhiVq5cyVtvv0V5efmAzhcfH8/jjz/OlVde6bW147NnnM3U1NQ+9+no6OC///1vjwa1lpYWPvzwQ5eZNM+aPp3MzEwvPFRlEDvdGTGOHP2htraWtWvXsvr61Vx00UU89NDf2Lt3b78rDgYFBfHgHx9k3jzPVVK9Xs9ll13m0u953769fPPNN73+/ZtvNroMHwwMCnI7PY/Cmc2IcuToL2azmfz8fP73f+9n0cJF3HHHHfzwww9Y+pF5Iy42jv/3//7kMq2tK1JTUzn33HNd7rd27WfdjFcnc/hwCRs2bHB5nvPPP5/ExESPn6HL6oE4Sn+q1Z3/d916+qzLNph2EnemwKrOdpz8/8lb17+72pz7jRTtYUQ5cgy4LZLE4ZLDPP3007z33rssXrSY2++4g9TUVLfU4+zsbFavXs2f/vSnAdcNXrZsmUu/58rKSj795JM+97Hb7XzyySdcdeWVBAQG9rpfYmIiF154IQcOHBjwc3PnJbRY4accOwX7RaxWCbUaVCpBfpkFwWHtFUUQ7Y4AAkmC8FCBBXM0hIW6qg88sDfJnSlw3nY7X39vx2zuWQidS11y+0X3rOeiBDv3eJ7N9IxdB/aE6uoaXnr5ZX7YtIl77rmba69d5TJpniAIXHvttbz77rvs2bOn39eMi4tj4cKFLvfbtGkTu10kLwDIzc0lf+tWzjvvvF73UavVLFmyhNdee23gGTtdSIBaBd/8YOOmuy1U1XRxIhS6/w+nemNpNfCH30jce5v3jIRu35YA9Q0SD/6tg40/jMDaLc52euEcp40Rq78UFRVx772/4f7773e5NAMwOjaW8/twZeyLeXPnMX78+D73sVgsfPTRR7S1tbk8X0NDAx9//LFLn/CMjAyPjFnuqKH7i6RuwgtdPLC6jFpd3REBrDY4eFjCtULjfWVUwCHAh0pGkp44OJyxAgwOq+6//vUv/va3v7l0o1QJAhecfz4B/v0LTfT392f5JctdZs3cv3//KRUi+uKLL76guLi4z338/Py46qqrBr4UJrkWH5t94EIguuUEPcDz99X7CJ2OGbYRLsBnuiOHN7DZbDz77LN88MEHLvcdO3Ys0TH983LKysoiOzvb5X6ff/45x44dc/u8hw8fdssza86cc5k4ceLAHo4b36EndXDdW54b2PmH24/DKwznOvBQOnJ4SlNTE48//g+OHj3a535hYWGMS05286yOeeiyZctc+mrX1NTIGUfUarVbm91uZ+3atTQ0NPR57ujoGLfm373hjiV34AzeCHw6vX+DyRlnxOqNgoLdfPftt1x9zTW97mM0GontR76tMWPG9BkC6ESj0XDXXXdx8803u+00IkkSJpPJpVcXONLWvvLKK30uT/V8ERd/F0AQBk9SHEEPzhCCwWAwzz0yGPbSKkOF1Wrl2+++48qrrupTKPqTnmfRokVu5XsODAxk+fLlg3ZvEydO5Nxzz+WNN97o97F9fosSAw6Kd+e6HR3QYR3oCCzJ5+n9DGe28MIIdeTQ6XTExcV5XE7lZA4cOEBLS0uf+7grwGFhYSxbtmxEpPAxGAwsXbrU+0n+OkuIDPQOpb6OFKCxScINo3zP53YuW/V86p8NA58DD0JjDAYD06dP58knn+T1119n9OjRXj1/Q0ODS2u0u44c55xzDunp6YPwFAbGOeecQ1paWr+Pc6lFqxiwRLS0OJw6NOouXltqx+8Au/eKtLV5NgfuqWmny7h7xjhyGI1GzjrrLFatWsX8+fOJiIigvb2dSZMmuVxK6Q9qtdrliOlO1g7niOdJvmdvExoaytKlS9m8+Sc3l28cuDIGeaJBb8m389QaK1MnqTAaBbQasNslmltg116R5161Yh+gQ5MzacDpIqw94Q1NYVgF2GAwMGPGDK6//nrOP//8bnWCjUYjM2fO5BMXrof9ISAgoE+hkySJmpoal+eZNGmSW37PQ82iRYt46qmnKCkpcWt/Z/VAwdU+A+R4pcQDf7Hg43Mi55YkQocV2trdcfLoo12ns+R6kYELsIfdh8lk4i9/+QvXXHNNr8swc+bMISIigsrKSq/cbGJiIiaTqde/WywWtyy5y5YtG5F1msaOHcuCBQt47rnn3DtAcr2eKnno8muzQ1PzUGe1O00YVkcOL1w8OTm5zzXUlJQUzj//fM8vhMMwNmfOnD4t0HV1dS5V9piYGC688EKvtMnbqNVqLrnkEoKCg90+xtVIJkojc7Rzp00jwL7oooGen2LYopFaW1v58ccf+1xH1ev1XH/99Xzx5ZdUeTgKT506tc/gAHD4Tx85cqTPfc4991wmTJjg8nrffvstu3bt8pqVWpIkt3JDZ2dnMz07my+++MK987r440gUXsfzcJG7SnB6go3QG/ASHqwDe863335LTU0NoaGhve4zY8YMrlu1ikcffbRfCd+74ufnx69uvtml2vvdd9/16fnk5+fH1VdfjV6v7/M8VVVV/O53vyMnJ8erAnz++efzzjvv9LnU5efnx9KlS1m/fr3LzB6SK/1Z6E9yuqHFPbE8s4UXPFoH9vzF3LFjB5s2bepzH41Gw6/v+PWA11xNJhO/+93vuPyKK/rcr6amhq+++qrPfTIzMt2K/tm0aRO7d+8GHILnjQ0gJyeHrVu3urz+3LlzXUZHOZH6MmJJns+BBwuXhdOE00CF9gIerAN73ru1trby/vvvu6yHFBUdxeOPP84VV1zucvTryqhRo/jLX//KXXfd5TIm+Msvv2Tbtm29/l2tVnPR0otc+j1brVY++eQTt8IG+0t9fT2ff/55t2yWPZGQkOC2f7Q7c+CRSF/rwNBVhT6zGfZwws8++4z169e73C82Npan/v0UjzzyCBkZGb0KpEajYfTo0fzqll/x/vvvc9utt7pcrz1+/DjPPvtsnx1JcnIyixcvdtnOwsLCfoUN9pcvvvjCZVSTIAgsXbq0z6kJOBXMviXUVWcxYjkNRuAzwpGjoaGBxx9/nMzMTCIjI/vcNzAoiNtvv51LL72UnJwcduzYQXl5OWazGZPJRHBwMCmTUkibmsaYMWPccsW02WysWbOGnJycPvdbsGCBW3mzvvrqK5dRT55w4MAB1q9fz+rVq/vcLzU1ldmzZ/P+++/3vpMrI5UAviYBQRh5xiy9ziGgPTarc1ow0gX4tHfkcPLDDz/wxBNP8OAfH8Ro6Hu0FASBqKgoli5dytKlSxFFEVEU3fKy6onPP/+cJ598sk+DT3BwMEuWLEGtVvd5rtraWj755JMBG9vcwWaz8d8PPuCyyy7Dz8+v1/2MRiOXXnopa9eu7VWzOBEN1AsSTBynIjhQoLZ+5EiwWgWTJzrqOfWu4p8G4TbDuQ7szadjt9t5+umnefmll/udVE6lUqHRaAYkvBs3buS3v/0t1dXVfe43c+ZMsrKyXJ4vf2s+27dv996D6YXNW7awzY3rnHvuuUydOrXPffqyZYgiZExVc+sNWoICR4Y4aDRw8WINK5Zq6EN2EQRpxI/A3mDgAuzlDrm5uZk/PPgHnn322UExAHVFFEXWr1/PLbfcwv79+/vcV6fTcckll/TpwQWOTuijDz8acMWI/lBfX8/HH3/scn4aFhbG4sWL++hr+3YmlgCjEe65VcfL/zIwZ6Ya/dDnqAMc6vDYRBV/vl/PE3/RExUhuFgHFka+AJ9plRlqa2r57W9/y4MPPkh5+fFBuUZLSwvPPPMMN9xwA4WFhS73nzhxInPmzHG538GDB90yxnmLr7780i2f5wsuuIBRvUV1uREMIEmg08AF56l57WkDf3tQz8RxKg8zdfSP0GCBm67V8s6LBn59k5bgIGHEWseHGg8qMwwOra2tPPHEE1x55Uo++ugjWltbvXLejo4OtmzZws0338z//M//uG1oWr58uVt+z19++SWHDx8epKdyKgcPFvH111+73G/SpEm9uqPa7bgVj+us9BcSLHDzKi3vvGDg9l9qiQgb3CHOYIAL52p4+d+OjiNlvMqlBxY43k2LRcJsOfOlfFgdOXrDZrPx7bffsmrVKq6++mo++ugjqqurkfrZ7YqSRF1dHevXr+e2225j2bJlvPnmm26r6KNHj3Zr6cjdNLDepKPDyqeffuqyg9NqtSxdtqxHg5fVBl9ssNHY7F7uK6fwJI9xqLJvPGvgogs0+Bi9+y6oVDB5oorH/0/Pmif1zJ+tRq91zyvMqTZvyrFTVX3mC7AHvtCD/3AaGxv58MMP+eqrr5g8eTLTz5pOxrQMxo4dS3h4OCaTSV4PliQJi8VCS0sLNTU1HDp4kB07d/LTTz+xa9cumpqa+n397OxsoqOjaW5u7nW+qVar+f77793ykPI2W7ZsITc3l6ysrF6Nf4IgMHHCBFJSUnqsfPjxFzaiIi3cfoOOmGjBrRFOFB1B+bNmqElNUfHJl3aee9XK9l12jwuFx0QKrLxEy6qVGpLiHSOuOzHDAg7Bb22Djz638ci/rHQMvKT0acOIWEZyRVtbGzk5OeTk5KDVavH39ycoKIiAgAB8fHwQBAFRFGlvb6ehoYGGhgaampo8KgoOkJ+fzyWXXtLnRFEQoLz8OE3N/e8gPKW6uppf/epXREZEuHLH6DVIw2yBf79gJWeryC3Xa7ngPDV+foLLWF0Jhwru5ydw1WUaZs1Q8+b7Vl59x0bJ0f5rIn6+Agvnq7npWi2ZU9Vo3BxxwSG4djts2+FIEvDR57bBCWH0MmeEI0d/sVqt1NbWUltbO+jXKikpcTs4fjiQJInCwkK3jHF9YbPD5jw7u/eKXDjXsWyUkapGrXEtRM4ROzZG4H9u13HBeRqef83Kf9faaGh0/YpqNTA9Q82tq7XMPUeDn6/7NYqc/s7HyiRefcfKa/+xcbR0hDpv99R+L5zjtBNghcGjpVXi3Y9t/Jhr59rLtVyzQkv8aEFOX9MXouQQprTJjrnrovkannm5g+8327FYTt1fECA5ScX1V2q5fJmGyAhBLjTmCqe63NAo8ek6O8++7FDfB5qeZ9jwwhA8bBk5FEYuZcclHn6yg6822rlplZYl56sJChDcEhC76HBzXDhPTVa6gQ8/s/Hi61YK9ouyWh4RJnDpRRquv1LLhLEqR4VDN+fOKpUjHe1PuXaeednK+m/ttLWPfHV5sBi4AP98n9nPArsdtu60c+f9ImvXqblttZYZme7NTbsuO91wtZY5M9Vs+N5O0SGR0BCBWWepmZaqRq8/URjNFapOv+f9RSIvvGblvU9sp7+VeTgzcij8PGhrl/jkCxtb8uxceYmW66/SMCbBsebkSvCcf0+KVzEmQYVdPFEc297PeW5VtcR7H9t4/jUrBw6JIy64Yrj42VRmUPCMqhqJfz7XwfrvbNx0rZaLF2kIDXbMW13Jktgl80d/lsrVnctCG76z8fTLVn7KtdPRMdxPYmShjMAKbiNKULBP5DcPdrB2nZ1brtcy+2w1Br17xid3cS4L5W238+wrVj79yk5j09ANuSaTieioaJLHJRMfH09oaCg6vQ6L2UJ5eTl79uxhz549A/It8DYj2pFDYWRitkh8tdFG3nY7lyzWcNMqLROTHcYoT3yUhc4yLkdLJV77j5VX3rZSWj7475lerycyMpKUlIlkZmYxbdo0xowZQ1hYGDqdDpVKhSAISJKE3W6nubmZHTt28PLLL/P555+7zCgzmCgjsMKAqauXeOF1K99ssrP6Ki0rlmkcUUJuqNVdcS4L1TVIrP3KMeru2D14y0JqtZrQ0FDGJo8lY1oGmZmZpKSkEBUVJdeXkiQJURRloe2Kv78/5547m4yMDNasWcMjjzwyoNH4Z+nIoTCykCQoKhb5/UMWPltv45brtcw/V42vj3vLTs5loU05jmWhr7/z/rKQIAgEBAQQn5BA2tSpZGVlkZqaSmxsLH5+fqjVKkRROkVYHSGJgjz6dt1sNjs+Pj7ccssttLe38/DDD7vMAnpKu7xwb4oAK3gFqxV+2GxnZ4HIovlqbl2tY+pkFWp1z4YreVnogMjzr1l592MbNbXeEVxBEDAajYwaNYrJkyeTlZVFeloaSUlJBAUHo9VokRBlobV1OnALgoBapUZQCdisVuobGqivr8dsNmM0GomMjMTk44O984YkSUKtVnPTTTeRl5fHunXr+tfQ4XTkGPHB0grDQlOzxFsf2Phhi8iqKzRcfZmG2FEnwgCdy0KVVQ6vrxdf9/6y0LRp07jvvvuYMGEC4eHhciZTp0pssztGSofqrkKlUiGKIs3NzRw9epSdO3eSm5vLzp07qKyqwtJuxmA0MmnSJG644QbOPfdcucKHJEkEBwezatV1/LBpE+2DnIziZAZuxFJsWAp9cKxM5K//6OCLDXZuXqXl/PPUBAcJNLdIfP29w/3xpzw7Hsab9IhGo2H69On4+/tjt9u7qcVOgxQ4KlEeP36cPXv2kJuby9atWyksLKS2trbH6K5jx46Rm5vLo48+wiWXXCqHj9rtdrKzsxiXnMyOHTvcb6jiyKEwkrHbIX+HnTvuF0mfomLSeBWHj0pszrP3O1pIEAT8/PyIi4sjPT0dHx8fXn755R4twEVFRRw8ePCU+s02m43a2joOHCgkPz+fvLw89uzZw/Hjx+lwc4G5traWxx77O+np00hMTJRH9ZCQEGbMmNE/AfYCiiOHwqDT1iaxaYudTVv6FyxsMBiIiYkhZdIksjIzuy3vlJeXs27dOg4dOnTKcXV1dezYsYNp06bJn6nVajZs2MAf/vAHjhw54lGml3379rFu3Tp+9atfyZ9pNBpSUlJQqYR+1Wf2FA9GYEWHVvAuWq2WsLAwxo0bR0ZmBpkZmUyYMIHIyEg5cYNTbQ0LCyMlJaVHAZYkiZycHK6++upu1Sh9fX05duyYx2maJEli8+bNXH/99Wg0Gvmz+Ph4jEYfr6WBcodhq06ooKBSqQgMDCQpKYn09HSysrKYPHkyo0aNwtfXF5UgIEoSkiSeMif18fHhrLPO6rUA/M6dO6mtrSU8PFxe0x07diyJiYns3LnT47YfPHiQxsZGQkND5WwtPj4+bhUTcKKsAyucdvj6+hIbG8uUKVPIysoiLS2NhIQEAgMD0Wg08pxSFEW6rj4JgiCPphaLhePHj2O329FqtT1mXjly5AhFRUVERkZit9tla/HUqVO9IsBmsxmbzdatakVbW1u/ssAo68AKIx69Xk9UVBQTJ04kK8vhppicnOzwL9Y5kkzLyztdHCGcAisIgpyF5eDBg2zdupWcnBwKCgooLy/vVWBaWlrYujW/Wz1lrVZLdnY2r7/+uscJCAODgjAajSeKrAkCRUVFg57T/GQUAVbwOgGBgUyZPJmMDIeb4sSJE3t0U+zm9YSAoHIIrd1up6mpiSNHjrBzxw5ycnPZsX0HJUdK+kwweDK5uXmYzWZZrZUkidTUVEJCQlxW43DF7HPOwd/fH0mSEASBtrY2vv322/4Vg1McORRGInPOPZcnn3wSf39/1Gq1Qx3uwafY4UThyITZ1tZGWXkZewr2kJubQ37+VoqKiqirqxvwaFlQUEBFRQVxcXFyDa24uDjGjh3rkQDPmTOHVatWyQ4gKpWKLVu29L8q5XCuAyuOHD9ffHx8GD16FKmpUwkKCuKNN97oZnktKSmRVdue1GJwJNo/fvw4hYWF5OXnk5eby759+6ioqPA4m6iT8vJy9u7dS0JCgqym+/n5MW3aNH766ad+ny8gIIClS5dy7733Mnr0aERRRFCpKCsr4/HHH6e+vn7IvwtFhVZwm0mTJnHR0qVkTJvGuHHjiI6KZkvOFt54441u+xUXF3Pw4EHCwsK6jbqNjY0cOHCAbdu3kZuTy65duygtLR20eaPFYiEvL48LLrhA/kytVpOVldWr8etkdDod8fHxnHPOOSxatIgZM2ag1+tlraDDYuGll15i8+bNw/GVKI4cCu5z6WWXcu8998qjmUqlor6+/hQvpsbGRrZv385ZZ50lf6ZWq1m7di333XcfTU1NQ1Y4PD8/n5aWFkwmkzz3njRpEpGRkT0WSler1YSGhDA2OZmMjAyysrKYMmUKMTExDiu5Xeym0qvVaq688komTZrEf//7X9atWzekhizFkUPBLQRBIDAgsFvInUqlora2tscwutzcXFavXi07OoCjVI1zSWeo2F9YSGlpKePHj5dDAaOjo5k4cSLHjh1DEAT8/f1JSEggLS2N7OxspkyZQmxsLP5+fqicc3hR7NE/WqVSkZCQQFJSEvPnz+eNN97gT3/605Bl61AcORTcQqVS9Vhfqa6urkeB3L17N1VVVYwaNUoesZOTk4mNjWXv3r1D1u7qqip27drFxIkT5XYYjUbOP/98jD5Gzpp+Funp6Z2hhkGOUEPnOrQkIdpsctSSMzbYiVOwnZvRaOT666/nyJEj/Otf/3LZNsWRQ2HIUKvV+Pr6dvtMFMVeK2SUlpayf/9+YmNHd1ZaEAkLDSU1NXVIBdhut5Obm8Mll1zSrd1XXXUVV1999amhhp3ahCAIqNVqwOG0UVdXR1lZGYcOHaSlpZWQkBCmTZvGqFGj5A5MkiQ0Wg2rVq1i7dq1LqtVKo4cCr2iUqkICAigra0NS0+lEfqJRqPBaDTSddyw2+29Wl7b2trIz89n7ty58mdanY6srCzeeeedIVWjt23bTkNDA0FBQfJ1nWvDTrXYKbAC0GG1UldXR1FREdu2bSM3N5cDBw5QUVFBU1OT7AE2dmwyv/nNvSxdulQemUW7SGJiIvPnz+e5554b9HtTKjOcIQiCgK+vL6NHjyY1NZWsrCymTp3Km2+9yYsvvOjx+bVabXfPIxxLRHV1db0ek5+fT1tbG0aDUU6COHXqVIKCg6nzoLaVWq0mLDSMcePHMWXKFL766isOHDjQ6/6HDh3i8OHDhISEnJIyR6VSI4p2GhsbOXLkCDt27OgM5t9JSUnvjiNWq5W9e/fwu9/9jvDwcGbNmiWfW6vVMm/ePF599dW+E94NqyOH59dW8CJRUVE88sgjZGdnExwcLGdTDAkJYWv+VrZv3+7R+XU6nexJBYAg0GG10tDQ0Osx+/bto6ysjLFjxyKJjnllQkICSYmJ/RJglSDgHxBAYmIi6enpZGdnMWVKKqNHj8bX1xebzdanANc31LN9+3YyMzO7NF+goaGB77//npycHLZu3crBgwepq6vrtVRrT1RWVvLss8/KMcrO+fPEiRMZPXo0RUVFvR+sOHIoOKmurubQoUMsXrwIEORMFAkJCdxzzz386le/orm5ecDn1+v18gvqxGw292ltraysZM+ePYwbN06eYwYGBpKenk5eXl6f13M4i4xmypQpZGdnk56eTmJiohz0IIkSouTwgsrMyuKFF17oPamcBDk5ObL3FDimGCUlJdxzzz1UVVV59Ox/+ukn9hfuJ2NaBna7HVEUiYiIID09vW8B9gJu1GXvGWUEHllYrVb+/e9/8+2333WLgRVFkfPPP5+VK1d6dH6DwSDH5AKy/29fAtzR0UFubm63EU2j0ZCVldVteQkcI3xs7GgWLFjA73//e95++20+/vhjnn32WW6++WYyMzMJCgoCHKq7XTwxd02bOpWIiIg+279r1y6qq6vlZyOKIrGjRxMTE+Pxs6+trWXj1xu7dW46nY65c+f2K7xwIHhgxFJEeDAwGo1ERkQSFx9HeHi47DBfV1dHSUkJxcXFNDY29nhsdXU1Dz/8MOPHjycqKkoe9XQ6Hbfddht5eXls27ZtQO0yGAxotdouL6lDgNvb2/s8buvWrTQ1NuEf4C+rl5MnTyYyMhKz2cy45GSmdTpMTEqZRFT0qUEPsmWYU5PQlZaWkpOT49IodvToUQ4cOEB0dLR87qDgYNLS0jyeXgB8/fXX3HjjjfL3JUkS2dnZjB41muLDxR6fvzcUR45hRqfTERkRwYSJE8nMzCQtPZ3ksWMJDQ1Fr9fLSxk2m42mpib279/Pe++9x4cfftijBXjz5s38+9//5sEHH5QFThRF4uPjueuuu7jlllsGpEqfHKwuCA6PK1cCfPDgQUqOlDB16lTZiSM2NpYnnniCyMhI4uPj8ff3l4VSEqUeDE2OUbO93UxFxXH27t1Lbm4u+fn5FBYWUlNT43Le2traytatW5k9e7b8mUajITs7m1dffbVf896eKCwspLi4mPT0dFmNjo6OJnVq6sgUYEV8B4ZarSY4OJixY8cybdo0sjIzSZk0iejoaHx8fE68yF2SiHc97he/+AVZWVnMmzePP/zhD6fMsSRJ4pVXXiEzM5Nly5bJL6ZTlb7yyit59tln+91uk8kkx++CQ7Dq6+tdLlHV1tayc+dO0tLS5PYZDAYWLFggt8u5Oc+rVqkRBIGOjg5qamooKioiPz+f3NxcOQndQJbGcnNzaW9vR6/Xdz5bkSlTphAaGkplZaVH32tdXR05OTndEunp9Xrmz5/P2rVre/S7Vhw5TgMEQcDP34/4+Himpk4lOzub1NRU4uLiuoXbyd4/XV5k59qihAQSshujRqNh0aJFGAwGbrvtNsrKyrpds7m5mccee4xJKZMYM3aMfH69Xs+tt97K5s2b+52VwmQyOYxHXVTV+vp6lwEBoiiSm5vLypUru83Nu66/OtViu81OQ0MDJSUlbN++nZycHHbu3MnRo0dpbW31eO3YKfwJCQmdz9uhDSQnJ3sswJIksW79eq666irZ71qSJObOnUtaWhq5ubmnvhseXdGBIsCDgNFoJCYmhkmTJjmqAqSnM2bMGEKCQ9DqTqi1p3j+qFQIKhU2m43W1lZZPfX19cXHx6fbyGy32znvvPO47bbbeOCBB05RAXft2sWjjz3K448/3m15Iz4+nrvvvpvbb7+9X/66Tu1ARpJoaGhwK1Z3x44d1NXVERYW1k0InYaw0tJSdu/eLedmPnTokNvn7g8VFRXs3buXpKSkLuGFvmRkZPDDDz94fP4d27dz8OBB0tLSulmjf/e733HPPfec6pk1nOvAig3rVAwGA6tWrWLevHmMGzeOiIiIbtkUT04b09Ug09LSwrFjx9i1axe5ubns37+furo6BEEgNjaWpUuXsnjx4lOWci655BLef/99tm7dekp7PvzwQ6ZPn851110nHyPa7SxcuJAff/yR559/3u178/X17SbAEvTqRnkyJSUlHDx4kIiIiBMdjSDwwQcf8Nprr3HgwAGqqqr6XVuov1gsFnJzc1m4cGGX70BNZmYmer3eY4+12tpacnNz5emCk/nz5/PW22/xm3t/w6ZNm7x6TwN35FAmwT0yb948LrzwQqxW66lpY7oYZMxmszwinGyQOflFLigoYOPGjRQUFHDfffd1G1EjIyKYN29ejwJsNpv5xz/+QWpqKtOmTXMYkXAYzm655Ra2bNnCrl273LqvroYmcHRI7gawNzU1sW3bNs4++2z5M7VKRWlpKd9+++2Qfj/5+fk0Nzfj6+srP8OUlBQiIyM5cuSIR+eWJIlPPv6YFStWEBwcjNls5nhFBYX797Nt2zZqamq6HzCsjhxeeZynB043xdjYWFJSUsjPz6e4+FTLotlsZsuWLcybN+8U9U8U7dTW1p1ikCkvL3er5zebzbzwwgtMTEnhypUru41ks2bN4umnn+5RJS4pKeFvf/sbzz33HIGBgfJLm5SUxL333sutt97qllXa39+/WySOo8qB+95Uubm53fJTAWRkZODn509z89AVyj5w4ABHjx4lZdIkJLsdURKJiooiJSXFYwEGyM3L45lnniEkJITNmzcPetICxZWyF/QGA9GdX2xmZiYZGdMYO9aRTfF///d/eeaZZ3o8Lj8/n9aWVnxMPnLCs6amJh5++GE2btzokUGmvb2dt958k0ULF+Ln5yfPhxMSE4iMjOx1TrthwwZeeeUVfv3rX8ufiaLIBRdcwKWXXspLL73k8tq+vr6yADszRfYnhUxBQQGVlZXExsbKxrqxY8cSHx/H7t27B/W77EpNTQ27du1i8uTJjrS1ksNmkZmZyeeff+7x+c1mMw8//LDcUQ42A/bEOtNEWKPREBkZyTnnnMPdd9/Nq6+8wscffcxLL73E3XffzaxZ5xAZEYmuM6LmZE8iJ/v37+dY6bFuo5VWq2X//v3s3buXlpYWj6ype/fu5XBx8YnqeKJIcFAwcXFxvR5js9l4+umn+e677+R1ZadV+o477iA1dUqf1xQEobsfNI75ZG8OJT1RVlbG/v37UTkt6531hFJTU73x9bmNI7ww95RpSkZGBiaTyWvXGArhBQ8EWDrNlWiVSkVQUBDTpk3jhhtu4Omnn+ajjz7irbfe4sEHH2TRwkXEJ8Sj1+tkv2JREjtTk04hMjKyx/NWV1eze/fubuUnTSYT2dnZXml3fX09+wsLuywxOTqfnoLtu1JZWcnDDz9MeXl5N3fCpKQk7rzzrj5fXrVa3e3vAgLt7e20tLS43e729nby8vIQu7obarVkZWV1t24PAdu3b6e+vv7EMxRPJBs43fhZLSOZTCZGjx59ouhzFwd5rVaL1JmFoWsNWTg1m6IkOWrzlJaWnnINm81Gbm4uy5cv73I8ZGRm4OPj4/FcyJEzufucVZIkt+bRvXlpLVy4kE2bNrFmzZoejzslmF9wJE7vjwBD5/SitVU2wkk4wguDg4NPNfAMAGcMdFJSEpMnT2bTpk09BhMUFxdTXFxMaGhop2FPIiIigrS0NPbt2+dxO9xFceRwgU6nIzIykomdbooZGRmMG5dMWFi421UBbDYrtbV1HDp0iG3btpGTk8Pu3bv7NHhs27aNxsbGLkYjifHjxjNq1Kg+w97cQa1WExDg362tTU1NPXYmJyNJEq+++ioZGRlcfPHFsmujwWDgjjvukCsenIxWo5Gtts5rNjc397sz2r9/P6WlpYwbN67buvSYMWMGLMDOTtkZtZSWlkZiYiJBQUE88MADPQpwQ0MD27dvZ8aMGUiSRGtrK+Xl5ag1ao++m/6iOHKchEqlIjQ09BQ3RWdVAEEQeqwKAAKqzqoAol2kqbmpW6X27du3c/jwYbezKToDyJ1LN6IoEh4WxuTJkz0W4JiYaKZMmSLPsVQqFXv27OnRKt4TTU1NPProo0yZMkV2aBBFRxaJu+66i1//+tenjKwarfaUOXBTU1O/100rqyrZvXs3EyZMkDvOAH9/0tPT2bJli1vn0Ol0REZFMnFiClmdnXJycjJhYWHdOmVX6WO//vprYmNj5TrB+wv3U1PtuRbQLxRHju4EBATwz3/+k1mzZuHr63uKm2JXVIKAIDvJt1NeXt6tUvuBAwd6rdTuivp6RwB5RkaG/JlOryc7O5sPPvhgwPdnMBj45S9vZOzYsY6k4oKA2WzmP//5T78CFAoKCnjsscd47LHHuq0pL168hM2bN/Pii90zeOj1egyduaPghB90fxOw26w28vLyuPjii+XP1J3hhS+88EKP51Or1YSEhJCcnMy0adPIzMpkUkoKUVHRXaKWRMSTgiAkSWLKlClERUVx9OjRU867YcMGNm7c6JV0Q8PJwAV4BNqwWltbEUWRgMAAbFZbr2pxR0cHldXVFBZ2r9ReUVHhdqX2Ph+NJJGTm8u1117bzUCTnp5OQEBAv6y3TkaNGsVtt93Gddddh0qlkpeovvjii15LbPbF+++/T1ZWluyl5VCl9dx6261s2bKlmyqt1+sxGI3dtI+GhoYBeU6dOr1w5GmOiIigtLS0W5rXqVNP+I7Hxsbi5+fXrVM+2UnG+R3b7Y4UOdXV1b0a97xV/cEjhtORYyTS0dHBli1bWLRoUbfPpU6/3eLiYtlJfteuXV4p9twbu3bupKamhoiICPlFTUxMJDEhke073Is/1ev1jB07ljlz5nDZihVMSkmRpwEqlYqdO3fyt4ceGlAOYovFwj//+U/S0tK6+e4mJSZxzz33cMcdd8ijusFg7BbML0lSv5w4unLw4EFKSkrksDtJkoiJieG8886joaGBs87qTPM6JongoOBuxraeXFEFlQAStLa1Ul5WTkFBgaxFFRUVDUu5k6FkRFRmUKvVGAwGjEYjarUau91Oe3s77e3t/V5P27p1K01NTXJgtUoQOF5Z6TDSbNlC4xBVBXAGkEdFRckvalBQEFPTpvYqwCeHGk6fPp1p06YRGRnZLcwQTqyj3nPvvXz99dd89dVX/Raq4uJiHnroIZ599ll5RJQkiUWLFvHdd9/xyiuvAGA0GtDrdCf8qftIJ+uKuro6tu/YzrT0afJ9GI1G/vKXvzhG+j58x3uqrbS/sJD8vDxy83LZt3cflZWVI2N0HSKGZQRWq9WEh4czYcIE2QgRFRUlL+dYO5OlHT16lB07drD5p5/YX1jolnpbVFTEkSNHSE1NlX1/fX19aW9vp2EAqutAcdSn3co555wjf+asT/vqq6/Kc1g/v85Qw051cerUqcTFxuHn71AX7aJdTgjXFUmSGDVqFCtWrGDp0qV888033H///f02kq1fv56XX36ZO++8Uz6v08Ejf2s+BbsLMBqNaLq4QHoiwJIkkZuTyzVXX9NteuHn5wc9qMUqwTHKOjNgnrwacOzYMZdJBc5kPPCF7v8optfrmTZtGkuWLGHOnDmMHj0ak8kkz+kAeW4Hji/wiiuuoKqqig0bNvDcc8+xa9euPkdQZwD51KlT5fP5+fmRlZXF999/P6QP90QAuQ5Jcrz4U6dOJTMzk8jISLKzs5k2bRpjxowhOLh3dfHE/B1AOKUigFqjZsGCBYiiyM0339xnqteTsdlsPPPMM6RPS+fc2efKqvTYsWO5+667+dWvfoWPj083zzOb1TqgebyTnSdNL5zfU7fVgM6UOd1XA7ZRXOz+asDPgSEZgQVBIDU1lVtuuYX58+cTEhICONZHuwax90ZkZARXX301Z599Ng8++CAff/xxr19g1wByZ0egUqnIzMzEYDD0nafXyzgNY/Hx8Z2WUpExY8bw5ptvEhAQ0Ku62LUqgMViobm5mbKyMurq6lCpVMTHxzNq1Ch5Pkxn53DeeeexcOFCXn/99X61s7Kykof++hDjxo4jKjpK/k4WLlzIpZdeSnNTkxzMLwgCZoulz3Syrjh69ChFRUVERUchdZboRHKsBhw/fpw9e/aQ54zQ8mA1YKRzWjhyaLVaLr/8cn7zm9/IdVq7fhknas6cSFUrdN7ciSUgCbCTmJjIw488THt7O1999VWv13QGkIeGhsoj2oQJE4iOjnZ7vdQbOF/GxMREuZPSaDRyYPspVQEEsFodUT4HDx5k27ZtbNu2jYMHD3Ks9BitLa0IgkB0dDRXX301N9xwg+xg4Uxet3z5cj766KN+573asmULTz/7NH/4/R9kYTUajfz6179mw4YN3Xy7zWazRyNwc3OzHF5YVVVFYWEhW7du7ZYyxxurASOdEe/IodFouPnmm7nvvvvw9fU9JY2K1WqltLSU4uLDFBU5grqdNXRSJk0idUoq/gH+8stvt9uJjorm/vvvZ8+ePb16HzkDyMPDwx3zYFEiMjKSlJQUjwXYuS45fvx4RFHkxx9/7FUbcNan7RpADshWZOeSR1NTd8eRHTt29Ok4cvDgQf7y57/Q0dHBPffc0823OT09nYkTJ5KTk9Ov+5IkiVdefoX0tHTZS8upMYSHh8vXcGbR6K8b5cn85z//oaCggF27dskRWj87hrUygxvdx0UXXcRvf/tbfH19u3kO1dfX880337B+/Xry8vIoKyujra2t28vq6+vL9OnTueeee2SXN3AI8dTUVFauXMkjjzzS43UbGxvZtm0bM2bM6HxOjtEkKyuLTz/9tJ/3eWr5ydTUVBISEti+fTuXXXZZn6PdyQHk4BCWI0eOOAQ2L4+t+fkUFRX1S1XssHawZs0a5s2bdyJYX5IICAggMzOz3wLsfG6PPfZYNy8tQRBkC7XzeTQ3N3tsOCooKOjRbVOhfwxaZYaEhATuvfdeAgICur2UP/zwA48++ihbtmzpcz7a0tLChg0bOHDgAE8++SRz5sw50Qmo1SxdupQ333zzlIRuTnJzczFbzOi0Wrmt6enp+Pn5uVQvjUYjo0aNYsqUKY6gh2npjElKIjAoGG2neilJUmc8a3yf8ayFhYUcO3aMlJQU+TnY7XYeffRR3nrzTWwezO0qKir47LPPumVCVKvVzJgxgxdeeGFAXka7d+/m8ccf55FHHjkRdHDSl93U1PSztvx6DS/o0IMWx3XJJZcwceLEbsWg161bx0033cS3337rtjHp6NGj/OlPf+LIkSPyfBlgwoQJ8gjbE7t376aqsgpBOKFeJo9N7jFuVqvVMmrUKObNm8f999/PW2+9xSeffMJzzz3PLbfcwvTs6QQHh8gFvZyjXVhY2Cn5j07GGUDedQ6p1+uJi4vzSHidfPfdd9TU1JyojieKpKWlkZSUNOBzvvfee7z77rvd2uzEWVPo5zBHPR0YFEeO4OBgLrjgAnmOp1KpOHr0KH/+85/dipo5mW3btvHmm29y332/o6mpmZKSEjndaG84A8jj4mIRxU7Hh9AQpkyZQkFBAaGhoYwZM4Zp06aRnZ3FpEmTiY6OdsS9Cshrr/K8nZOS0LW2UF5W3uNL3hW73U5OTg6XXXZZt88zMzMxmUwez/0KCgrYsWMH8+fNx2a3IYqOFDG/+MUvBlyH12w288QTT5Cens7UqVNlVdo5D66urh70BHQK7jEolRkSExJISkzqluN43bp1Hs153n77bWpqati7dy9FRUUuq8g5A8jnzZt34mY1GlauXMn06dNJS0uTqwL05V/bNQldZUUle/ftJS8vj7y8PAoLC6murnbZdmcAeXBwsKySjhs3jtGjR7N///6BfwU46vBu3ry5Wx1ejUbD2Wefzcsvvzxgr6TDhw/zt7/9jaeeegqj0UhZaSm7O90Uv/76a2UddoQwKEntRsXG4ut3wmhjtVrJz8/3KM3IkSNHTomSccXJAeSiKDJz5kxmz57de25mtVrO+eSsCuBc4igoKKC8vLzfa8knB5CLokhoaChTpkzxWIDBsQTU1NQk58lyWqMTExMpLCwc8HnXrVvH7bffTkdHB3v27PnZuSkONiN2HdjvpBzCzqWSoWbf/v2UlZWRnJzczQJ8QmA5ZTmnpKSEHdt3kJObw44dOzhy5IjHeawcAeTbuqXV0et0ZGdn8+6773p8n7t372b37t384he/kDuI0aNHs2TxEh4tfHTA57Varf222isMLYMiwBaLpZtLpE6nIz4+fshvrqrSEUDuXLN14gw9a2tro6ysjIKCAnJyctm27UQEi7eTkuXk5HLdddefSCoHpKWlERQU5HHETENDA9999123vMsqlYprV11LTm7OkLuQKriHNxw5BsUKXV1djcVi6ebKOGvWLK9l/XMXq9VKXl7eKfPaiooKHn30Ua666iqWLFnSmdTuKbZs2UJtbe2gZBTsqT5tYmIiiYmJXjn/T5s309zc3M0aHRcXx7PPPsstt9zSaxZNhWHECzr0wAt899F9HD58mOrq6m4v06xZs7juuuvQd8nsMBRs3baVxsbGbgESTU1NvPTSS2zYsIGysrIhmdcdO3aMwsJCR/wqdKtW7w127tjBtm3b0Gq1aDQa7HY75eXlHC453M23WmHkMKxz4L6mhMePH2fnzp2yD7DTr/b+++8nJSWFz9Z+xpGjR2hvb8dqtcquhWq1Go1Gg06nkze9Xo9Op+/0E3aEGVZXV1NdXe2WMenQwUOUlJTIQevOMLzx48f36gQyGLS1tZGfn8+cOXNOPPzOdDIvvfSSx876jY2NvPTSS+h0Ovbs2SNX9hvMpAUKnuGON6MrBm0O/P777zNv3jyMnalYnPmRr7rqKpYvX05LSwsdHR3y6OccJZybRqPp9js4RnKz2UxDQwMHDhxg/fr1rF27luPHj/falrq6Onbs2N6tPq3JZCIjI4Ovv/56MG6/V/Ly8mhra5O1EGfeprCwMCoqKjw+/6effsqGDRvk1EIKIxtvrMQNWkaODRs28OWXX7J8+XJ5dHGus+p0OkJCQnp2gpBOjTU+4YfrcHMMDg5mzJgxzJs3jyuuuIKHH36Y9evX9/jSiqJITk4uV111tTz/VAkCmZmZGI3GIXUJ3Lt3L8ePH5c1E6e1eNy4cV4RYJvN1u8oJIXhwxsjsAdGrL67j9bWVv785z/z/fffo1arUQndL9W1oHW3Tepenb7r8o0knTjOZrMhdAriU089xbJly3pty86dO6mtrZXLeoiSxPjx44mJifHC1+A+FRUVFBQUdKva4Ovr2y17pYJCf/CgtIprDh48yC233MJzzz1HVVUlKpVwimqs7pz7nqw+97Q5OoLu3ZbdbiciIoLf//73TJo0qcd2HDlyhKKiIjmNrLPwcm/7DwRn1I4jH3XP5UI6OjrIy809JR46Ozu7W9I4hZ8HI9aRoytHjhzhvvvu44033mD27NmkpKQQHR2Nv78/Wq1WdqLo6OjAYrFg6bBgMVvo6OjoLGMiodFoMBqNhIaGEhUVRXh4uOz+CA4hTkpK4sYbb+See+45xarc3NzMtq1bmTlzpvyZwWAgKyuLjz76aMD35uPj0xm1NJmsrGzS09MZO3Ys+/btY8WKFT0Gvedv3Upra6sj6Z4o0traisFgwM/Pb0izhSicGQzJ4qDVamXHjh3s2LFDzkCp1+tlt0Wnd5TNZpMDCLpWeBMEQRbiyMhIZs+ezY033ijHrIJDHT3//AU8/9zzFOw51ec6Ny/vlPq0jjzN/jQ2uuclptPqiIiMYMKECXKplvHjxxMWFtbNMJWcnExCQgI7duw45RwHDhwgZ0sOgkogJyeHvLw89u7dO+AkcQqnL8ObkWOAV7fb7bS2tvZ7acNms2E2m6mvr2ffvn0UFBTw3HPPMWrUKHn+HBYWQUZmRo8CvGdPARUVFcTFxcn7jxkzhri4+F6r1DvTvDqjlrKyspg0aRLR0dF9lmoJDg4mPT29RwGura3lxptupLW1ddCKPiucJgyvFXp4+eGHH3jrrbf4zW9+I3+m1WrIzMzktddeO8UiXVZWzr59+0iIT0DEYSgLDg5m6tSpsgB3TfOaOjWV7CxH9o2eopa6u2aCIHT6VIt22lrbejWQiaLoVgSTws+A4VwHHgnRZJ9++imrVq2Sk8RJksSYsWMwmUynLKeYzWby8vI4//zz5c+0Wi0zZszgp59+IiUlhaysLDnNa0hIiNtVAdra2zheflyurZSfn++VKCMFBVcMUIClYR+BwRG0X1lZSUREhKzC+vn5YTAYelwPzc/Pp6WlBZPJ1K027syZMwkPD3erKoCAgKXDQmVlpVxbKTc3l71793qttpLCz4NhdOQQGH4l2iFo4kkuiH05mBQWFlJaWsr48ePlEdvf35+AgACkk+axjoglFarOqgD19fVDWltJ4cxHEDyX4EHJyHEyBoOB6OhoJk2aRGpqKh999FGfieDcJTIykrDw8G7OHnV1db0ah6qqqti1excTJ07sZr3uqSpAS0sLx44dY9euXeTk5LB9+3YOHTpEY2Ojko1CwUt4PggOSkaOrkyfPp27776biRMmEBEZKZfp8FSABUFg8eLFREZGdjMoFRQU9Doq2mw28nLzuGT5JfI5uqbMqaioYO/evfI8trCwkJqaGiX/k8KgcFo4cuj1es455xx8fHywi4713Ysuuoi33nrLo3QvF1xwATfccIM8YjrDBNetW9fncdu2bXPkafbzpbqqmqKiInkeu2fPHsrLy0/7os8KpwcjvjIDOALZd+zY4UgBK4EoiSQkJHDHHXfw29/+tt8Z/g0GAxdffDEPPPAAERER3RLGf/bZZ/z00099Hl9UVMQTTzxBZWUl27dv58iRI7S2tipqscLQM5zrwO52H/X19bz77rtkZmZ28w++7LLLqK2t5e9//7tbdXZ0Oh1paWlcf/31LF68uFu1B7VGzbat23jsscdcRhc1NDTw97//3fMnp6DgIcOqQvfHgPbpp59y6aWXcvbZZ8tB9TqdjltvvZWkpCRefPFFtm/fTlNTU7cR1c/Pj+iYGDKmTeO8886Tl3ucnlTOOez2bdu59957+10bV0FhOBnWgP7+9B5VVVU89LeHeO7Z54iOiUa0O9ZZ1Ro1S5Ys4ZxzzmH//v0UHTxIfV0dCBAUGMSYMWMYPXq07Gvs9JEG5CCIL7/8kgcffFBxnFD4WTJkjhzff/c9DzzwAA899BCRkZEOQZQcvtF+fn5kZ2czffr0bkW0HEs8IqJ4wqnCWV6ltLSUl19+mTVr1iiBAAqnJ6eTI4ckSfz3v/+lubmZ3//+90yZMgWgx4oIp1xNOLE+W1payldffsUrr77C7t27ldQxCqcvw+nIIQ2g+xBFka+++orCwkKuuuoqli5dSnx8PHq9/kS1eZxzA8fvHR0d1NfXs2vXLr799lu+/vprCgsLlbVZhTOAYXTk8ISSkhL++te/8tprr8kBBAkJCQQEBKBWq7BYOqirq+PgoYPs37efgwcPcuDAAcVtUeGM4rRw5OgNURQ5evQoR48e5YMPPkCr1aLT6RAEQc7QoYyyCmcyp4Ujhzs4VWUlkkfhZ8VwVmYYAcFICgqnNd5QoQcuwIrnoYKCRwxzXmgFBYXhZuDFzRQdWkHBM4Z1DqygoOAZXnDk8KAygzIJVlDwBG9EsPZbgC0WC1qtdsjr/CoonEmo1Wp8fHywWMweSXK/BNhZ3V6r1crlOhUUFPpPQkICcXFxHDly1CNdtl8CrFKpOHbsGHl5edx+++0kJiYO93NQUDjt8PPz46677qKpqYn8/PweC+G5S7+PtFqtvP7662g0av7xj38wZsyY4X4eCgqnDUFBQTz44IPMnDmT559/nrq6up7rZLuJOiws7I/9OcCZPG7v3r3MmDGDSy65hJqaGo4ePar4Liso9IJarSY9PZ2//e1vTJ06lSeffJLc3FyPRl8YgACDQ4jr6urYsmULISEh/PKXv2Tq1KlUVlZSXV3dZ2yvgsLPCZVKRVJSEnfeeSf/8z//Q01NDX//+9/ZvXu3x8ILIEycOHHAc2hJklCpVKSmpnLVVVcRFxfHli1bePvtt8nJyemxvImCws8BvV5PysSJXHrZZcyfP5+Ojg7eeecdvv/+e9rb270ivOChADsRRRGTyURaWhoLFixg/PjxlJSU8OWXX7JhwwaKi4tPKbqtoHCmoVKpiIqKYubMmSxatIjJkydTVVXFunXr2Lx5MzU1NZ0le7znxegVAQbkYmF6vZ7ExERmzpzJ9OnTMRgM7N69m++//57cnByKDx9W6uIqnDHodDpiYmJIT09n1syZZGZlodfr2LFjJ9999x179uyhpaVFzuXmbbwmwF1x5qkKDAxk8uTJzJgxg5SUFAwGA4cPH2bLli3k5OSwd+9eZc6scFohqAQCAwIZO3YsmZmZnDXjLCZOmIhKpeLgwYNs3rKZbVu3UllZhd1uHzTBldszGALsxDkqq9VqgoKCGDduHFlZWUyePJmgoCAaG5vYs6eAzZs3s3v3Lo4cOUpdXZ2ibiuMGFQqFQEBAYwaNYoJEyYwffp00tLSiIiIoK21jcIDheTm5lJQUEBlVSXWDisqlaOy5VAwqALcFacwq1QqfH19iY6OZty48UyePInExERMJhOtra2UlJRQUFBAwe7dHCoupqKigubmZkWoFQYdtVqNyWQiLCyM+Ph4UlJSmDx5MmPGjCEwKAhrRwfHjh1jz5497N27l6NHj9LY2IjNZutWKG8oGTIB7oqzpKckSajVavz8fAkPjyQhIZ7k5GSSkpIIDw9HpVLR1NREaWkpRUVFFO4v5NDhQxwvP059fT1tbW1KWlmFfiMIAnq9nsDAQCIiIoiPj2fcuHEkJycTFxdHcHAwKpWK+vp6SkpKKCwspLi4mPLychobGx2DiQAqYXDVY7fuZTgE+GS6CnTXhxsZGUlcXByJiYnEx8cTHh6OTqfDbDZTU1PDsWPHKC4u5tChQ5SUlHD8+HEaGhpoa2tT5tUKqFQqDAYD/v7+REZGMnr0aJKSkkhKSiIuLo7w8HBMJhOiKFJbWyu/T4cPH6a8vJy6ujra29vlMj7etiB7gxEhwD0hSRKSKCIBKkFAp9fj7+9PaGgokZGRxMTEMGrUKCIjIwgKCkan1dFhdeSQrq6upry8nNLSUsrKyjh+/DjV1dU01DfQ0tqC1WpVBPwMQKVSodVqMRqNBAYGEhISQlRUFDHRMcSMiiEmJobw8HCCg4MxGo3Y7XaampqorKykrKyM0tJSKioqqKqqorGxEbPZLL8XI1VgT2bECnBPdB2pwfEF6nQ6fHx8CAoKIjw8nMjISCIiIggPDyc0NBQ/Pz/0ej2iKNLe3kZdXT11dXXU1NRQVVVFVVUV1dXV1NXVUldXT3NzM+3t7ZjNZmxWK3ZFRR9yVCoVarUag8GA0WjEZDIRFBREcHAwoaGhRIRHEBYeRlhYGMHBwYSEhGAymdBqtVg7OmhpbaWuro7KqkoqKyuprHD8X1dXR0tLCxaLpVsHPpRGJ29zWglwb5ws2E6DglarxcfHB19fX/nLdwp2cHAIQUGB+Pv7YzAY0KjViJKE2WymtbWV5uZmGhsbqa+vp77eIfTOn+vr62lpaaGtvZ32tjbMZjNWqxWr1YrNasNmtyn1hjtRq9VotVo0Gi1arUYWSh8fH0wmEwEBAQQHBxMUFCQLaVBQEIGBgfj5+eHr64vRaEStVmO327FYLLS0tNDQ0CB3xNVV1VTXVFNbW0tTUxNtbW10dHTIlTDh9BlR+8sZIcB9cbJwg+PLVKvVaDQa9Hq9LOSBgYEEBwcTGBhIYGAA/v4B+Pv74+fnh4+PD0ajEZ1Oh1qtlus52WxWOjqstLe309bWRktLCy0tLTQ3N9Pc3ERraxvt7e3yZjabu20Wixmz2YLNZpOrL3b9+eRNNtpJ3bOinNxhdH1xu953bz+r1epTNo1Gc8rver0Og96A3mDAcNLmFEwfHx/8/PxkAfT19XV8bvRBp9eh1WpRq9VyvSur1drZcbbR0tIsd56NjY00NDTInWZzczOtra0O7chmw2aznfK9CkJntrYzTFB744wXYFc4X4CehFwQQBBUnSOIRp5vOYXZaDRi8jXha/LFZDJhMpkcL6zJhI/JhI+PDzqd44V1nsMpDCcvOTiX2ZzF3kRR7FGgnX+XRBGxS+fk3ERJRBIlR5aHLqOOU03sOhKd+JuqR4FVqVTdNodwCHLHIUoiov1EO51aSEdHB+3t7bS2ttLa2kpLS4vj55YWWjo/a2trkzu99vZ2uRKH1Wo9cY+ShCPzW3fBPNNGUU8YEZUZhhPny9DXS+F8KQEaGhvhJGE/+XzOl90pGD2NaBqNBp1OJ28ajabHzSn8zk2lUiGoVKh6EMSuwoqgktvpLNEqST1vol3EarPKAmi1WuUR7uTNau2go8PxPJzGwO4agw2bzS53Qs7/3Xn2AgIInJGq7mDxsxdgdznxkuGWeuZUsbvOw07+e08/j2yEbrfe07MQevhdrVYPd8PPWBQBHgJ6Gk2UEUbBG5yetnMFBQVAEWAFhdMaRYAVFE5jFAFWUDiNUQRYQeE05v8DyxS0Zn3WtyMAAAAldEVYdGRhdGU6Y3JlYXRlADIwMjItMDctMTBUMTY6MTk6NTErMDA6MDABsiALAAAAJXRFWHRkYXRlOm1vZGlmeQAyMDIyLTA3LTEwVDE2OjE5OjUxKzAwOjAwcO+YtwAAACh0RVh0aWNjOmNvcHlyaWdodABDb3B5cmlnaHQgQXBwbGUgSW5jLiwgMjAyMuS0v5wAAAAXdEVYdGljYzpkZXNjcmlwdGlvbgBEaXNwbGF5FxuVuAAAABh0RVh0aWNjOm1hbnVmYWN0dXJlcgBEaXNwbGF5mRrp2QAAABF0RVh0aWNjOm1vZGVsAERpc3BsYXn4nJwgAAAAAElFTkSuQmCC;" parent="1" vertex="1">
                    <mxGeometry x="526" y="361" width="242.71" height="268" as="geometry"/>
                </mxCell>
            </root>
        </mxGraphModel>
    </diagram>
</mxfile>
